<svg xmlns="http://www.w3.org/2000/svg" width="108.694" height="121.161" viewBox="0 0 108.694 121.161"><g transform="translate(-145.793 -28.117)"><path d="M296.07,175.489s-11.426,16.344-5.243,26.215,11.245,24.082,22.165,25.817,15.693-44.041,15.693-44.041l-2.6-19.381Z" transform="translate(-129.162 -118.119)" fill="#1c1c1c"/><path d="M484.264,248.446s4.375,35.617-5.279,43.861c-2.061,1.736-17.609-4.99-17.609-4.99l2.5-31.567Z" transform="translate(-259.717 -182)" fill="#1c1c1c"/><path d="M420.171,338.273V322.508h-25.2l-.253,6.942a90.812,90.812,0,0,0,8.606,42.342h7.557c6.147-6.472,10.559-1.663,10.775-11.5C421.653,360,420.171,338.6,420.171,338.273Z" transform="translate(-209.184 -238.092)" fill="#ffc89b"/><path d="M422.945,339.8v3.58s-16.163,19.743-16.018,35.942a57.151,57.151,0,0,1-7.412-31.277l.253-6.472Z" transform="translate(-212.826 -251.185)" fill="#8fe4ff"/><path d="M422.945,339.8v3.58s-16.163,19.743-16.018,35.942a57.151,57.151,0,0,1-7.412-31.277l.253-6.472Z" transform="translate(-212.826 -251.185)" fill="#ffdcc1"/><path d="M420.026,338.273V322.508h-25.2l-.253,6.942c-.542,14.825.8,22.057,6.979,34.893h21.876C423.389,364.344,420.026,342.829,420.026,338.273Z" transform="translate(-209.039 -238.092)" fill="none" stroke="#1c1c1c" stroke-linecap="round" stroke-linejoin="round" stroke-miterlimit="10" stroke-width="13.167"/><path d="M388.118,437.942l-1.985,2.817,3.54,33.089h30.446l3.182-36.159-6.4-.578.641,4.728s-.388.186-.641.324A29.164,29.164,0,0,1,412.867,444C403.269,447.493,394.443,444.48,388.118,437.942Z" transform="translate(-202.732 -324.887)" fill="#7512d8"/><path d="M339.831,478.246H231.137c-.036-8.316,3.905-23.756,12.041-25.528,3.941-.831,9.438-2.459,12.583-3.4,1.953-.578,3.724-1.193,5.243-1.772s2.82-1.121,3.869-1.627c.036,0,.108-.036.253-.072a1.677,1.677,0,0,1,.326-.108c1.085-.325,3.29-.94,3.435-1.049.108.145.253.289.362.434v.036a30.212,30.212,0,0,0,4.05,4.014c12.8,10.305,29.108,3.833,36.267-6.256l11.137,2.965,3.544.94,2.748.723.072.036,1.916.506c.289.072.615.181.9.253a3.181,3.181,0,0,1,.542.181,9.043,9.043,0,0,1,1.374.542l.434.217C335.094,450.621,339.722,473.871,339.831,478.246Z" transform="translate(-85.344 -329.286)" fill="#508aff"/><path d="M507.748,191.834c.832,6.834-.4,29.253-4.954,29.253s-10.233-16.742-10.233-23.612-1.157-18.622,3.4-18.622l5.171,9.871Z" transform="translate(-283.237 -129.293)" fill="#1c1c1c"/><path d="M363.222,226.291a18.407,18.407,0,0,1-26.577-16.271V182.9a6.582,6.582,0,0,1,6.581-6.581h27.227a6.582,6.582,0,0,1,6.581,6.581l.072,24.118C377.143,209.08,369.73,223.073,363.222,226.291Z" transform="translate(-165.252 -127.375)" fill="#ffc89b"/><path d="M356.532,258.924a74.63,74.63,0,0,1-10.45-1.518c-4.05-1.049-9.293-12.186-9.293-14.319l.94-24.263c0-2.1,3.182-2.567,5.641-2.567l32.109.217c9.22,1.446-2.893.723-4.918,2.242-5.641,4.231-23.865,3.4-23.865,3.4l3.182,4.737-.651,14.03,1.193.253a2.139,2.139,0,0,1,1.736,2.169l-.181,4.158s1.989,8.5,10.342,7.123C365.788,254.043,355.772,258.056,356.532,258.924Z" transform="translate(-165.361 -157.622)" fill="#8fe4ff"/><path d="M356.532,258.924a74.63,74.63,0,0,1-10.45-1.518c-4.05-1.049-9.293-12.186-9.293-14.319l.94-24.263c0-2.1,3.182-2.567,5.641-2.567l32.109.217c9.22,1.446-2.893.723-4.918,2.242-5.641,4.231-23.865,3.4-23.865,3.4l3.182,4.737-.651,14.03,1.193.253a2.139,2.139,0,0,1,1.736,2.169l-.181,4.158s1.989,8.5,10.342,7.123C365.788,254.043,355.772,258.056,356.532,258.924Z" transform="translate(-165.361 -157.622)" fill="#ffdcc1"/><path d="M452.578,211.343s2.35,33.375,12.909,38.69,5.966-36.2,5.966-36.2l-6.581-4.881Z" transform="translate(-253.055 -152.093)" fill="#1c1c1c"/><path d="M353.727,229.911c-5.749.832-15.078-9.293-16.163-18.586s-.94-28.276-.94-28.276a6.581,6.581,0,0,1,6.581-6.581h27.227a6.582,6.582,0,0,1,6.581,6.581l.072,24.118C377.122,216.568,359.476,229.079,353.727,229.911Z" transform="translate(-165.231 -127.487)" fill="none" stroke="#1c1c1c" stroke-linecap="round" stroke-linejoin="round" stroke-miterlimit="10" stroke-width="7"/><path d="M388.445,268.861l-.615,8.967c-.145,1.808-.253,3.4,1.555,3.544" transform="translate(-203.962 -197.462)" fill="none" stroke="#1c1c1c" stroke-linecap="round" stroke-linejoin="round" stroke-miterlimit="10" stroke-width="2"/><path d="M353.271,268.876a2.17,2.17,0,1,0-2.169-2.169A2.169,2.169,0,0,0,353.271,268.876Z" transform="translate(-174.572 -194.187)" fill="#1c1c1c"/><path d="M416.747,272.159a2.169,2.169,0,1,0-2.169-2.169A2.17,2.17,0,0,0,416.747,272.159Z" transform="translate(-222.646 -196.673)" fill="#1c1c1c"/><path d="M390.875,338.287a21.778,21.778,0,0,1-3.941,4.122,11.236,11.236,0,0,1-3.218-3.218.278.278,0,0,1,.253-.434,12.071,12.071,0,0,0,6.581-.832A.254.254,0,0,1,390.875,338.287Z" transform="translate(-200.862 -249.748)" fill="#1c1c1c"/><path d="M368.059,124.506V133.8c-2.676-.217-6.256-.217-10.414-.145q-2.495.054-5.207.108c-3.941.073-8.172.181-12.547.181-11.245,0-21.117-.289-26.794.47v-9.908c0-1.446,1.41-2.6,3.182-2.64h.108a11.733,11.733,0,0,1,.94-4.3,17.653,17.653,0,0,1,2.531-4.339c2.133-2.676,5.062-4.7,8.317-4.7l14.753-.651c4.7,0,16.416-.8,20.791,9.22a12.019,12.019,0,0,1,1.121,4.737,4.331,4.331,0,0,1,1.193.181,3.654,3.654,0,0,1,1.121.579A2.741,2.741,0,0,1,368.059,124.506Z" transform="translate(-147.418 -75.525)" fill="#8fe4ff"/><path d="M368.059,124.506V133.8c-2.676-.217-6.256-.217-10.414-.145q-2.495.054-5.207.108c-3.941.073-8.172.181-12.547.181-11.245,0-21.117-.289-26.794.47v-9.908c0-1.446,1.41-2.6,3.182-2.64h.108a11.733,11.733,0,0,1,.94-4.3,17.653,17.653,0,0,1,2.531-4.339c2.133-2.676,5.062-4.7,8.317-4.7l14.753-.651c4.7,0,16.416-.8,20.791,9.22a12.019,12.019,0,0,1,1.121,4.737,4.331,4.331,0,0,1,1.193.181,3.654,3.654,0,0,1,1.121.579A2.741,2.741,0,0,1,368.059,124.506Z" transform="translate(-147.418 -75.525)" fill="#7512d8"/><path d="M357.208,216.2a1.024,1.024,0,0,1-.325.723c-.759.9-2.929,1.663-6,2.35a99.527,99.527,0,0,1-12.475,1.7c-6.472.578-13.776.868-20.466.868q-4.448,0-8.136-.109c-12-.362-17.718-1.627-17.718-4.628a1.32,1.32,0,0,1,.506-1.013c.759-.687,2.35-1.157,4.592-1.446,5.677-.723,15.548-.47,26.794-.47,4.375,0,8.642-.108,12.547-.181q2.712-.054,5.207-.108c4.158-.072,7.738-.072,10.414.145,2.35.217,4.014.615,4.7,1.3A1.3,1.3,0,0,1,357.208,216.2Z" transform="translate(-131.505 -155.792)" fill="#a051fb"/><path d="M512.867,152.059c-.325-.036-.723-.108-1.121-.181A5.19,5.19,0,0,1,512.867,152.059Z" transform="translate(-297.866 -108.864)" fill="#231f20" opacity="0.1"/><path d="M375.559,121.8H357.8V96.52a6.259,6.259,0,0,1,6.436-6.038h4.881a6.236,6.236,0,0,1,6.436,6.038V121.8Z" transform="translate(-181.278 -62.365)" fill="#a051fb"/><path d="M314.407,465.519H295.749c-.868-8.678-2.6-34.134-1.555-35.11,2.893-2.567,18.4-4.556,18.766-4.267,0,0-.036,1.808-.036,3.941v1.157c0,.832.036,1.663.072,2.423.072,2.025.217,4.448.362,7.015C313.684,445.848,314.081,461.324,314.407,465.519Z" transform="translate(-132.854 -316.558)" fill="#a051fb"/><path d="M545.1,461.884H527.421c.4-14.753.868-39.088,0-40.208-.832-1.049,12.185.4,16.741,1.7.108.036.289,3.074.506,7.159C545.03,437.549,545.356,458.738,545.1,461.884Z" transform="translate(-309.709 -312.924)" fill="#a051fb"/><path d="M377.617,463.632c.434,2.133.832,16.308,1.157,20H374c-.326-4.158-.723-19.67-1.049-24.8-.145-2.567-.289-4.99-.362-7.015,0-.217-.036-.434-.036-.687,1.085-.325,3.29-.94,3.435-1.048.108.145.253.289.362.434v.036C376.6,454.664,377.147,461.317,377.617,463.632Z" transform="translate(-192.449 -334.704)" fill="#231f20" opacity="0.2"/><path d="M284.781,569.439h.036C284.817,569.548,284.781,569.656,284.781,569.439Z" transform="translate(-125.972 -425.107)" fill="#231f20" opacity="0.2"/><path d="M285.006,569.13h-.072C284.97,569.058,284.97,568.949,285.006,569.13Z" transform="translate(-126.088 -424.798)" fill="#231f20" opacity="0.2"/><path d="M604.334,456.36c-.4,5.894-1.049,24.479-1.41,30.916h-3.869c.217-3.109-.108-25.456-.434-32.434l2.82.759C601.441,455.564,604.045,456.251,604.334,456.36Z" transform="translate(-363.662 -338.315)" fill="#231f20" opacity="0.2"/><path d="M319.043,436.558a.32.32,0,0,0-.639,0v1.049a.32.32,0,0,0,.639,0v-1.049Zm0,3.213a.319.319,0,0,0-.639.011q.008.442.018.91a.32.32,0,1,0,.639-.014Q319.05,440.211,319.043,439.771Zm.065,2.724a.319.319,0,1,0-.639.018c.017.588.036,1.2.057,1.822a.319.319,0,1,0,.639-.021C319.143,443.69,319.124,443.082,319.107,442.5Zm.121,3.64a.319.319,0,1,0-.638.024q.033.9.07,1.822a.319.319,0,0,0,.638-.026Q319.262,447.031,319.229,446.135Zm.146,3.638a.319.319,0,0,0-.638.027q.039.905.08,1.821a.319.319,0,1,0,.638-.028Q319.413,450.678,319.374,449.773Zm.162,3.639a.32.32,0,0,0-.638.03q.043.913.086,1.82a.319.319,0,1,0,.638-.031Q319.579,454.325,319.537,453.411Zm.174,3.638a.319.319,0,1,0-.638.032q.046.922.091,1.82a.319.319,0,0,0,.638-.032Q319.757,457.972,319.711,457.049Zm.185,3.638a.32.32,0,1,0-.638.033c.033.623.065,1.231.1,1.819a.319.319,0,1,0,.638-.034C319.96,461.918,319.928,461.311,319.9,460.688Zm.194,3.638a.32.32,0,0,0-.638.035c.035.641.068,1.249.1,1.819a.319.319,0,1,0,.638-.035C320.158,465.574,320.124,464.966,320.089,464.326Zm.2,3.638a.319.319,0,0,0-.638.036c.018.323.036.625.052.9a.319.319,0,1,0,.638-.037C320.328,468.588,320.31,468.287,320.292,467.963Zm-.211,1.687a.32.32,0,0,1,.336.3c.018.341.036.6.049.774.007.087.012.152.016.2l0,.049v.015h0Zm.089,1.368-.318.032h0v-.017c0-.012,0-.029,0-.052,0-.046-.01-.114-.017-.2-.014-.179-.032-.443-.05-.79a.32.32,0,0,1,.3-.336Zm0,0,.318-.032a.319.319,0,0,1-.636.064ZM306.5,438.655a.319.319,0,0,0-.639,0V439.7a.319.319,0,1,0,.639,0v-1.049Zm-.359,2.9a.32.32,0,0,1,.322.317q0,.445.01.909a.319.319,0,1,1-.639.009q-.006-.464-.01-.912A.32.32,0,0,1,306.137,441.553Zm.038,2.733a.32.32,0,0,1,.326.313q.019.889.044,1.821a.32.32,0,1,1-.639.017c-.017-.622-.032-1.231-.044-1.825A.32.32,0,0,1,306.175,444.286Zm.1,3.647a.32.32,0,0,1,.33.309q.029.9.063,1.822a.32.32,0,1,1-.639.023q-.034-.923-.063-1.824A.32.32,0,0,1,306.27,447.933Zm.131,3.646a.319.319,0,0,1,.332.306q.037.906.076,1.821a.319.319,0,1,1-.638.028q-.04-.915-.076-1.823A.32.32,0,0,1,306.4,451.579Zm.157,3.644a.319.319,0,0,1,.334.3q.043.912.087,1.821a.319.319,0,0,1-.638.032q-.045-.909-.088-1.823A.32.32,0,0,1,306.557,455.223Zm.178,3.644a.319.319,0,0,1,.336.3q.048.918.1,1.82a.32.32,0,0,1-.638.035q-.05-.9-.1-1.822A.32.32,0,0,1,306.735,458.867Zm.2,3.642a.319.319,0,0,1,.337.3q.053.926.107,1.82a.32.32,0,0,1-.638.038q-.054-.894-.107-1.822A.32.32,0,0,1,306.933,462.51Zm.217,3.642a.32.32,0,0,1,.339.3c.04.626.079,1.234.118,1.82a.319.319,0,1,1-.637.042c-.039-.587-.078-1.2-.118-1.822A.319.319,0,0,1,307.15,466.151Zm.24,3.641a.319.319,0,0,1,.341.3q.033.465.065.906a.319.319,0,1,1-.637.047q-.032-.44-.065-.907A.319.319,0,0,1,307.39,469.792Zm.478,2.314a.319.319,0,0,0-.636.064c.036.366.071.71.071,1.017a.32.32,0,0,0,.639,0c0-.341-.038-.716-.073-1.071Z" transform="translate(-141.906 -324.227)" fill="#050505" fill-rule="evenodd" opacity="0.4"/><path d="M543.7,428.627a.319.319,0,0,0-.635.071c.017.152.025.314.034.492v.016c.009.17.018.353.036.537a.319.319,0,1,0,.636-.064c-.017-.168-.025-.338-.034-.512v-.01C543.732,428.982,543.723,428.8,543.7,428.627Zm.182,3.278a.319.319,0,0,0-.639.022q.016.454.029.928a.319.319,0,1,0,.639-.018Q543.9,432.362,543.885,431.9Zm.072,2.8a.32.32,0,1,0-.639.012c.011.6.02,1.226.026,1.862a.319.319,0,1,0,.639-.007Q543.974,435.615,543.958,434.7Zm.041,3.734a.319.319,0,0,0-.639,0q0,.918,0,1.864a.319.319,0,0,0,.639,0Q544,439.359,544,438.438Zm0,3.733a.319.319,0,1,0-.639,0q0,.926-.01,1.864a.319.319,0,0,0,.639,0Q544,443.1,544,442.171Zm-.025,3.732a.319.319,0,1,0-.639-.006q-.009.932-.02,1.864a.319.319,0,0,0,.639.007Q543.965,446.837,543.974,445.9Zm-.043,3.731a.319.319,0,0,0-.639-.009q-.013.939-.026,1.865a.319.319,0,1,0,.639.009Q543.917,450.574,543.93,449.634Zm-.055,3.731a.32.32,0,1,0-.639-.01q-.015.947-.03,1.864a.319.319,0,0,0,.639.011Q543.86,454.312,543.875,453.364Zm-.061,3.73a.319.319,0,1,0-.639-.011c-.011.639-.021,1.262-.031,1.865a.32.32,0,0,0,.639.01Q543.8,458.054,543.814,457.094Zm-.06,3.728a.32.32,0,0,0-.639-.009q-.007.476-.013.93a.319.319,0,0,0,.639.009Q543.747,461.3,543.754,460.822Zm-.368,1.726a.32.32,0,0,1,.32.32v1.049a.319.319,0,0,1-.639,0v-1.049A.319.319,0,0,1,543.386,462.548Zm10.624-32.172a.319.319,0,1,0-.637.044q.029.432.058.905a.32.32,0,0,0,.638-.039Q554.04,430.811,554.01,430.376Zm.16,2.736a.319.319,0,0,0-.638.032c.03.581.058,1.191.086,1.824a.319.319,0,1,0,.638-.028C554.228,434.306,554.2,433.695,554.17,433.112Zm.16,3.659a.319.319,0,1,0-.638.024q.034.889.065,1.822a.319.319,0,1,0,.639-.021Q554.364,437.663,554.33,436.771Zm.124,3.652a.319.319,0,0,0-.639.019q.027.9.051,1.826a.32.32,0,1,0,.639-.017Q554.481,441.328,554.454,440.423Zm.1,3.655a.32.32,0,0,0-.639.015q.022.91.04,1.826a.319.319,0,1,0,.639-.013Q554.572,444.99,554.551,444.079Zm.075,3.656a.319.319,0,1,0-.639.011q.016.916.029,1.825a.319.319,0,0,0,.639-.009Q554.642,448.653,554.626,447.735Zm.053,3.657a.32.32,0,0,0-.639.007q.011.925.018,1.825a.319.319,0,1,0,.639-.005Q554.69,452.318,554.679,451.391Zm.029,3.656a.319.319,0,0,0-.639,0c0,.625,0,1.235,0,1.828a.32.32,0,0,0,.639,0C554.713,456.285,554.711,455.673,554.709,455.047Zm0,3.66a.319.319,0,0,0-.639,0c0,.64-.01,1.25-.018,1.825a.319.319,0,1,0,.639.009C554.7,459.96,554.7,459.348,554.707,458.707Zm-.054,3.661a.319.319,0,1,0-.639-.017c-.009.319-.018.621-.028.9a.319.319,0,0,0,.638.024C554.635,462.993,554.645,462.689,554.653,462.368Z" transform="translate(-321.587 -318.247)" fill="#050505" fill-rule="evenodd" opacity="0.4"/></g></svg>