<svg xmlns="http://www.w3.org/2000/svg" width="90.687" height="129.189" viewBox="0 0 90.687 129.189"><g transform="translate(-263.136 -47.504)"><path d="M309.234,400.51l-3.056,9.947-.419,1.438-.479,1.558-.659,2.217-4.075,13.422h-1.258a68.5,68.5,0,0,1-21.991-3.6,66.749,66.749,0,0,1-9.527-4.015l9.408-30.8A16.79,16.79,0,0,1,295.751,379a13.26,13.26,0,0,1,2.1.479c.06,0,.12.06.24.06a13.55,13.55,0,0,1,2.576,1.019c.3.12.539.3.779.419.539.3,1.079.659,1.618,1.019a12.539,12.539,0,0,1,1.678,1.438l.9.9A16.927,16.927,0,0,1,309.234,400.51Z" transform="translate(-3.529 -252.401)" fill="#4382ff"/><path d="M309.234,400.51l-3.056,9.947-.419,1.438-.479,1.558-.659,2.217-4.075,13.422h-1.258a68.5,68.5,0,0,1-21.991-3.6,66.749,66.749,0,0,1-9.527-4.015l9.408-30.8A16.79,16.79,0,0,1,295.751,379a13.26,13.26,0,0,1,2.1.479c.06,0,.12.06.24.06a13.55,13.55,0,0,1,2.576,1.019c.3.12.539.3.779.419.539.3,1.079.659,1.618,1.019a12.539,12.539,0,0,1,1.678,1.438l.9.9A16.927,16.927,0,0,1,309.234,400.51Z" transform="translate(-3.529 -252.401)" fill="rgba(184,0,0,0.48)"/><path d="M379.1,359.755a69.5,69.5,0,0,1-34.515,24.628,70.655,70.655,0,0,1-10.666,2.457,73.692,73.692,0,0,1-8.928.719h-1.258a68.5,68.5,0,0,1-21.991-3.6l-.99-12.007-.808-9.8a26.89,26.89,0,0,1,14.142-25.886c1.857-1.019,3.835-1.977,5.752-2.816a6.169,6.169,0,0,1,.6-.24q1.888-.809,3.775-1.438a24.706,24.706,0,0,1,3.835-1.079c.06,0,.12-.06.24-.06.18-.06.36-.06.539-.12s.36-.06.539-.12c10.366-1.8,16.418,3.356,21.392-5.573.12-.18.18-.36.3-.539.659.42,1.378.9,2.1,1.438a90.873,90.873,0,0,1,11.865,9.408c6.471,6.172,12.4,14.2,14.022,24.448C379.1,359.575,379.1,359.695,379.1,359.755Z" transform="translate(-27.974 -210.866)" fill="#f68484"/><path d="M389.257,342.9l-5.992,2.577,4.914,12.823,7.79-9.767Z" transform="translate(-91.521 -225.051)" fill="#f8b3b3"/><path d="M386.838,285.837c1.2-6.052-.36-11.865-1.019-15.4-1.079-6.112-4.314-8.149-4.314-8.149L399.182,250.9l4.554-3.116s.12,12.344,8.15,17.677C419.915,270.737,386.838,285.837,386.838,285.837Z" transform="translate(-90.181 -152.588)" fill="#fabd8c"/><path d="M403.708,276.259c-2.756,3.116-10.486,4.554-10.486,4.554a79.185,79.185,0,0,0-2.157-9.468l15.46-10.726a22.965,22.965,0,0,1,.6,3.056C407.483,265.952,403.708,276.259,403.708,276.259Z" transform="translate(-97.463 -162.364)" fill="#242424"/><path d="M309.892,177.649s-18.756,10.247-25.227,7.37l-13.123-51.473H311.57l12.4,9.707-3.955,17.437c0,.959-1.978,1.678-3.895,4.974C313.367,170.339,311.09,176.99,309.892,177.649Z" transform="translate(-6.404 -65.553)" fill="#fabd8c"/><path d="M320.086,63.68s-7.97-1.977-17.317,3.475-23.19,7.97-29,6.831-12.284-5.872-10.247-9.947,27.564-21.392,40.148-15.22C316.251,54.932,320.086,60.5,320.086,63.68Z" transform="translate(0 0)" fill="#242424"/><path d="M410.2,106.069s-.3,17.857-1.618,21.272c-.659,1.738-3.176,5.872-3.416,3.955-.419-2.936.18-12.284-1.438-12.044-5.393.839-5.393,12.943-5.393,12.943l-4.315-2.636s-.6-7.91-2.936-8.209-2.637-9.647-2.637-9.647-8.629.539-6.771-1.258C383.531,108.585,394.916,98.159,410.2,106.069Z" transform="translate(-90.109 -42.389)" fill="#242424"/><path d="M453.971,180.783s3.475-7.97,6.831-6.112-1.678,15.64-4.614,15.22-1.618-7.071.539-7.73Z" transform="translate(-145.39 -96.67)" fill="#fabd8c"/><path d="M455.088,189.288h-.18c-1.139-.18-1.858-1.139-1.977-2.7-.18-2.217.9-5.153,2.457-5.632a.284.284,0,1,1,.18.539c-1.139.36-2.157,2.936-2.038,4.974.06.719.3,1.978,1.438,2.157s3-2.577,4.255-6.232c1.438-4.195,1.5-7.67.18-8.389a1.777,1.777,0,0,0-1.558-.12c-2.517.839-4.794,6.052-4.854,6.112a.323.323,0,0,1-.6-.24c.12-.24,2.4-5.513,5.213-6.412a2.428,2.428,0,0,1,2.037.18c1.978,1.139,1.318,5.633.12,9.108C458.624,185.992,456.766,189.288,455.088,189.288Z" transform="translate(-144.169 -95.767)" fill="#242424"/><path d="M321.047,223.868a2.276,2.276,0,0,1-2.277-2.277v-.06c1.318-6.232,1.019-10.426-1.139-13.542a.3.3,0,0,1,.06-.42c.12-.12.3-.06.42.06,2.816,4.195,2.157,9.647,1.2,13.962a1.611,1.611,0,0,0,1.618,1.618l4.614-1.2c.18-.06.3.06.36.24s-.06.3-.24.359Z" transform="translate(-41.468 -121.898)" fill="#242424"/><path d="M346.7,193.03a1.591,1.591,0,0,1-1.378-.839,1.492,1.492,0,0,1,.719-1.977l7.011-3.236a3.261,3.261,0,0,1,3.6.9c.479.539,1.2,1.678,1.378,1.858a1.512,1.512,0,1,1-2.517,1.678,12.331,12.331,0,0,0-1.079-1.5c-.06-.06-.18-.12-.24-.06l-6.831,3.176A2.414,2.414,0,0,0,346.7,193.03Z" transform="translate(-62.507 -106.1)" fill="#242424"/><path d="M288.472,216.269a1.469,1.469,0,0,1-1.438-1.2,1.547,1.547,0,0,1,1.139-1.8l4.974-1.079a1.516,1.516,0,0,1,1.8,1.139,1.547,1.547,0,0,1-1.138,1.8l-4.974,1.079A.762.762,0,0,1,288.472,216.269Z" transform="translate(-18.18 -125.445)" fill="#242424"/><path d="M340.3,285.746a8.084,8.084,0,0,1-2.217-.36.284.284,0,1,1,.18-.539c1.8.539,3.176.419,4.075-.3a4.069,4.069,0,0,0,1.378-3,.3.3,0,1,1,.6,0,4.564,4.564,0,0,1-1.618,3.475A3.8,3.8,0,0,1,340.3,285.746Z" transform="translate(-56.943 -178.084)" fill="#242424"/><path d="M303.922,230.424a4,4,0,0,1-2.1,1.618,2.677,2.677,0,0,1-2.1-.9Z" transform="translate(-27.878 -139.36)" fill="#242424"/><path d="M361.372,219.426a1.5,1.5,0,0,0,1.678,1.378,1.537,1.537,0,0,0,1.378-1.678C364.368,218.228,361.312,218.528,361.372,219.426Z" transform="translate(-74.841 -130.34)" fill="#242424"/><path d="M517.941,376.912a16.766,16.766,0,0,0-11.026-9.048A16.255,16.255,0,0,0,495.59,369a16.73,16.73,0,0,0-7.91,22.351l10.067,21.093A69.649,69.649,0,0,0,521,392.551c.9-1.258,1.8-2.517,2.636-3.775Z" transform="translate(-169.81 -243.662)" fill="#4382ff"/><path d="M517.941,376.912a16.766,16.766,0,0,0-11.026-9.048A16.255,16.255,0,0,0,495.59,369a16.73,16.73,0,0,0-7.91,22.351l10.067,21.093A69.649,69.649,0,0,0,521,392.551c.9-1.258,1.8-2.517,2.636-3.775Z" transform="translate(-169.81 -243.662)" fill="rgba(251,33,55,0.66)"/><path d="M432.425,330.07a36.382,36.382,0,0,1-5.153,6.292l-.18.18-.36.36c-.3.3-.659.6-1.019.9A29.869,29.869,0,0,1,422,340.556c-1.438.9-2.337-.419-5.094,2.816-1.8,2.157-12.164,5.753-13,5.153l4.195-15.879C418.289,339.161,432.425,330.07,432.425,330.07Z" transform="translate(-107.244 -215.276)" fill="#242424"/><path d="M445.842,300.037c-.36,1.378-2.457,3.775-5.153,6.292l-.18.18-.359.36c-.3.3-.659.6-1.019.9-4.674,4.255-10.307,8.509-11.325,8.928a1.187,1.187,0,0,1-.9-.24c-3.056-1.678-5.393-13.782-5.393-13.782.6-.24,13.243-5.812,14.98-11.984a.88.88,0,0,1,.659.06C439.491,291.888,445.842,300.037,445.842,300.037Z" transform="translate(-120.662 -185.244)" fill="#bc417b"/><path d="M383.265,353.721l.479,6.591,4.434,6.232Z" transform="translate(-91.521 -233.295)" fill="#242424"/></g></svg>