<svg xmlns="http://www.w3.org/2000/svg" width="98.742" height="111.406" viewBox="0 0 98.742 111.406"><g transform="translate(-142.965 -10)"><path d="M241.707,401.279H142.965v-8.173c0-20.349,15.679-26.353,36.694-36.694l23.184,2c22.684,12.176,38.7,14.344,38.7,34.693v8.173Z" transform="translate(0 -279.874)" fill="#ff6464"/><path d="M339.258,87.216V72.7a14.007,14.007,0,0,0-5.5-11.509c-3.336-2.335-8.006-3.5-13.177-3.5A18.65,18.65,0,0,0,301.9,76.374V87.216a18.865,18.865,0,0,0,7.834,15.174v17.687a11,11,0,0,0,11.008,11.008,11.142,11.142,0,0,0,11.008-11.175V102.231l.005,0A18.957,18.957,0,0,0,339.258,87.216Z" transform="translate(-128.404 -38.533)" fill="#ff995a" fill-rule="evenodd"/><path d="M363.991,289.555v2.168s-1.167,5.838-6.672,7.172c-4,1-12.343-4.837-15.512-7.005v-2a18.688,18.688,0,0,0,10.841,3.5A20.123,20.123,0,0,0,363.991,289.555Z" transform="translate(-160.65 -225.859)" fill="#00376e" opacity="0.34"/><path d="M407.425,244.521a7.22,7.22,0,0,1-3.669-1.334.824.824,0,0,1-.167-1.167c.334-.334.834-.5,1.167-.167a5.366,5.366,0,0,0,3,1c1.334-.334,1.5-2.836,1.5-2.836a.834.834,0,0,1,1.668,0c0,.167,0,3.836-2.669,4.5Z" transform="translate(-210.417 -185.163)" fill="#00376e"/><path d="M418.08,172.859a21.306,21.306,0,0,1-2.836-.334.735.735,0,0,1-.667-1c0-.5.5-.667,1-.667a12.347,12.347,0,0,0,3.336.167,65.794,65.794,0,0,0-1.5-9.174c-.167-.5.167-.834.667-1s.834.167,1,.667c2.168,9.841,1.5,10.341,1.167,10.675A2.83,2.83,0,0,1,418.08,172.859Z" transform="translate(-219.407 -121.84)" fill="#00376e"/><path d="M241.173,37.009l-6,.834c-1.668-.333,4.67,43.533,4.67,43.533l-30.023,3.669c-3-8.673-4.17-57.877,10.841-67.885,2.5-7.172,30.023-11.008,41.7-1.5,4.837,4,5,20.182,5,20.182l-1.936.078,7.438,40.287a107.607,107.607,0,0,1-17.014-1.058V63.7l.005,0a18.956,18.956,0,0,0,7.506-15.011V36l-16.681.673-3.169-8.506Z" transform="translate(-52.505 0)" fill="#a051fb" fill-rule="evenodd"/><path d="M198.045,91.636l-.167-.333c-3-8.673-3.836-48.7,6.171-65.216.167-.167.333-.334.5-.167s.333.334.167.5c-9.507,15.845-8.84,55.209-6.171,64.215L227.9,86.966c-1.5-10.675-6-43.366-4.5-44.7l.167-.167h.167l5.671-.834,2.5-10.174,3.5,9.674,24.185-.834c0-2.669-.5-18.18-4.837-21.683a20.452,20.452,0,0,0-7.839-4c-.167,0-.334-.334-.334-.5s.334-.334.5-.334a25.066,25.066,0,0,1,8.173,4.17c5,4.17,5.171,22.017,5.171,22.684V40.6l-25.519,1-2.669-7.673-2,8.006-6.171.834c-.667,2.335,2.5,28.355,4.837,44.367v.5Z" transform="translate(-42.742 -2.755)" fill="#00376e"/><path d="M514.3,317.734H502.791a.334.334,0,1,1,0-.667H513.3l-2.335-10.508c0-.167.167-.5.334-.5s.5.167.5.333Z" transform="translate(-290.441 -239.192)" fill="#00376e"/></g></svg>