<svg xmlns="http://www.w3.org/2000/svg" width="114.991" height="123.482" viewBox="0 0 114.991 123.482"><g transform="translate(-213.392 -120.588)"><path d="M213.392,404.111H328.383V394.7c0-20.663-12.459-27.087-33.043-37.7-3.076-1.586-6.332-3.265-9.756-5.1H256.19q-2.366,1.16-4.652,2.267c-22.094,10.734-38.146,18.532-38.146,40.531Zm39.155-44.045c0,8.231,8.231,15.05,18.342,15.05s18.342-6.819,18.813-15.05a2.222,2.222,0,0,0-2.352-2.351A2.356,2.356,0,0,0,285,360.065c0,5.879-6.349,10.582-13.874,10.582s-13.874-4.7-13.874-10.582a2.221,2.221,0,0,0-2.351-2.351A2.356,2.356,0,0,0,252.547,360.065Z" transform="translate(0 -160.041)" fill="#bd10e0" fill-rule="evenodd"/><path d="M354.981,138.816v27.749a22.167,22.167,0,0,1-8.7,17.4v20.459a12.934,12.934,0,0,1-25.867,0V183.792a22.248,22.248,0,0,1-8.773-14.827c-3.059.4-6.316-1.971-7.607-5.738-1.432-4.177.1-8.485,3.414-9.622a5.5,5.5,0,0,1,4.028.234v-.209a21.828,21.828,0,0,1,21.869-21.869,72.405,72.405,0,0,0,8.736-.677,52.088,52.088,0,0,1,5.843-.5C352.159,130.821,354.981,132.467,354.981,138.816Z" transform="translate(-62.341 -6.917)" fill="#f5a623" fill-rule="evenodd"/><path d="M384.03,303.818v2.352c-3.528,2.822-8.231,6.114-12.934,6.114s-9.171-3.292-12.7-5.879v-2.352a21.659,21.659,0,0,0,12.7,4.233A23.742,23.742,0,0,0,384.03,303.818Z" transform="translate(-100.324 -126.77)" opacity="0.34"/><path d="M400.3,275.786a4.742,4.742,0,0,1-2.587-.705,5.6,5.6,0,0,1-2.822-3.057.97.97,0,1,1,1.881-.47,3.213,3.213,0,0,0,1.882,1.881,5.979,5.979,0,0,0,4.468-.235,1.048,1.048,0,0,1,1.411.705.986.986,0,0,1-.706,1.411A18.155,18.155,0,0,1,400.3,275.786Z" transform="translate(-125.528 -103.916)" fill="#00376e"/><path d="M411.438,223.846c-1.176,0-1.411-.235-1.646-.94l-.235-.706.94-.47a1.068,1.068,0,0,1,1.176,0,13.971,13.971,0,0,0,2.587-.235c.235,0,.47-.235.705-.47.941-1.646-.47-6.82-1.411-9.877a1.052,1.052,0,0,1,1.881-.941c.235.941,3.057,8.466,1.411,11.523a3.426,3.426,0,0,1-2.117,1.411A13.7,13.7,0,0,1,411.438,223.846Z" transform="translate(-135.719 -61.615)" fill="#00376e"/><path d="M384.181,217.991a2.116,2.116,0,1,0-2.117-2.117A2.116,2.116,0,0,0,384.181,217.991Z" transform="translate(-116.698 -64.461)" fill="#00376e"/><path d="M441.418,217.991a2.116,2.116,0,1,0-2.116-2.117A2.116,2.116,0,0,0,441.418,217.991Z" transform="translate(-156.299 -64.461)" fill="#00376e"/><path d="M329.632,135.662s22.575,3.057,30.57-.235,10.347-11.993,3.292-13.874-41.387-1.646-44.209,6.585c-1.411-2.117-5.644,9.406-2.117,19.518l3.292,1.881s2.352,7.76,3.763,7.76,6.82-13.874,6.82-13.874S327.516,135.191,329.632,135.662Z" transform="translate(-70.852)" fill="#bd10e0"/><path d="M452.268,158.473s3.527,6.584,3.762,13.169,1.646,8.465,1.646,8.465V157.3Z" transform="translate(-165.27 -25.398)" fill="#bd10e0"/></g></svg>