<svg xmlns="http://www.w3.org/2000/svg" width="11.761" height="10.585" viewBox="0 0 11.761 10.585">
  <g id="burger---filled-_24x24_1x_1_" data-name="burger---filled-(24x24)@1x (1)" transform="translate(-2 -3)">
    <path id="Path_944" data-name="Path 944" d="M2,12.588A.588.588,0,0,1,2.588,12H13.173a.588.588,0,1,1,0,1.176H2.588A.588.588,0,0,1,2,12.588Z" transform="translate(0 -3.708)" fill="#4d6bff" fill-rule="evenodd"/>
    <path id="Path_945" data-name="Path 945" d="M3,15a4.263,4.263,0,0,0,.418,1.841c.8,1.694,2.681,1.688,4.875,1.688s4.075.006,4.875-1.688A4.263,4.263,0,0,0,13.585,15Z" transform="translate(-0.412 -4.944)" fill="#4d6bff"/>
    <path id="Path_946" data-name="Path 946" d="M13.585,7.7c0-2.6-2.37-4.7-5.292-4.7S3,5.105,3,7.7Z" transform="translate(-0.412)" fill="#4d6bff"/>
    <path id="Path_947" data-name="Path 947" d="M15.99,8H16" transform="translate(-5.763 -2.06)" fill="none" stroke="#afd2ff" stroke-linecap="round" stroke-linejoin="round" stroke-miterlimit="10" stroke-width="1"/>
    <path id="Path_948" data-name="Path 948" d="M11.99,6H12" transform="translate(-4.116 -1.236)" fill="none" stroke="#afd2ff" stroke-linecap="round" stroke-linejoin="round" stroke-miterlimit="10" stroke-width="1"/>
    <path id="Path_949" data-name="Path 949" d="M8,8h.006" transform="translate(-2.472 -2.06)" fill="none" stroke="#afd2ff" stroke-linecap="round" stroke-linejoin="round" stroke-miterlimit="10" stroke-width="1"/>
  </g>
</svg>
