<svg xmlns="http://www.w3.org/2000/svg" width="857.982" height="719.406" viewBox="0 0 857.982 719.406">
  <g id="chatting_isometric" transform="translate(-46.64 -30.486)">
    <g id="Layer_2" data-name="Layer 2" transform="translate(46.64 30.486)">
      <path id="Path_245" data-name="Path 245" d="M54.5,300.837,385.747,108.2a15.659,15.659,0,0,1,15.659,0L896.76,391.751a15.659,15.659,0,0,1,0,27.159L580.051,601.8a51.136,51.136,0,0,1-51.136,0L54.556,328.025a15.659,15.659,0,0,1-.057-27.188Z" transform="translate(-46.64 110.755)" fill="#ececec"/>
      <path id="Path_249" data-name="Path 249" d="M224.54,241.716a55.925,55.925,0,0,0,24.722-11.472c13.221-10.21-24.722-8.747-24.722-8.747Z" transform="translate(285.67 326.179)" fill="#f2e2d1"/>
      <path id="Path_250" data-name="Path 250" d="M127.45,167.859V201.9s1.749,4.9,9.579,4.3,9.005-5.277,9.005-5.277v-40.7Z" transform="translate(104.31 211.87)" fill="#1a110a"/>
      <path id="Path_251" data-name="Path 251" d="M214.16,220.931v34.043s1.749,4.9,9.579,4.3S232.744,254,232.744,254V213.36Z" transform="translate(266.28 311.115)" fill="#1a110a"/>
      <path id="Path_252" data-name="Path 252" d="M459.2,292.1c16.95-11.214,34.415-21.624,51.279-32.9L235.934,102.217a35.419,35.419,0,0,0-35.534.2l-75.886,44.511c-12.476,7.342-10.583,18.5-10.583,18.5s-3.355,104.25,0,110.99,13.795,11.644,13.795,11.644L433.938,473.13C459.147,454.087,438.7,305.67,459.2,292.1Z" transform="translate(76.272 94.765)" fill="#e8bc95"/>
      <path id="Path_253" data-name="Path 253" d="M404.3,305.9S149.047,159.429,149.42,157.88s0-54.95,0-54.95L450.785,276.355Z" transform="translate(145.349 104.836)" fill="#f2e2d1"/>
      <path id="Path_254" data-name="Path 254" d="M127.025,165.089l77.119-43.019,291.7,167.374-87.587,47.895a13.766,13.766,0,0,1-13.336,0L127,187.029a12.533,12.533,0,0,1,.029-21.94Z" transform="translate(91.399 140.589)" fill="#f7ecdf"/>
      <path id="Path_255" data-name="Path 255" d="M330.458,162.257l-3.5-.287a76.971,76.971,0,0,1-17.208,9.808,539.741,539.741,0,0,1-82.282,49.358V343.741a39.978,39.978,0,0,0,11.042.631l78.525-46.547a33.928,33.928,0,0,0,16.634-29.2V165.383C332.523,164.379,331.491,163.347,330.458,162.257Z" transform="translate(291.143 215.12)" fill="#f2e2d1"/>
      <path id="Path_256" data-name="Path 256" d="M115.992,151.882s-7.4,2.466,0,11.644,34.415-10.21,34.415-10.21l67.512-38.775L519.37,287.824,440.7,332.564s-6.08,4.761-1.491,10.124,11.042,2.868,23.861-3.442,82.712-45.887,82.712-45.887,6.94-4.7-3.642-13.623S232.4,102.324,232.4,102.324a22.485,22.485,0,0,0-24.779-3.183C193.857,106.282,115.992,151.882,115.992,151.882Z" transform="translate(76.764 93.368)" fill="#f7ecdf"/>
      <path id="Path_257" data-name="Path 257" d="M159.106,178.47s-.488,15-3.47,17.466-17.208,10.3-23.861,10.669-6.109,7.285-2.122,11.472,34.071,2.323,36.222.172,10.439-15.688,9.206-15.917-1.807,18.068-.631,18.7a15.918,15.918,0,0,0,5.048.43l4.359-47.981" transform="translate(102.911 236.62)" fill="#333"/>
      <path id="Path_258" data-name="Path 258" d="M166.712,182.645s2.008,14.856-.516,17.81-15.286,12.992-21.768,14.34-4.818,8.2-.2,11.472,33.985-3.355,35.735-5.736,7.686-17.208,6.424-17.208,1.2,18.126,2.466,18.527a15.915,15.915,0,0,0,5.048-.4l-3.671-48.038" transform="translate(128.028 236.49)" fill="#333"/>
      <path id="Path_259" data-name="Path 259" d="M211.759,109.037s-39.148,23.2-81.421-.287l-2.008,30.859s46.461,18.5,79.27,10.927" transform="translate(105.954 115.708)" fill="#68e1fd"/>
      <path id="Path_260" data-name="Path 260" d="M211.759,109.037s-39.148,23.2-81.421-.287l-2.008,30.859s46.461,18.5,79.27,10.927" transform="translate(105.954 115.708)" fill="#f27121" opacity="0.72"/>
      <path id="Path_261" data-name="Path 261" d="M144.337,117.914s-5.076-2.352-5.535-2.667c-2.122-1.405-4.159-3.011-6.195-4.5a16.061,16.061,0,0,0-6.195-3.413,3.241,3.241,0,0,0-3.585,4.073c.43,2.352,4.359,4.9,5.908,6.6a25.811,25.811,0,0,1,1.348-2.868A14.656,14.656,0,0,1,128.735,118a2.868,2.868,0,0,1-.315.975c-1.864,3.47-4.474,6.539-6.453,9.952a12.388,12.388,0,0,1-.86,1.577l-.516,1.118a68.837,68.837,0,0,0,7.227.889,59.139,59.139,0,0,0,15.544,1.348C143.849,128.7,143.935,123.478,144.337,117.914Z" transform="translate(91.496 112.996)" fill="#ffe8e6"/>
      <path id="Path_262" data-name="Path 262" d="M128.988,122.385c-4.876-2.036-4.675-7.026-3.9-11.472.143-.832-1.147-1.2-1.291-.344-.918,5.277-.774,10.755,4.847,13.107C129.418,123.991,129.791,122.7,128.988,122.385Z" transform="translate(96.692 118.19)" fill="#42210b"/>
      <path id="Path_263" data-name="Path 263" d="M186.321,187.116c3.1.258,31.548,3.614,53.086-4.216a76.86,76.86,0,0,0,10.669-25.812,150.249,150.249,0,0,0,4.015-25.009l-21.768,1a367.479,367.479,0,0,0-63.783,7.686c-12.218,2.868-26.1,5.592-34.9,15.286-10.009,11.042-7.055,26.357-4.187,39.606A396.927,396.927,0,0,0,149.238,258.3l52.656-7.858S180.642,186.657,186.321,187.116Z" transform="translate(102.913 159.287)" fill="#e54b5d"/>
      <path id="Path_264" data-name="Path 264" d="M194,189.884c18.355,1.491,50.619,8.346,58.764-14.34.975-2.7,4.159-40.524,0-40.323l-12.762.6a367.474,367.474,0,0,0-63.755,7.657c-12.218,2.868-26.1,5.593-34.9,15.286-10.009,11.042-7.055,26.357-4.187,39.606a396.929,396.929,0,0,0,19.789,62.636l52.656-7.858S188.352,189.425,194,189.884Z" transform="translate(117.315 165.152)" fill="#e54b5d"/>
      <path id="Path_265" data-name="Path 265" d="M144.245,167.97,160.306,148.1a2.868,2.868,0,0,0,.172-3.384L135.641,106.08a2.868,2.868,0,0,0-4.617-.315l-18.756,22.083a2.868,2.868,0,0,0,0,3.614l27.676,36.452a2.868,2.868,0,0,0,4.3.057Z" transform="translate(74.752 108.225)" fill="#333"/>
      <path id="Path_266" data-name="Path 266" d="M168.344,150.533h-.2a2.868,2.868,0,0,0-1.405-3.843,3.1,3.1,0,0,0-2.352-4.13,70.291,70.291,0,0,1-10.554-2.868,48.472,48.472,0,0,1-6.4-3.241c-2.208-1.147-4.359-2.352-6.453-3.7a46.147,46.147,0,0,1-7.8-6.6c-1.09-1.119-2.122-2.294-3.241-3.384a20.276,20.276,0,0,1-3.183-3.3c-1.606-2.524-3.728-3.183-5.248-.344s1.807,5.392,3.5,8.231c-2.868-.516-5.478-.86-8.231-1.119l-.229.172q-3.9,3.413-1.262,5.965a1.463,1.463,0,0,1-.229,1.749c-1.291,1.577-2.868,5.449.344,5.994a1.463,1.463,0,0,1,1,1.778,8.6,8.6,0,0,0,3.126,7.916c4.187,1.893,8.6,1.577,13.479,2.323a93.387,93.387,0,0,1,14.34,3.958q7.285,1.864,14.34,4.187a3.212,3.212,0,0,0,3.929-4.216l1,.258C170.122,157.13,171.556,151.594,168.344,150.533Z" transform="translate(78.272 131.628)" fill="#ffe8e6"/>
      <path id="Path_267" data-name="Path 267" d="M114.168,123.739l-.258.373,10.038,1.233a.665.665,0,1,0,.172-1.319L114.6,122.85A1.922,1.922,0,0,1,114.168,123.739Z" transform="translate(79.018 142.046)" fill="#42210b"/>
      <path id="Path_268" data-name="Path 268" d="M114.77,126.747c2.868.287,5.965.6,8.948.832.86,0,1.032-1.262.172-1.319-3.183-.258-6.367-.574-9.55-.889a1.721,1.721,0,0,1,.43,1.377Z" transform="translate(79.821 146.753)" fill="#42210b"/>
      <path id="Path_269" data-name="Path 269" d="M115.583,128.987l8.4.373c.86,0,1.032-1.291.172-1.319l-9.378-.43a8.436,8.436,0,0,0,.8,1.377Z" transform="translate(80.643 150.937)" fill="#42210b"/>
      <path id="Path_270" data-name="Path 270" d="M221.22,118.277a118.7,118.7,0,0,1-90.828,43.736l-7.772,25.3s55.294,17.953,91.488-12.217l6.08,15.4s30.859,14.77,55.036,3.356c0,0-.86-67.6-49.386-90.2" transform="translate(95.287 106.181)" fill="#68e1fd"/>
      <path id="Path_271" data-name="Path 271" d="M221.22,118.277s-34.272,43.736-90.828,43.736l-7.772,25.3s55.294,17.953,91.488-12.217l6.08,15.4s30.859,14.77,55.036,3.356c0,0-.86-67.6-49.386-90.2" transform="translate(95.287 106.181)" fill="#f27121"/>
      <path id="Path_272" data-name="Path 272" d="M148.125,103.35s-1.635,30.429,13.25,34.1c17.007,4.159,28.421-19.3,20.821-32.494S152.111,93.112,148.125,103.35Z" transform="translate(142.83 90.707)" fill="#ffe8e6"/>
      <path id="Path_273" data-name="Path 273" d="M160.78,94.336a22.169,22.169,0,0,0-13.623,12.017c-.172.43-.315.832-.459,1.262a18.561,18.561,0,0,0-.172,3.671,7.658,7.658,0,0,0,4.7,7.027,17.581,17.581,0,0,1,5.048-13.881s-1.721,3.355,14.627,10.669c0,0,11.242,14.856,8.116,22.542.287-.746,2.352-1.807,2.868-2.323a44.8,44.8,0,0,0,6.682-6.94C202.423,110.311,180.225,88.17,160.78,94.336Z" transform="translate(139.896 86.815)" fill="#e54b5d"/>
      <path id="Path_274" data-name="Path 274" d="M155.935,105.771s.488,13.91,17.208,16.433c10.038,1.549-11.214,20.076-1.262,25.812s28.68-7.026,33.24-16.577-10.382-37.283-34.243-38.66c0,0-17.208-3.3-24.177,16" transform="translate(140.268 85.475)" fill="#e54b5d"/>
      <path id="Path_275" data-name="Path 275" d="M152.01,103a.667.667,0,1,0,.559.76A.667.667,0,0,0,152.01,103Z" transform="translate(148.753 104.962)" fill="#42210b"/>
      <path id="Path_276" data-name="Path 276" d="M149.409,102.547h-.373c-.832.258-.315,1.52.488,1.262h.373C150.728,103.523,150.24,102.261,149.409,102.547Z" transform="translate(143.84 104.043)" fill="#42210b"/>
      <path id="Path_277" data-name="Path 277" d="M164.777,104.207c-2.868-4.9-9.35.287-9.149,4.417a1.176,1.176,0,0,0,1.463,1.118,1.49,1.49,0,0,0,.143.459,3.96,3.96,0,0,1-.975,0c-1.692-.344-2.094,2.323-.4,2.667C160.016,113.614,167.587,109.2,164.777,104.207Zm-5.736,2.323a1.348,1.348,0,0,0,.488.4,1.262,1.262,0,0,0,1.291-.143,1.519,1.519,0,0,1-.287.488,2.61,2.61,0,0,1-2.036.975h-.2a2.868,2.868,0,0,1,.8-1.721Z" transform="translate(155.345 103.502)" fill="#ffe8e6"/>
      <path id="Path_278" data-name="Path 278" d="M152.56,111.877c-2.581,0-1.176-3.011-.8-4.331s.889-2.868,1.348-4.331c.287-.832-1.032-1.176-1.291-.344-.488,1.434-.946,2.868-1.348,4.331a16.147,16.147,0,0,0-.946,3.7c0,1.778,1.549,2.294,3.04,2.352C153.42,113.282,153.42,111.934,152.56,111.877Z" transform="translate(145.536 103.834)" fill="#42210b"/>
      <path id="Path_279" data-name="Path 279" d="M157.711,105.884a5.478,5.478,0,0,1-2.151,2.868,7.514,7.514,0,0,1-4.417.459c-.832,0-1.2,1.176-.344,1.291a9.464,9.464,0,0,0,4.99-.373,6.138,6.138,0,0,0,3.1-3.614C159.231,105.77,158.026,105.081,157.711,105.884Z" transform="translate(147.01 109.683)" fill="#42210b"/>
      <path id="Path_280" data-name="Path 280" d="M275.135,223.734c-6.8,5.736-15.487,19.5-20.649,26.328-1.119,1.491-2.352,3.04-3.528,4.7l-13.279-14.6,20.076-31.548Z" transform="translate(310.215 302.26)" fill="#68e1fd"/>
      <path id="Path_281" data-name="Path 281" d="M249.576,215.43A18.929,18.929,0,0,0,266.239,226.9c-1.434,5.048-5.076,14.512-3.3,18.326,2.61,5.736,23.833,30.544,10.239,33.842-10.1,2.466-39.463-32.322-38.058-38.287C236.1,236.71,245.618,221.711,249.576,215.43Z" transform="translate(305.345 314.981)" fill="#68e1fd"/>
      <path id="Path_282" data-name="Path 282" d="M269.116,237.644a127.449,127.449,0,0,0,4.9,21.883c4.675,11.644,26.041,37.943,6.252,44.31-20.993,6.768-34.043-31-35.333-37.771a112.313,112.313,0,0,1-.315-29C251.822,241.487,261.143,240.684,269.116,237.644Z" transform="translate(321.712 355.404)" fill="#68e1fd"/>
      <g id="Group_6" data-name="Group 6" transform="translate(540.418 510.88)" opacity="0.9">
        <path id="Path_283" data-name="Path 283" d="M275.135,223.734c-6.8,5.736-15.487,19.5-20.649,26.328-1.119,1.491-2.352,3.04-3.528,4.7l-13.279-14.6,20.076-31.548Z" transform="translate(-230.203 -208.62)" fill="#333"/>
        <path id="Path_284" data-name="Path 284" d="M249.576,215.43A18.929,18.929,0,0,0,266.239,226.9c-1.434,5.048-5.076,14.512-3.3,18.326,2.61,5.736,23.833,30.544,10.239,33.842-10.1,2.466-39.463-32.322-38.058-38.287C236.1,236.71,245.618,221.711,249.576,215.43Z" transform="translate(-235.073 -195.899)" fill="#333"/>
      </g>
      <path id="Path_285" data-name="Path 285" d="M274.83,150.12s58.392,79.557,52.34,106.487-55.581,78.3-55.581,78.3l-5.019-52.656s14.2-24.722,12.963-28.393-15.258-16.663-15.258-16.663L244.2,159.355" transform="translate(322.394 192.985)" fill="#68e1fd"/>
      <path id="Path_286" data-name="Path 286" d="M265.4,393.675c-7.715-35.018-12.361-77.435-12.934-79.987-.8-3.384-20.391-113.915-20.391-113.915,3.7-17.208-4.445-12.791-2.208-30.142,4.015-.344,19.9-6.6,23.8-7.4,8.145-1.692,15.63-12.934,23.2-16.491,7.743,43.765,20.076,172.25,25.812,240.908C297.121,398.866,283.671,401.017,265.4,393.675Z" transform="translate(294.882 184.803)" fill="#68e1fd"/>
      <path id="Path_287" data-name="Path 287" d="M269.824,150.12s58.392,79.557,52.34,106.487-55.581,78.3-55.581,78.3l-5.019-52.656s14.2-24.722,12.963-28.393-17.953-20.076-17.953-20.076L246.88,154.91" transform="translate(327.4 192.985)" fill="#e94057"/>
      <path id="Path_288" data-name="Path 288" d="M269.712,143.734c5.736-3.04,8.6-8.891,13.91-12.476l.315-.258.43-.143a3.528,3.528,0,0,1,3.929,5.134,14.512,14.512,0,0,1-6.31,6.08,3.212,3.212,0,0,1-2.065,1.577,69.514,69.514,0,0,0-9.35,3.212,3.614,3.614,0,0,1-4.761-1.262,3.786,3.786,0,0,1-.344-2.667,3.3,3.3,0,0,0,4.245.8Z" transform="translate(361.927 156.811)" fill="#ffc4b0"/>
      <path id="Path_289" data-name="Path 289" d="M267.488,150.681h0c2.036-4.761,3.786-9.608,5.736-14.34,1.2-1.233,2.352-2.524,3.556-3.786a3.3,3.3,0,0,1,.8,0,3.241,3.241,0,0,1,3.04,4.245l-.43,1.118a3.614,3.614,0,0,1,0,2.868q-2.18,4.646-4.388,9.292a17.524,17.524,0,0,1-2.094,4.331l-.889,1.864c-1.95,4.044-7.973.516-6.023-3.528Z" transform="translate(363.893 160.13)" fill="#ffc4b0"/>
      <path id="Path_290" data-name="Path 290" d="M255.443,130.481c2.008,16,0,33.01,6.654,48.124a53.112,53.112,0,0,0,8.6,13.25l.6.66c-14.34-.315-19.7-2.409-19.7-2.409l2.266-70.466c.43,1.262,1.348,4.245,2.524,8.288a2.7,2.7,0,0,0-.946,2.552Z" transform="translate(336.217 136.05)" fill="#42210b"/>
      <path id="Path_291" data-name="Path 291" d="M267.849,231.78a106.114,106.114,0,0,0-.8,27.676c.287,1.979.545,4.159.975,6.309l-23.431-3.958V231.78Z" transform="translate(323.122 345.522)" fill="#ffc4b0"/>
      <path id="Path_292" data-name="Path 292" d="M269.116,237.644a127.449,127.449,0,0,0,4.9,21.883c4.675,11.644,26.041,37.943,6.252,44.31-20.993,6.768-34.043-31-35.333-37.771a112.313,112.313,0,0,1-.315-29C251.822,241.487,261.143,240.684,269.116,237.644Z" transform="translate(321.712 355.404)" fill="#333" opacity="0.9"/>
      <path id="Path_293" data-name="Path 293" d="M265.4,393.675c-7.715-35.018-12.361-77.435-12.934-79.987-.8-3.384-20.391-113.915-20.391-113.915,3.7-17.208-4.445-12.791-2.208-30.142,4.015-.344,19.9-6.6,23.8-7.4,8.145-1.692,15.63-12.934,23.2-16.491,7.743,43.765,20.076,172.25,25.812,240.908C297.121,398.866,283.671,401.017,265.4,393.675Z" transform="translate(294.882 184.803)" fill="#e94057"/>
      <path id="Path_294" data-name="Path 294" d="M230.555,199.343a117.8,117.8,0,0,1,2.18-15.975,119.76,119.76,0,0,1,1.405-18.355,177.4,177.4,0,0,1,19.875.315c0,3.3,0,6.6.2,9.894q1.147,3.614,2.036,7.313a3.24,3.24,0,0,1,.946,1.262,60.226,60.226,0,0,1,5.736,19.732,3.556,3.556,0,0,1-6.568,1.749q-1.52-3.327-2.868-6.74v9.235a3.614,3.614,0,0,1-3.556,3.5,4.273,4.273,0,0,1-4.216-2.438,4.159,4.159,0,0,1-4.847,1.434,5.965,5.965,0,0,1-3.011-3.47,4.56,4.56,0,0,1-4.159,0C230.67,205.394,230.383,202.239,230.555,199.343Z" transform="translate(296.833 220.538)" fill="#ffc4b0"/>
      <path id="Path_295" data-name="Path 295" d="M345.35,164.023c-2.266,1.09-4.474,2.18-6.625,3.04-8.317,3.269-20.076,4.732-25.668-4.015-4.273-6.854-5.736-15.171-6.94-22.944-1.147-6.969-1.233-15.745-6.8-20.879a22.943,22.943,0,0,0-10.812-5.048c-9.837-2.18-14.971,0-23.89,4.273-11.472,5.449-25.553,12.189-31.146,24.292-7.055,15.286-8.948,70.9-.488,124.039,10.784.459,21.338.2,31.289-3.986-1.319-12.1-3.04-24.779-3.04-24.779,1.291-1.463,28.249,2.036,45.027-19.129l-1.061-16c3.929.86,2.38,1.262,5.965,1.405a83.573,83.573,0,0,0,30.6-4.761C346.411,188.544,346.21,176.011,345.35,164.023Z" transform="translate(290.964 124.247)" fill="#68e1fd"/>
      <path id="Path_296" data-name="Path 296" d="M345.35,164.023c-2.266,1.09-4.474,2.18-6.625,3.04-8.317,3.269-20.076,4.732-25.668-4.015-4.273-6.854-5.736-15.171-6.94-22.944-1.147-6.969-1.233-15.745-6.8-20.879a22.943,22.943,0,0,0-10.812-5.048c-9.837-2.18-14.971,0-23.89,4.273-11.472,5.449-25.553,12.189-31.146,24.292-7.055,15.286-8.948,70.9-.488,124.039,10.784.459,21.338.2,31.289-3.986-1.319-12.1-3.04-24.779-3.04-24.779,1.291-1.463,28.249,2.036,45.027-19.129l-1.061-16c3.929.86,2.38,1.262,5.965,1.405a83.573,83.573,0,0,0,30.6-4.761C346.411,188.544,346.21,176.011,345.35,164.023Z" transform="translate(290.964 124.247)" fill="#8a2387"/>
      <path id="Path_297" data-name="Path 297" d="M264.32,151.413a15.458,15.458,0,0,1-7.313,2.122c-8.231.43-13.107-8.26-16.261-14.541a55.781,55.781,0,0,1-6.768-23.833,12.648,12.648,0,0,1,.488-4.015c3.126-9.407,36.882-16.433,38.8,2.151C274.443,124.253,275.332,144.7,264.32,151.413Z" transform="translate(303.278 102.441)" fill="#ffc4b0"/>
      <path id="Path_298" data-name="Path 298" d="M237.077,109.879a8.231,8.231,0,0,1,6.309,2.409,10.583,10.583,0,0,1,3.3,6.309,2.237,2.237,0,0,1-1.176,2.466,2.868,2.868,0,0,1-4.13.889,23.4,23.4,0,0,1-5.879-5.478C234.008,114.324,233.779,110.51,237.077,109.879Z" transform="translate(304.192 117.791)" fill="#ffc4b0"/>
      <path id="Path_299" data-name="Path 299" d="M231.544,114a14.34,14.34,0,0,1,6.367-9.923,15.63,15.63,0,0,1,12.963-1.922,14.111,14.111,0,0,1,7.227-6.023,14.34,14.34,0,0,1,15.573,4.7,21.338,21.338,0,0,1,13.709,3.183,16.777,16.777,0,0,1,7.256,13.078,10.3,10.3,0,0,1,0,2.266,12.674,12.674,0,0,1-.143,4.015c-1.75,9.206-9.751,11.472-14.6,11.931.774-4.962,0-14.6-5.736-12.074a2.236,2.236,0,0,0-.946.229c-3.614,1.721-.6,6.74-5.736,7.4s-8.231-3.3-13.021,1.405,5.736,9.952-5.42,18.584a18.073,18.073,0,0,1-.229,1.864c0-.746-4.417-4.79-5.076-5.564-1.807-2.094-3.528-4.273-5.162-6.51a42.674,42.674,0,0,1-6.969-12.217A30.572,30.572,0,0,1,231.544,114Z" transform="translate(297.193 90.867)" fill="#333"/>
      <path id="Path_300" data-name="Path 300" d="M235.78,114.905c-.488-3.269,2.036-5.134,4.646-3.757a13.422,13.422,0,0,1,6.51,11.013,3.1,3.1,0,0,1-.918,2.409,2.868,2.868,0,0,1-.459.688,3.04,3.04,0,0,1-4.5-.229,17.523,17.523,0,0,1-5.277-10.124Z" transform="translate(306.551 119.332)" fill="#ffc4b0"/>
      <path id="Path_301" data-name="Path 301" d="M245.8,113.093c1.061-.2,11.07-3.843,11.07-3.843s.373,9.952-4.933,12.218S245.8,113.093,245.8,113.093Z" transform="translate(325.382 116.642)" fill="none" stroke="#333" stroke-miterlimit="10" stroke-width="0.75"/>
      <path id="Path_302" data-name="Path 302" d="M251.621,111.17l-11.7,3.986s0,9.894,7.657,8.231S251.621,111.17,251.621,111.17Z" transform="translate(314.399 120.228)" fill="none" stroke="#333" stroke-miterlimit="10" stroke-width="0.75"/>
      <path id="Path_303" data-name="Path 303" d="M238.81,110.823l5.535,4.876c.688.6-.344,1.606-1.032,1l-5.535-4.876C237.118,111.2,238.151,110.221,238.81,110.823Z" transform="translate(310.002 119.227)" fill="#333"/>
      <path id="Path_304" data-name="Path 304" d="M245.895,120.7c.918,0,2.237-.373,2.208-1.463a6.85,6.85,0,0,0-.8-1.95c-.545-1.233-1.147-2.438-1.778-3.614a.719.719,0,1,1,1.262-.688c.631,1.176,1.262,2.38,1.778,3.614a8.317,8.317,0,0,1,1.09,3.04c0,1.721-2.438,2.38-3.786,2.5C244.92,122.334,244.977,120.756,245.895,120.7Z" transform="translate(324.226 122.917)" fill="#333"/>
      <path id="Path_305" data-name="Path 305" d="M244.148,112.128a51.615,51.615,0,0,0,6.166-1.692c.889-.287,1.2,1.09.344,1.405a51.628,51.628,0,0,1-6.166,1.692C243.6,113.59,243.259,112.128,244.148,112.128Z" transform="translate(321.327 118.783)" fill="#333"/>
      <path id="Path_306" data-name="Path 306" d="M307.185,132.154l-22.858,32.322-16.778,1.233,22.772-34.329Z" transform="translate(366.01 157.98)" fill="#2d2d2d"/>
      <path id="Path_307" data-name="Path 307" d="M305.625,129.59l-15.831,1.663L264.9,166.013l7.6,3.04,20.277-28.106,19.359-5.449Z" transform="translate(361.06 154.636)" fill="#606060"/>
      <path id="Path_308" data-name="Path 308" d="M275.323,147.636H276.5a3.528,3.528,0,0,1,2.7-5.736h2.868a3.585,3.585,0,0,1-.574-4.273c1.491-2.323,7.572-2.5,8.891,0a3.528,3.528,0,0,1-1.262,4.761l-.832.344a3.556,3.556,0,0,1-2.323,6.109h-.488a3.442,3.442,0,0,1-2.868,5.449,48.751,48.751,0,0,1-7.2.2,3.428,3.428,0,1,1-.086-6.854Z" transform="translate(374.155 166.273)" fill="#ffc4b0"/>
      <path id="Path_309" data-name="Path 309" d="M251.358,168.575c-.172-1.491-2.524-1.52-2.352,0q9.608,86.957,15.171,174.314c0,1.52,2.466,1.52,2.352,0Q260.994,255.589,251.358,168.575Z" transform="translate(331.354 225.35)" fill="#333"/>
      <path id="Path_310" data-name="Path 310" d="M244.037,199.174c-1.176-3.642-7.457-65.074-7.457-65.074l13.365,64.414Z" transform="translate(308.16 163.06)" fill="#333"/>
      <path id="Path_311" data-name="Path 311" d="M270.15,167.9c-2.667-4.015-14.885-22.686-18.24-35.161l7.6,34.215A37.455,37.455,0,0,0,270.15,167.9Z" transform="translate(336.796 160.52)" fill="#333"/>
      <path id="Path_312" data-name="Path 312" d="M273.52,102.93l22.026,47.895V109.67" transform="translate(377.162 104.836)" fill="#f27121"/>
      <path id="Path_313" data-name="Path 313" d="M277.3,77.928l87.014,50.247a4.5,4.5,0,0,1,2.266,3.9v70.982a4.5,4.5,0,0,1-6.768,3.872L272.8,155.907a4.5,4.5,0,0,1-2.237-3.872V81.828a4.5,4.5,0,0,1,6.74-3.9Z" transform="translate(371.633 57.021)" fill="#f27121"/>
      <path id="Path_314" data-name="Path 314" d="M149.547,76.97l-22,47.895V83.71" transform="translate(104.496 56.344)" fill="#cc2c42"/>
      <path id="Path_315" data-name="Path 315" d="M193.99,51.968l-87.014,50.218a4.5,4.5,0,0,0-2.266,3.9V177.1a4.5,4.5,0,0,0,6.768,3.872l87.014-51.021a4.5,4.5,0,0,0,2.237-3.872V55.868a4.5,4.5,0,0,0-6.74-3.9Z" transform="translate(61.832 8.529)" fill="#cc2c42"/>
      <path id="Path_322" data-name="Path 322" d="M296.03,91.986l-2.18,120.2a7.571,7.571,0,0,1-10.927,6.625L180.766,167.93a10.009,10.009,0,0,1-5.535-9.149L177.44,38.528a8.174,8.174,0,0,1,11.9-7.141L290.609,83.01a10.009,10.009,0,0,1,5.42,8.977Z" transform="translate(193.559 -30.486)" fill="#fca6ff"/>
      <path id="Path_323" data-name="Path 323" d="M193.029,58.345c19.445,5.478,12.734,27.074,26.7,38.545,17.007,13.967,23.431-25.812,44.31-23.173,25.037,2.868,29.884,86.612,29.884,86.612-3.958,9.493-10.927,6.625-10.927,6.625L175.19,113.266l.832-46.26C180.553,61.729,186.117,57.541,193.029,58.345Z" transform="translate(193.486 21.367)" fill="#8a2387"/>
      <path id="Path_324" data-name="Path 324" d="M208.312,135.621c-23.833,1.233-61.69,1.2-72.273,28.049-5.334,13.479-1.319,30.544,1.692,44.167A439.134,439.134,0,0,0,153.1,258.054c.6,1.721,3.384.975,2.868-.774-4.761-13.565-9.522-27.16-13.164-41.069s-7.485-29.311-5.736-43.679c3.786-32.408,46.862-32.752,71.412-34.043C210.148,138.4,210.148,135.535,208.312,135.621Z" transform="translate(115.48 165.898)" fill="#333"/>
      <path id="Path_325" data-name="Path 325" d="M112.866,106.769l65.963-37.455a3.241,3.241,0,0,0-3.269-5.564L109.6,101.205a3.241,3.241,0,0,0,3.269,5.564Z" transform="translate(68.446 31.077)" fill="#f2f2f2"/>
      <path id="Path_326" data-name="Path 326" d="M113.766,113.619l64.586-36.8a3.241,3.241,0,0,0-3.269-5.564L110.5,107.969a3.241,3.241,0,0,0,3.269,5.564Z" transform="translate(70.127 45.105)" fill="#f2f2f2"/>
      <path id="Path_327" data-name="Path 327" d="M344.969,127.506,279.006,90.08a3.241,3.241,0,0,0-3.27,5.564L341.7,133.1a3.241,3.241,0,0,0,3.27-5.564Z" transform="translate(378.789 80.26)" fill="#f2f2f2"/>
      <path id="Path_328" data-name="Path 328" d="M343.172,133.439,278.586,96.73a3.241,3.241,0,0,0-3.269,5.564l64.7,36.739a3.241,3.241,0,0,0,3.269-5.564Z" transform="translate(378.004 92.682)" fill="#f2f2f2"/>
    </g>
  </g>
</svg>
