<svg xmlns="http://www.w3.org/2000/svg" width="21.302" height="26.628" viewBox="0 0 21.302 26.628">
  <g id="Group_47" data-name="Group 47" transform="translate(-1126.349 -703.686)">
    <g id="password---filled_24x24_1x" data-name="password---filled(24x24)@1x" transform="translate(1122.349 701.686)">
      <path id="Path_170" data-name="Path 170" d="M7.8,9.988H20.843a6.658,6.658,0,0,0-13.046,0ZM5,11.32a9.32,9.32,0,0,1,18.639,0,1.331,1.331,0,0,1-1.331,1.331H6.331A1.331,1.331,0,0,1,5,11.32Z" transform="translate(0.331)" fill="#8a2980" fill-rule="evenodd"/>
      <path id="Path_171" data-name="Path 171" d="M23.971,26.639H5.331A1.335,1.335,0,0,1,4,25.308V9.331A1.335,1.335,0,0,1,5.331,8H23.971A1.335,1.335,0,0,1,25.3,9.331V25.308A1.335,1.335,0,0,1,23.971,26.639Z" transform="translate(0 1.988)" fill="#8a2980" fill-rule="evenodd"/>
    </g>
    <g id="check-symbols" transform="translate(1130.428 713.428)">
      <rect id="Rectangle_4218" data-name="Rectangle 4218" width="16" height="16" transform="translate(-0.428 -0.428)" fill="none"/>
      <path id="Path_178" data-name="Path 178" d="M14.172,5.5a.628.628,0,0,0-.89,0L6.544,12.23,4.077,9.762a.629.629,0,0,0-.89.89L6.1,13.567a.62.62,0,0,0,.448.183A.646.646,0,0,0,7,13.567l7.174-7.174A.636.636,0,0,0,14.172,5.5Z" transform="translate(-1.108 -1.96)" fill="#fff" fill-rule="evenodd"/>
    </g>
  </g>
</svg>
