<svg xmlns="http://www.w3.org/2000/svg" width="64" height="64" viewBox="0 0 64 64"><g transform="translate(-1474 -450)"><circle cx="32" cy="32" r="32" transform="translate(1474 450)" fill="#b48afe"/><g transform="translate(1488.379 464.378)"><path d="M34.1,18.267v16.05A1.789,1.789,0,0,1,32.317,36.1H3.783A1.789,1.789,0,0,1,2,34.317V5.783A1.789,1.789,0,0,1,3.783,4h16.05" transform="translate(-2 -0.43)" fill="none"/><path d="M34.1,18.267v16.05A1.789,1.789,0,0,1,32.317,36.1H3.783A1.789,1.789,0,0,1,2,34.317V5.783A1.789,1.789,0,0,1,3.783,4h16.05" transform="translate(-2 -0.43)" fill="none" stroke="#7512d8" stroke-linecap="round" stroke-linejoin="round" stroke-miterlimit="10" stroke-width="2"/><path d="M27.884,2.679,10.211,20.352,8,26.968l6.616-2.211L32.289,7.084A1.955,1.955,0,0,0,32.5,4.356l-1.89-1.89A1.939,1.939,0,0,0,27.884,2.679Z" transform="translate(2.7 -1.998)" fill="none" stroke="#7512d8" stroke-linecap="round" stroke-linejoin="round" stroke-miterlimit="10" stroke-width="2"/></g></g></svg>