<svg id="email-filled_1_" data-name="email-filled (1)" xmlns="http://www.w3.org/2000/svg" width="24" height="24" viewBox="0 0 24 24">
  <rect id="Rectangle_4217" data-name="Rectangle 4217" width="24" height="24" fill="none"/>
  <path id="Path_177" data-name="Path 177" d="M19,4a3,3,0,0,1,2.26,1.03L12,10.82,2.74,5.03A3,3,0,0,1,5,4Zm-7,9a1.014,1.014,0,0,0,.53-.15L22,6.94V17a3.009,3.009,0,0,1-3,3H5a3.009,3.009,0,0,1-3-3V6.94l9.47,5.91A1.014,1.014,0,0,0,12,13Z" fill="#8a2980" fill-rule="evenodd"/>
</svg>
