<svg xmlns="http://www.w3.org/2000/svg" xmlns:xlink="http://www.w3.org/1999/xlink" width="2418.277" height="3029.26" viewBox="0 0 2418.277 3029.26"><defs><linearGradient id="a" x1="0.5" x2="0.5" y2="1" gradientUnits="objectBoundingBox"><stop offset="0" stop-color="#e33e5e"/><stop offset="1" stop-color="#8a2980"/></linearGradient><linearGradient id="b" x1="0.5" x2="0.5" y2="1" gradientUnits="objectBoundingBox"><stop offset="0" stop-color="#e94057"/><stop offset="1" stop-color="#8a2980"/></linearGradient><linearGradient id="c" x1="0.17" y1="0.179" x2="0.964" y2="0.911" gradientUnits="objectBoundingBox"><stop offset="0" stop-color="#73238a"/><stop offset="1" stop-color="#d43a60"/></linearGradient></defs><g transform="translate(249.198 91.503)"><path d="M1897.909,10027.426s56.652-130.418,211.926-195.5c119.131-49.935,109.537-65.806,486.462-107.167s606.138,20,927.492-70.749,364.847-185.087,534.288-270.219,240.39,22.452,240.39,22.452l16.693,699.768-2417.251-14.969Z" transform="translate(4066.475 10015.01) rotate(180)" stroke="#707070" stroke-width="1" fill="url(#a)"/><path d="M1897.909,9959.563s56.652-117.334,211.926-175.888c119.131-44.925,112.837-73.225,489.762-110.437s696.584,43.228,1017.938-38.413,271.1-177.734,440.542-254.325,240.39,20.2,240.39,20.2l16.693,629.563L1897.909,10016.8Z" transform="translate(-2146.594 -7093.009)" stroke="#707070" stroke-width="1" fill="url(#b)"/><path d="M91.209,660.228S197.034,532.411,434.554,541.75,669.043,654.587,940.77,715.809s317.122-5.532,626.419,30.8,565.424,218.234,565.424,218.234V341.86s-193.57,163.84-468.161,99.747-209.259-113.768-523.568-213.151c-3.143-.994-623.151-1.719-795.068-100.175C169.16,27.111,91.209-130.873,91.209-130.873Z" transform="translate(-125.29 967.543)" fill="url(#c)"/></g></svg>