<svg xmlns="http://www.w3.org/2000/svg" width="109.195" height="128.171" viewBox="0 0 109.195 128.171">
  <g id="avatar-30_1x" data-name="avatar-30@1x" transform="translate(-114.353 -21.193)">
    <path id="Path_533" data-name="Path 533" d="M443.6,430.073a70.6,70.6,0,0,1-20.5,11.548,60.154,60.154,0,0,1-9.13,2.539L402.06,424.873a11.587,11.587,0,0,1-.907-1.693,16.608,16.608,0,0,1-.847-11.548,12.665,12.665,0,0,1,.786-2.116,16.246,16.246,0,0,1,3.87-5.26l.363-.363a3.936,3.936,0,0,0,.544-.484,13.254,13.254,0,0,1,1.512-1.028,17.636,17.636,0,0,1,2.842-1.391,16.34,16.34,0,0,1,19.65,6.711Z" transform="translate(-220.049 -296.248)" fill="#b3caf8"/>
    <path id="Path_534" data-name="Path 534" d="M227.715,365.273v.665c-.121,3.628-.786,21.041-1.089,39.361a60.15,60.15,0,0,1-9.13,2.54,70.162,70.162,0,0,1-12.395,1.451h-1.753a69.241,69.241,0,0,1-42.5-14.45,70.02,70.02,0,0,1-19.892-24.124,21.86,21.86,0,0,1,1.209-6.591c1.149-2.539,3.567-4.535,6.469-6.167a52.946,52.946,0,0,1,13.362-4.716c3.386-.726,5.8-1.028,5.8-1.028s.423.061,1.149.121c2.66.3,9.613,1.149,17.9,2.479a.457.457,0,0,1,.242.06c.181.061.423.061.6.121.6.121,1.209.181,1.874.3,4.958.786,10.279,1.753,15.418,2.781.061,0,.181.06.242.06,2.54.544,5.018,1.088,7.437,1.693C218.948,361.464,224.51,363.278,227.715,365.273Z" transform="translate(-23.515 -259.985)" fill="#515151"/>
    <path id="Path_535" data-name="Path 535" d="M291.537,209.334,279.868,253.35,263,242.588s-18.924-10.823-16.2-13.362c17.05-15.72,17.353-42.081,17.353-42.081S289.965,203.167,291.537,209.334Z" transform="translate(-103.722 -134.58)" fill="#e9a262"/>
    <path id="Path_536" data-name="Path 536" d="M338.127,100.8l-18.018,18.985,7.8,25.757,9.372,5.441,13.181,5.5s16.2-21.283,11.971-44.258a19.756,19.756,0,0,0-.6-2.54c-2.056-6.893-6.167-6.711-7.255-7.437-7.014-4.837-11.79-4.051-14.269-2.9A6.163,6.163,0,0,0,338.127,100.8Z" transform="translate(-159.623 -67.222)" fill="#e9a262"/>
    <path id="Path_537" data-name="Path 537" d="M385.427,278.428l-.242-.06c-.665-.242-16.627-6.53-18.441-8.344-1.935-1.814.786-10.339,1.088-11.306a.287.287,0,1,1,.544.181c-.846,2.539-2.66,9.372-1.27,10.7s12.274,5.865,18.018,8.1a49.638,49.638,0,0,0,3.688-5.683.311.311,0,0,1,.544.3,46.339,46.339,0,0,1-3.87,5.925Z" transform="translate(-194.529 -188.8)" fill="#242424"/>
    <path id="Path_538" data-name="Path 538" d="M491.953,160.9a.3.3,0,1,1,0-.6c.121,0,4.716,0,5.986-1.391a1,1,0,0,0,.3-.786c-.181-2.418-6.469-9.553-6.53-9.613l-.061-.121v-.121a45.04,45.04,0,0,0-3.023-18.138c-.061-.181,0-.3.181-.423.181-.061.3,0,.423.181a43.88,43.88,0,0,1,3.084,18.259c.786.907,6.409,7.376,6.59,9.855a1.485,1.485,0,0,1-.484,1.27C496.911,160.84,492.316,160.9,491.953,160.9Z" transform="translate(-287.633 -90.923)" fill="#242424"/>
    <path id="Path_539" data-name="Path 539" d="M483.415,217.213s8.465-.544,9.916-1.572c1.512-1.088-7.679-10.883-7.679-10.883Z" transform="translate(-283.69 -147.961)" fill="#e9a262"/>
    <path id="Path_540" data-name="Path 540" d="M451.847,274.666h-.06c-.6-.181-5.865-1.753-5.865-3.93a.3.3,0,1,1,.6,0c0,1.511,3.93,2.962,5.442,3.386a.269.269,0,0,1,.181.363A.513.513,0,0,1,451.847,274.666Z" transform="translate(-255.206 -197.856)" fill="#242424"/>
    <path id="Path_541" data-name="Path 541" d="M453.017,188.347a1.488,1.488,0,0,1-1.149-.544,1.518,1.518,0,0,1,.181-2.116c2-1.693,7.618-1.814,9.251-1.814a1.511,1.511,0,0,1,0,3.023c-2.9,0-6.53.423-7.316,1.088A1.374,1.374,0,0,1,453.017,188.347Z" transform="translate(-259.459 -132.094)" fill="#242424"/>
    <path id="Path_542" data-name="Path 542" d="M346.962,201.069a2.94,2.94,0,0,1-.726-.061c-1.874-.363-5.079-4.172-5.925-7.8-.544-2.358-.061-4.232,1.451-5.442a3.393,3.393,0,0,1,3.265-.847c2.237.847,3.084,4.656,3.084,4.837.06.181-.061.3-.242.363s-.3-.06-.363-.242c0-.061-.786-3.688-2.721-4.414a2.814,2.814,0,0,0-2.721.725c-1.693,1.33-1.632,3.326-1.27,4.837.786,3.386,3.749,7.013,5.441,7.376a2.2,2.2,0,0,0,2.418-.847,3.085,3.085,0,0,0-.423-3.446,14.306,14.306,0,0,0-4.293-3.688.311.311,0,1,1,.3-.544,14.8,14.8,0,0,1,4.535,3.87,3.63,3.63,0,0,1,.484,4.111A2.612,2.612,0,0,1,346.962,201.069Z" transform="translate(-174.807 -134.296)" fill="#242424"/>
    <path id="Path_543" data-name="Path 543" d="M272.515,330.289l-6.893,21.283c-3.084-4.172-10.7-20.738-10.7-20.738l-15.72-9.069-11.185,8.4c9.13,4.716,40.932,38.272,40.932,38.272,2.842-3.2,3.809-20.5,3.809-20.5l7.074-10.1Z" transform="translate(-89.658 -236.852)" fill="#b3caf8"/>
    <path id="Path_544" data-name="Path 544" d="M298.758,359.508s-6.772,5.623-6.953,7.376c-.121,1.753-2.781,6.893-2.781,6.893L285.638,360.9l7.678.967Z" transform="translate(-133.435 -265.527)" fill="#4382ff"/>
    <path id="Path_545" data-name="Path 545" d="M254.981,330.833s-5.321,2.66-8.344,4.655c-1.874,1.27-1.27,12.516-1.27,12.516l-17.353-17.836,11.246-8.4C244.763,324.666,251.172,324.726,254.981,330.833Z" transform="translate(-89.658 -236.852)" fill="#4382ff"/>
    <path id="Path_546" data-name="Path 546" d="M254.981,330.833s-5.321,2.66-8.344,4.655c-1.874,1.27-1.27,12.516-1.27,12.516l-17.353-17.836,11.246-8.4C244.763,324.666,251.172,324.726,254.981,330.833Z" transform="translate(-89.658 -236.852)" fill="#fff" opacity="0.26"/>
    <path id="Path_547" data-name="Path 547" d="M421.042,388.7l-7.074,10.158,7.074,1.693Z" transform="translate(-230.93 -287.702)" fill="#4382ff"/>
    <path id="Path_548" data-name="Path 548" d="M403.9,100.11c.907,3.2,2.237,7.074,3.386,6.711,1.451-.423,15.357-1.935,14.33-2.721C414.6,99.324,406.442,98.961,403.9,100.11Z" transform="translate(-223.282 -68.042)" fill="#242424" opacity="0.26"/>
    <path id="Path_549" data-name="Path 549" d="M301.753,98.354s-9.009-12.395-13.785-8.948-7.074,16.627-8.344,15.841-6.953-3.446-6.953-3.446-2.177-16.022-2.842-18.683c-.665-2.6,3.809-17.534,10.641-18.259,0,0,13-16.929,39.179-2.358,12.636,7.074,9.734,9.13,3.386,9.372-6.832.3-17.594-1.512-17.594-1.512s6.167,11.911,3.628,13c-2.539,1.149-6.288,3.87-5.865,6.288C303.567,92.248,306.953,98.959,301.753,98.354Z" transform="translate(-121.375 -35.391)" fill="#242424"/>
    <path id="Path_550" data-name="Path 550" d="M468.978,221.428s-1.27,1.874-.3,2.176,1.935-2.237,1.935-2.237Z" transform="translate(-272.216 -160.579)" fill="#242424"/>
    <path id="Path_551" data-name="Path 551" d="M468,212.292a13.014,13.014,0,0,1-3.749-1.27.311.311,0,1,1,.3-.544,10.528,10.528,0,0,0,3.628,1.209,27.4,27.4,0,0,0,.726-2.66.308.308,0,1,1,.6.121,24.447,24.447,0,0,1-.786,2.781.5.5,0,0,1-.3.3A1.178,1.178,0,0,1,468,212.292Z" transform="translate(-269.002 -151.02)" fill="#242424"/>
    <path id="Path_552" data-name="Path 552" d="M156.714,404.722l-5.744,7.558a70.013,70.013,0,0,1-19.892-24.124c-1.088-2.176-2.056-4.414-2.963-6.711A18.356,18.356,0,0,1,138.7,375.4a18.058,18.058,0,0,1,14.45,3.507A18.37,18.37,0,0,1,156.714,404.722Z" transform="translate(-13.762 -277.367)" fill="#b3caf8"/>
    <path id="Path_553" data-name="Path 553" d="M389.346,315.49l-1.33,5.321-8.525-9.613Z" transform="translate(-204.737 -228.824)" fill="#242424"/>
    <path id="Path_554" data-name="Path 554" d="M332.673,446.371v.121c0,.181-.363,7.981-.665,18.2h-.6c.242-9.372.6-16.748.665-18.078l-1.391-1.209-17.957-15.9-4.474-3.93a.3.3,0,1,1,.423-.423l22.25,19.71Z" transform="translate(-150.542 -315.327)" fill="#242424"/>
    <path id="Path_555" data-name="Path 555" d="M400.16,424.281a.223.223,0,0,1-.181-.06.3.3,0,0,1-.06-.423l5.381-7.316a.3.3,0,0,1,.484.363l-5.381,7.316A.458.458,0,0,1,400.16,424.281Z" transform="translate(-220.206 -308.715)" fill="#242424"/>
  </g>
</svg>
