<svg xmlns="http://www.w3.org/2000/svg" xmlns:xlink="http://www.w3.org/1999/xlink" width="1960.429" height="1048.712" viewBox="0 0 1960.429 1048.712">
  <defs>
    <linearGradient id="linear-gradient" x1="0.17" y1="0.179" x2="0.964" y2="0.911" gradientUnits="objectBoundingBox">
      <stop offset="0" stop-color="#73238a"/>
      <stop offset="0.473" stop-color="#e94057"/>
      <stop offset="1" stop-color="#ff9350"/>
    </linearGradient>
  </defs>
  <path id="Path_329" data-name="Path 329" d="M-9.862,741.6s259.1-165.728,469.174-86.365,181.215,126.228,371.138,191.4,250.293-7.129,463.346,22.646,224.046,157.6,384.167,168.191,272.6-42.346,272.6-42.346L1939.98,455.22s-79.4,58.226-230.257,58.226-205.775-9.925-373.175-58.226-138.41-119.249-317.265-198.294S793.989,228.934,629.9,142.918,413.164-9.833,413.164-9.833H-9.862Z" transform="translate(9.862 9.833)" fill="url(#linear-gradient)"/>
  <text id="Find_your_friends" data-name="Find your friends" transform="translate(181.862 370.833)" fill="#fff" font-size="50" font-family="Poppins-Bold, Poppins" font-weight="700"><tspan x="0" y="0">Find your friends</tspan></text>
  <text id="Connect_with_friends_through_Facebook_phone_number_etc" data-name="Connect with friends through Facebook, phone number etc" transform="translate(181.862 438.833)" fill="#fff" font-size="20" font-family="Poppins-Regular, Poppins"><tspan x="0" y="0">Connect with friends through Facebook, phone number etc</tspan></text>
  <g id="measurement_1x" data-name="measurement@1x" transform="translate(1105.862 196.19)">
    <path id="Path_334" data-name="Path 334" d="M597.552,358.69c0,122.846-250.64,232.568-373.486,232.568S10,413.659,10,290.92,215.245,97.831,337.984,97.831,597.552,235.951,597.552,358.69Z" transform="translate(0 1.062)" fill="#f4e7c1" opacity="0.25"/>
    <path id="Path_335" data-name="Path 335" d="M311,253.354s24.2-12.694,25.709-10.757,1.183,7.315-2.044,9.574-22.8,23.773-22.8,23.773Z" transform="translate(3.859 2.916)" fill="#e5a57a"/>
    <path id="Path_336" data-name="Path 336" d="M87.478,109.724H58.326L72.848,84.768Z" transform="translate(0.62 0.895)" fill="#ff8293" opacity="0.88"/>
    <path id="Path_339" data-name="Path 339" d="M640.827,374.29a12.478,12.478,0,1,0-12.479-12.478A12.478,12.478,0,0,0,640.827,374.29Z" transform="translate(7.928 4.287)" fill="#7512d8"/>
    <path id="Path_340" data-name="Path 340" d="M741.582,138.722H623.147v15.6H741.582Z" transform="translate(7.861 1.586)" fill="#ffa278"/>
    <path id="Path_341" data-name="Path 341" d="M631,213.586a7.852,7.852,0,1,1,7.852-7.852A7.9,7.9,0,0,1,631,213.586Z" transform="translate(7.861 2.345)" fill="#7512d8"/>
    <path id="Path_342" data-name="Path 342" d="M740.938,197.881H681.667v15.6h59.271Z" transform="translate(8.611 2.345)" fill="#ffa278"/>
    <path id="Path_343" data-name="Path 343" d="M741.582,160.069H623.147v29.152H741.582Z" transform="translate(7.861 1.86)" fill="#7512d8"/>
    <path id="Path_344" data-name="Path 344" d="M741.582,233.142H623.147v15.6H741.582Z" transform="translate(7.861 2.797)" fill="#ffa278"/>
    <path id="Path_345" data-name="Path 345" d="M631,308a7.852,7.852,0,1,1,7.852-7.852A7.9,7.9,0,0,1,631,308Z" transform="translate(7.861 3.555)" fill="#7512d8"/>
    <path id="Path_346" data-name="Path 346" d="M740.938,292.407H681.667v15.6h59.271Z" transform="translate(8.611 3.557)" fill="#ffa278"/>
    <path id="Path_347" data-name="Path 347" d="M741.015,354.008H667.329v15.6h73.686Z" transform="translate(8.427 4.346)" fill="#ffa278"/>
    <path id="Path_348" data-name="Path 348" d="M741.015,395.111H667.329v15.6h73.686Z" transform="translate(8.427 4.873)" fill="#ffa278"/>
    <path id="Path_349" data-name="Path 349" d="M741.015,436.319H667.329v15.6h73.686Z" transform="translate(8.427 5.402)" fill="#ffa278"/>
    <path id="Path_350" data-name="Path 350" d="M741.015,477.529H667.329v15.6h73.686Z" transform="translate(8.427 5.93)" fill="#ffa278"/>
    <path id="Path_351" data-name="Path 351" d="M741.582,254.489H623.147v29.152H741.582Z" transform="translate(7.861 3.071)" fill="#7512d8"/>
    <path id="Path_352" data-name="Path 352" d="M256.509,440.257s7.96,84.443,8.5,101.224H97.412s-1.829-53.57,8.5-67.124c0,0-7.207-41.523,3.227-43.136Z" transform="translate(1.119 5.336)" fill="#242424"/>
    <path id="Path_353" data-name="Path 353" d="M384.718,427.875a5.222,5.222,0,0,1-8.881,1.663L295.763,336.5a30.138,30.138,0,1,1,50.773-32.486l13.877,21.729,21.3-69.813a30.148,30.148,0,0,1,57.658,17.641Z" transform="translate(3.603 2.816)" fill="#b5cdfb"/>
    <path id="Path_354" data-name="Path 354" d="M384.718,427.875a5.222,5.222,0,0,1-8.881,1.663L295.763,336.5a30.138,30.138,0,1,1,50.773-32.486l13.877,21.729,21.3-69.813a30.148,30.148,0,0,1,57.658,17.641Z" transform="translate(3.603 2.816)" fill="rgba(155,9,9,0.86)"/>
    <path id="Path_355" data-name="Path 355" d="M469.348,211.475c15.813,10.541,45.18,30.98,50.343,63.359s-14.414,45.825-17.964,136.83l-112.519,9.789L377.7,279.567a48.464,48.464,0,0,1,25.386-46.47c8.821-4.734,18.287-8.822,26.356-10.435C449.018,218.9,460.1,229.224,469.348,211.475Z" transform="translate(4.712 2.519)" fill="#e94057"/>
    <path id="Path_356" data-name="Path 356" d="M371.27,451.46c8.195,5.871-8.874,26.733,4.982,22.415,6.658-2.075,25.355-19.035,23.721-30.426s-31.045-28.265-31.045-28.265L349.3,431.791s.311,18.122,5.6,23.681,17.181,15.449,21.514,14.74C377.5,470.035,369.782,456.08,371.27,451.46Z" transform="translate(4.35 5.131)" fill="#f3aa69"/>
    <path id="Path_357" data-name="Path 357" d="M418.146,541.138l-31.841.43s-8.027-86.366-8.821-96.277,10-46.04,10-46.04h102.3c35.283,0,35.175,142.424,35.175,142.424H420.083" transform="translate(4.711 4.927)" fill="#242424"/>
    <path id="Path_358" data-name="Path 358" d="M423.5,219.44l-10.865,4.626,8.928,23.02,13.877-17.641Z" transform="translate(5.162 2.621)" fill="#7512d8"/>
    <path id="Path_359" data-name="Path 359" d="M434.657,405.954a6.035,6.035,0,0,1-4.088-1.506c-6.669-5.485-15.6-1.937-15.92-1.828l-1.506.645-1.721-.215-15.6-1.829a6.475,6.475,0,0,1-5.7-7.1,6.554,6.554,0,0,1,7.1-5.7l14.092,1.613c4.626-1.506,17-4.3,27.43,4.3a6.364,6.364,0,0,1,.861,9.035A5.762,5.762,0,0,1,434.657,405.954Z" transform="translate(4.873 4.787)" fill="#fabd8c"/>
    <path id="Path_361" data-name="Path 361" d="M320.76,303.836s-12.585,16.673-15.812,10.972-18.5-37.435-17-42.813,5.486-11.725,5.486-11.725l11.4-13.554s21.3-10.327,23.235-5.379c1.936,4.841-16.78,12.049-16.78,12.049s15.383-9.467,16.889-4.949-9.467,16.135-9.467,16.135,6.993-3.765,8.283-1.4-6.777,13.123-6.777,13.123Z" transform="translate(3.562 2.885)" fill="#fabd8c"/>
    <path id="Path_362" data-name="Path 362" d="M421.575,247.6c2.151-10.865-.645-21.3-1.828-27.646C417.811,208.984,412,205.327,412,205.327l31.734-20.439,8.176-5.594s.215,22.16,14.629,31.734C480.954,220.494,421.575,247.6,421.575,247.6Z" transform="translate(5.154 2.107)" fill="#fabd8c"/>
    <path id="Path_363" data-name="Path 363" d="M438.627,212.678c-4.949,5.594-18.825,8.175-18.825,8.175a142.082,142.082,0,0,0-3.872-17l27.753-19.147a41.191,41.191,0,0,1,1.076,5.486C445.4,194.176,438.627,212.678,438.627,212.678Z" transform="translate(5.204 2.176)" fill="#242424"/>
    <path id="Path_364" data-name="Path 364" d="M434.433,210.247s-33.669,18.395-45.287,13.231l-23.558-92.4h71.858L459.712,148.5l-7.1,31.3c0,1.721-3.55,3.012-6.992,8.928C440.672,197.124,436.477,208.957,434.433,210.247Z" transform="translate(4.559 1.488)" fill="#fabd8c"/>
    <path id="Path_365" data-name="Path 365" d="M336.963,428.77a28.906,28.906,0,0,1-20.546-8.5c-3.766-3.766-33.507-39.459-40.93-47.957l-1.613-1.829-66.693-108a29.077,29.077,0,1,1,49.482-30.55l64,103.7c6.884,7.423,24.256,30.961,36.842,43.547a29.044,29.044,0,0,1-20.546,49.59Z" transform="translate(2.473 2.605)" fill="#7512d8"/>
    <path id="Path_366" data-name="Path 366" d="M248.068,221.113s-5.056,131.881,0,153.18,17,77.451,17,77.451L245.809,478.1l-20.653-27.216-29.8,31.518s-92.726-32.379-92.726-38.295S86.5,238.969,95.748,219.177c7.745-16.566,45.61-21.084,45.61-21.084S225.909,207.559,248.068,221.113Z" transform="translate(1.063 2.348)" fill="#9f8aff"/>
    <path id="Path_367" data-name="Path 367" d="M218.44,167.793,197.679,246,167.666,226.85S134,207.594,138.837,203.077c30.335-27.969,30.873-74.87,30.873-74.87S215.535,156.821,218.44,167.793Z" transform="translate(1.646 1.452)" fill="#f3aa69"/>
    <path id="Path_368" data-name="Path 368" d="M102.243,428.262s18.179-2.151,26.14,3.12c5.056,3.334,7.53,22.267,8.606,26.569,3.012,11.08-17.964,34.746-27.646,27-5.594-4.411-16.674-5.594-14.307-11.4a45.637,45.637,0,0,1,3.873-7.529s-17.319-21.514-17.534-25.709c-.645-14.522,8.068-13.124,8.068-13.124Z" transform="translate(0.915 5.284)" fill="#f3aa69"/>
    <path id="Path_369" data-name="Path 369" d="M104.954,400.1l15.921,29.8L83.548,447.11s-22.913-40.554-20.654-39.048S104.954,400.1,104.954,400.1Z" transform="translate(0.676 4.937)" fill="#7512d8"/>
    <path id="Path_370" data-name="Path 370" d="M357.552,392.055l20.255,27.019-29.2,20.677s-33.957-34.52-31.479-33.229S357.552,392.055,357.552,392.055Z" transform="translate(3.936 4.834)" fill="#7512d8"/>
    <path id="Path_371" data-name="Path 371" d="M201.37,94.91l-32.056,33.777,13.877,45.825,16.673,9.682,23.451,9.789s28.829-37.864,21.3-78.742a34.992,34.992,0,0,0-1.076-4.518c-3.657-12.263-10.972-11.94-12.908-13.231-12.478-8.606-20.977-7.207-25.386-5.163A12.973,12.973,0,0,0,201.37,94.91Z" transform="translate(2.043 0.972)" fill="#f3aa69"/>
    <path id="Path_372" data-name="Path 372" d="M464.169,123.8s-14.307-3.55-31.087,6.239-41.523,14.307-52.064,12.156-22.052-10.542-18.395-17.857,49.482-38.4,72.072-27.323C457.392,107.984,464.169,117.988,464.169,123.8Z" transform="translate(4.512 1.021)" fill="#242424"/>
    <path id="Path_373" data-name="Path 373" d="M463.53,123.494s-.538,32.057-2.9,38.188c-1.184,3.119-5.7,10.541-6.132,7.1-.753-5.271.322-22.051-2.582-21.622-9.682,1.506-9.682,23.236-9.682,23.236l-7.745-4.734s-1.076-14.2-5.271-14.737-4.734-17.319-4.734-17.319-15.49.968-12.155-2.259C415.661,127.9,436.207,109.295,463.53,123.494Z" transform="translate(5.152 1.324)" fill="#242424"/>
    <path id="Path_374" data-name="Path 374" d="M442.483,159.789s6.24-14.306,12.263-10.972-3.012,28.076-8.283,27.323-2.9-12.694.968-13.877" transform="translate(5.545 1.709)" fill="#fabd8c"/>
    <path id="Path_375" data-name="Path 375" d="M446.793,176.684h-.322c-2.044-.323-3.335-2.044-3.55-4.84-.323-3.98,1.613-9.251,4.41-10.112a.51.51,0,1,1,.323.968c-2.044.645-3.873,5.271-3.657,8.928.107,1.291.538,3.55,2.582,3.873s5.378-4.626,7.638-11.188c2.582-7.53,2.689-13.769.322-15.06a3.191,3.191,0,0,0-2.8-.216c-4.518,1.506-8.606,10.865-8.713,10.973a.579.579,0,0,1-1.076-.43c.215-.43,4.3-9.9,9.358-11.511a4.363,4.363,0,0,1,3.657.323c3.55,2.044,2.367,10.112.216,16.351C453.14,170.769,449.7,176.684,446.793,176.684Z" transform="translate(5.537 1.703)" fill="#242424"/>
    <path id="Path_376" data-name="Path 376" d="M391.264,191.668a4.086,4.086,0,0,1-4.088-4.088v-.107c2.367-11.188,1.829-18.718-2.044-24.312a.532.532,0,0,1,.107-.753c.216-.216.538-.107.754.107,5.056,7.53,3.872,17.319,2.151,25.064a2.892,2.892,0,0,0,2.9,2.9l8.283-2.151c.322-.107.538.107.645.43s-.107.538-.43.645Z" transform="translate(4.808 1.889)" fill="#242424"/>
    <path id="Path_377" data-name="Path 377" d="M399.4,164.779a2.855,2.855,0,0,1-2.474-1.506,2.68,2.68,0,0,1,1.29-3.55l12.586-5.809a5.853,5.853,0,0,1,6.454,1.613c.861.968,2.152,3.012,2.474,3.335a2.715,2.715,0,1,1-4.518,3.011,22.186,22.186,0,0,0-1.936-2.689c-.108-.107-.323-.215-.43-.107l-12.263,5.7A4.345,4.345,0,0,0,399.4,164.779Z" transform="translate(4.957 1.776)" fill="#242424"/>
    <path id="Path_378" data-name="Path 378" d="M374.755,171.634a2.639,2.639,0,0,1-2.582-2.152,2.778,2.778,0,0,1,2.044-3.227l8.929-1.937a2.722,2.722,0,0,1,3.227,2.044,2.777,2.777,0,0,1-2.044,3.228l-8.928,1.935A1.59,1.59,0,0,1,374.755,171.634Z" transform="translate(4.643 1.914)" fill="#242424"/>
    <path id="Path_379" data-name="Path 379" d="M397.929,201.381a14.511,14.511,0,0,1-3.979-.645.51.51,0,1,1,.322-.968c3.228.968,5.7.753,7.315-.538,2.474-1.829,2.474-5.378,2.474-5.378a.538.538,0,1,1,1.076,0c0,.215,0,4.087-2.9,6.239A6.831,6.831,0,0,1,397.929,201.381Z" transform="translate(4.918 2.286)" fill="#242424"/>
    <path id="Path_380" data-name="Path 380" d="M223.279,193.868l-.43-.107c-1.183-.43-29.582-11.618-32.809-14.845-3.443-3.227,1.4-18.395,1.937-20.116a.51.51,0,1,1,.968.323c-1.506,4.517-4.733,16.673-2.26,19.04s21.837,10.434,32.057,14.414a88.381,88.381,0,0,0,6.561-10.112.554.554,0,0,1,.968.538,82.506,82.506,0,0,1-6.884,10.541Z" transform="translate(2.293 1.839)" fill="#242424"/>
    <path id="Path_381" data-name="Path 381" d="M246.39,159.6a.538.538,0,1,1,0-1.076c.216,0,8.391,0,10.65-2.474a1.778,1.778,0,0,0,.538-1.4c-.322-4.3-11.51-17-11.617-17.1l-.108-.215v-.215a80.128,80.128,0,0,0-5.378-32.271c-.107-.323,0-.538.323-.754.322-.107.538,0,.753.323a78.084,78.084,0,0,1,5.486,32.486c1.4,1.613,11.4,13.124,11.724,17.534a2.641,2.641,0,0,1-.86,2.26C255.319,159.5,247.037,159.6,246.39,159.6Z" transform="translate(2.954 1.142)" fill="#242424"/>
    <path id="Path_382" data-name="Path 382" d="M238.243,157.8s15.061-.968,17.642-2.8c2.689-1.937-13.662-19.362-13.662-19.362Z" transform="translate(2.926 1.547)" fill="#f3aa69"/>
    <path id="Path_383" data-name="Path 383" d="M233.065,170.892h-.107c-1.076-.323-10.434-3.119-10.434-6.992a.538.538,0,1,1,1.076,0c0,2.69,6.991,5.272,9.682,6.024a.479.479,0,0,1,.322.645A.59.59,0,0,1,233.065,170.892Z" transform="translate(2.725 1.902)" fill="#242424"/>
    <path id="Path_384" data-name="Path 384" d="M227.552,134.894a2.649,2.649,0,0,1-2.044-.968,2.7,2.7,0,0,1,.322-3.765c3.55-3.012,13.555-3.227,16.458-3.227a2.689,2.689,0,1,1,0,5.378c-5.163,0-11.617.754-13.016,1.937A2.859,2.859,0,0,1,227.552,134.894Z" transform="translate(2.755 1.435)" fill="#242424"/>
    <path id="Path_385" data-name="Path 385" d="M407.176,424.072a10.4,10.4,0,0,1-8.283-4.088c-1.076-1.4-5.486-3.334-9.466-4.84a5.975,5.975,0,0,1-2.152-9.789c1.506-1.506,3.228-2.474,4.626-2.044,3.443,1.076,18.718,7.637,18.718,7.637l13.446-.753,5.7-6.346a6.707,6.707,0,0,1,9.144-.861,6.419,6.419,0,0,1,.645,9.251l-9.466,10.541-22.375,1.291Z" transform="translate(4.815 4.956)" fill="#fabd8c"/>
    <path id="Path_386" data-name="Path 386" d="M414.568,435.869c-4.2,0-19.792-8.39-24.741-11.188A3.452,3.452,0,0,1,388,421.454a6.453,6.453,0,0,1,4.411-5.809,6.6,6.6,0,0,1,8.176,4.088l14.845,3.012,4.733-.538,15.813-8.606a6.682,6.682,0,0,1,8.928,2.259,6.53,6.53,0,0,1-2.474,8.929l-18.286,9.9-8.068.968A4.207,4.207,0,0,1,414.568,435.869Z" transform="translate(4.846 5.1)" fill="#fabd8c"/>
    <path id="Path_387" data-name="Path 387" d="M190.074,153.6a5.243,5.243,0,0,1-1.29-.107c-3.335-.645-9.036-7.423-10.542-13.877-.968-4.2-.107-7.53,2.582-9.682,2.044-1.613,4.088-2.151,5.81-1.506,3.979,1.506,5.485,8.283,5.485,8.606.107.322-.107.538-.431.645s-.538-.107-.645-.43c0-.107-1.4-6.561-4.84-7.852q-2.1-.807-4.841,1.291c-3.012,2.366-2.9,5.916-2.259,8.6,1.4,6.024,6.669,12.478,9.682,13.124a3.919,3.919,0,0,0,4.3-1.506c1.076-1.722.754-4.088-.753-6.132a25.457,25.457,0,0,0-7.638-6.562.554.554,0,1,1,.538-.968,26.334,26.334,0,0,1,8.067,6.885c1.829,2.366,2.152,5.271.861,7.315A4.775,4.775,0,0,1,190.074,153.6Z" transform="translate(2.152 1.451)" fill="#242424"/>
    <path id="Path_388" data-name="Path 388" d="M209.722,200.3l-12.263,37.865c-5.485-7.423-19.04-36.9-19.04-36.9L150.45,185.136l-20.008,14.952c16.244,8.39,72.826,68.092,72.826,68.092,5.055-5.7,6.777-36.467,6.777-36.467l12.585-17.964" transform="translate(1.544 2.181)" fill="#7051d8"/>
    <path id="Path_389" data-name="Path 389" d="M178.107,200.96s-12.047,10-12.371,13.123-4.948,12.263-4.948,12.263l-6.024-22.912,13.661,1.721Z" transform="translate(1.856 2.384)" fill="#242424"/>
    <path id="Path_390" data-name="Path 390" d="M178.418,201.164s-9.466,4.733-14.844,8.283c-3.335,2.259-2.26,22.267-2.26,22.267l-30.873-31.625,20.008-14.952C160.239,190.3,171.642,190.407,178.418,201.164Z" transform="translate(1.544 2.181)" fill="#3913b8"/>
    <path id="Path_391" data-name="Path 391" d="M178.418,201.164s-9.466,4.733-14.844,8.283c-3.335,2.259-2.26,22.267-2.26,22.267l-30.873-31.625,20.008-14.952C160.239,190.3,171.642,190.407,178.418,201.164Z" transform="translate(1.544 2.181)" fill="#fff" opacity="0.26"/>
    <path id="Path_392" data-name="Path 392" d="M221.515,213.387l-12.478,17.964,12.478,3.011Z" transform="translate(2.552 2.544)" fill="#242424"/>
    <path id="Path_393" data-name="Path 393" d="M204.789,92.323c1.613,5.7,3.979,12.586,6.023,11.94,2.582-.753,27.323-3.443,25.495-4.841C223.829,90.817,209.306,90.172,204.789,92.323Z" transform="translate(2.497 0.978)" fill="#242424" opacity="0.26"/>
    <path id="Path_394" data-name="Path 394" d="M205.082,147.523s-16.028-22.051-24.525-15.921-12.586,29.582-14.845,28.184-12.371-6.132-12.371-6.132-3.873-28.506-5.056-33.239,6.777-31.2,18.933-32.487c0,0,23.128-30.12,69.705-4.2,22.483,12.586,17.319,16.243,6.024,16.674-12.156.538-31.3-2.689-31.3-2.689s10.972,21.192,6.455,23.128c-4.518,2.043-11.188,6.884-10.435,11.187S214.226,148.6,205.082,147.523Z" transform="translate(1.771 0.746)" fill="#242424"/>
    <path id="Path_395" data-name="Path 395" d="M385.014,171.858s-1.721,2.582-3.765,2.9-3.766-1.613-3.766-1.613Z" transform="translate(4.711 2.011)" fill="#242424"/>
    <path id="Path_396" data-name="Path 396" d="M403.5,168.372a2.7,2.7,0,0,0,3.012,2.474,2.759,2.759,0,0,0,2.474-3.012C408.883,166.328,403.4,166.866,403.5,168.372Z" transform="translate(5.045 1.948)" fill="#242424"/>
    <path id="Path_397" data-name="Path 397" d="M405.682,419.879,386.856,406.11a6.477,6.477,0,0,1,8.606-9.682l13.877,9.358,9.358-2.044,2.367-6.561a6.465,6.465,0,1,1,12.155,4.41l-4.84,13.232Z" transform="translate(4.804 4.846)" fill="#fabd8c"/>
    <path id="Path_398" data-name="Path 398" d="M460.495,435.2a30.079,30.079,0,0,1-14.522-56.475l50.559-27.753-37.22-78.1a30.1,30.1,0,0,1,54.324-25.925L555.91,335.7a45.166,45.166,0,0,1-17.857,61.208L474.91,431.546A29.908,29.908,0,0,1,460.495,435.2Z" transform="translate(5.389 2.754)" fill="#b5cdfb"/>
    <path id="Path_399" data-name="Path 399" d="M460.495,435.2a30.079,30.079,0,0,1-14.522-56.475l50.559-27.753-37.22-78.1a30.1,30.1,0,0,1,54.324-25.925L555.91,335.7a45.166,45.166,0,0,1-17.857,61.208L474.91,431.546A29.908,29.908,0,0,1,460.495,435.2Z" transform="translate(5.389 2.754)" fill="#fe4848" opacity="0.68"/>
    <path id="Path_400" data-name="Path 400" d="M233.16,142.865s-2.259,3.334-.538,3.873c1.829.538,3.443-3.98,3.443-3.98Z" transform="translate(2.846 1.638)" fill="#242424"/>
    <path id="Path_401" data-name="Path 401" d="M237.056,143.581c-1.828,0-5.485-1.721-6.669-2.259a.554.554,0,0,1,.538-.968c3.012,1.4,5.917,2.366,6.455,2.151a48.765,48.765,0,0,0,1.291-4.733.548.548,0,1,1,1.076.215,43.552,43.552,0,0,1-1.4,4.949.885.885,0,0,1-.538.538A2.106,2.106,0,0,1,237.056,143.581Z" transform="translate(2.822 1.569)" fill="#242424"/>
    <path id="Path_402" data-name="Path 402" d="M77.864,432.367a32.848,32.848,0,0,1-30.765-21.3L23.326,347.924a52.524,52.524,0,0,1,6.132-50.988l.43-.538,57.873-75.837a32.767,32.767,0,0,1,52.064,39.8L86.578,330.175l21.729,57.981a32.882,32.882,0,0,1-19.148,42.275A33.251,33.251,0,0,1,77.864,432.367Z" transform="translate(0.12 2.47)" fill="#7512d8"/>
    <path id="Path_403" data-name="Path 403" d="M409.135,405.9l17.75,2.8-3.55-15.706-11.511,3.657C411.824,396.753,414.406,402.669,409.135,405.9Z" transform="translate(5.117 4.846)" fill="#fabd8c"/>
    <path id="Path_404" data-name="Path 404" d="M482,544.64a.509.509,0,0,1-.538-.539l-7.96-79.064c-3.443.538-20.116,2.8-22.375-5.594-2.366-8.713-3.549-22.16-3.549-22.267a.538.538,0,0,1,1.076,0c0,.107,1.183,13.446,3.549,22.159,2.26,8.175,21.514,4.733,21.623,4.733l.538-.107.107.538,8.067,79.6a.576.576,0,0,1-.538.539Z" transform="translate(5.61 5.406)" fill="#9f8aff" opacity="0.5"/>
    <path id="Path_405" data-name="Path 405" d="M490.073,549.242a.508.508,0,0,1-.538-.538l-8.5-84.658a.487.487,0,1,1,.967-.107l8.5,84.658A.474.474,0,0,1,490.073,549.242Z" transform="translate(6.039 5.75)" fill="#9f8aff" opacity="0.5"/>
    <path id="Path_406" data-name="Path 406" d="M423.231,541.192a.492.492,0,0,1-.538-.43l-5.7-52.709a.548.548,0,1,1,1.076-.216l5.7,52.71C423.769,540.976,423.554,541.192,423.231,541.192Z" transform="translate(5.218 6.057)" fill="#9f8aff" opacity="0.5"/>
    <path id="Path_407" data-name="Path 407" d="M212.02,188.312l-2.474,9.466-15.06-17.1Z" transform="translate(2.365 2.124)" fill="#242424"/>
    <path id="Path_408" data-name="Path 408" d="M472.659,214.239a65.317,65.317,0,0,1-9.251,11.3l-.323.323-.645.645c-.538.538-1.183,1.076-1.829,1.613a53.56,53.56,0,0,1-6.669,4.949c-2.582,1.613-4.2-.753-9.143,5.056-3.228,3.872-21.837,10.327-23.344,9.251l7.53-28.507c1.076-.429,23.773-10.434,26.892-21.513.216-.323.645-.216,1.184.107C461.148,199.5,472.659,214.239,472.659,214.239Z" transform="translate(5.275 2.336)" fill="#242424"/>
    <path id="Path_409" data-name="Path 409" d="M472.564,214.237c-.645,2.474-4.411,6.777-9.251,11.295-.107.107-.216.215-.323.323l-.645.645c-.538.538-1.183,1.076-1.829,1.613-8.39,7.638-18.5,15.275-20.33,16.028a2.13,2.13,0,0,1-1.613-.43c-5.486-3.011-9.682-24.741-9.682-24.741,1.076-.43,23.773-10.434,26.892-21.513a1.573,1.573,0,0,1,1.183.107C461.053,199.5,472.564,214.237,472.564,214.237Z" transform="translate(5.37 2.338)" fill="#7512d8"/>
    <path id="Path_410" data-name="Path 410" d="M412.639,224.008l.968,11.725,7.96,11.295Z" transform="translate(5.162 2.68)" fill="#242424"/>
    <path id="Path_415" data-name="Path 415" d="M454.924,291.981s5.163,29.8,0,31.626c-5.164,1.936-24.2-2.151-24.2-2.151l-2.043-28.184Z" transform="translate(5.368 3.551)" fill="#bfbfbf"/>
    <path id="Path_416" data-name="Path 416" d="M453.988,296.085H428.709a2.69,2.69,0,0,1,0-5.379h25.279a2.69,2.69,0,0,1,0,5.379Z" transform="translate(5.334 3.535)" fill="#242424"/>
    <path id="Path_433" data-name="Path 433" d="M220.26,440.273a.712.712,0,0,1-.538-.43c-.107-.429-8.068-41.091-12.586-59.271-4.517-17.964-.645-106.926-.322-113.487L164.43,229.543a.533.533,0,0,1,.754-.754L208,266.654v.215c0,.968-4.3,95.307.215,113.488S220.8,439.3,220.9,439.735a.6.6,0,0,1-.645.538Z" transform="translate(1.978 2.739)" fill="#b5cdfb"/>
    <path id="Path_434" data-name="Path 434" d="M203.522,239.162a.394.394,0,0,1-.323-.108c-.215-.215-.323-.538-.107-.753l9.574-13.016a.531.531,0,0,1,.752-.108c.215.216.323.538.107.754l-9.573,13.016A.562.562,0,0,1,203.522,239.162Z" transform="translate(2.474 2.693)" fill="#b5cdfb"/>
    <path id="Path_435" data-name="Path 435" d="M180.146,308.235l12.155-.323v2.582H180.146Z" transform="translate(2.181 3.756)" fill="#242424" opacity="0.31"/>
    <path id="Path_436" data-name="Path 436" d="M181.423,337.55l12.156-.431V339.7H181.423Z" transform="translate(2.198 4.13)" fill="#242424" opacity="0.31"/>
    <path id="Path_437" data-name="Path 437" d="M182.7,366.758l12.263-.431v2.689H182.7Z" transform="translate(2.214 4.504)" fill="#242424" opacity="0.31"/>
    <path id="Path_438" data-name="Path 438" d="M188.751,402.019l12.156-.431v2.582H188.751Z" transform="translate(2.292 4.957)" fill="#242424" opacity="0.31"/>
    <path id="Path_439" data-name="Path 439" d="M736.381,116.113H622.248a13.124,13.124,0,0,1,0-26.247H736.381a13.124,13.124,0,1,1,0,26.247Z" transform="translate(7.681 0.96)" fill="#7147ff" opacity="0.7"/>
    <path id="Path_440" data-name="Path 440" d="M620.209,64.771a3.012,3.012,0,1,0-3.012-3.012A3.012,3.012,0,0,0,620.209,64.771Z" transform="translate(7.785 0.561)" fill="#3913b8"/>
    <path id="Path_441" data-name="Path 441" d="M631.36,64.771a3.012,3.012,0,1,0-3.012-3.012A3.012,3.012,0,0,0,631.36,64.771Z" transform="translate(7.928 0.561)" fill="#ffa278"/>
    <path id="Path_444" data-name="Path 444" d="M641.484,367.839,628.145,354.5a1.6,1.6,0,0,1,2.259-2.26l10.65,10.65,15.383-21.514a1.614,1.614,0,0,1,2.582,1.937Z" transform="translate(7.919 4.176)" fill="#d4d4d4"/>
    <path id="Path_445" data-name="Path 445" d="M640.827,415.5a12.478,12.478,0,1,0-12.479-12.478A12.478,12.478,0,0,0,640.827,415.5Z" transform="translate(7.928 4.815)" fill="#7512d8"/>
    <path id="Path_446" data-name="Path 446" d="M641.484,409.048l-13.339-13.339a1.6,1.6,0,0,1,2.259-2.26l10.65,10.65,15.383-21.514a1.614,1.614,0,0,1,2.582,1.936Z" transform="translate(7.919 4.704)" fill="#d4d4d4"/>
    <path id="Path_447" data-name="Path 447" d="M640.827,456.709a12.478,12.478,0,1,0-12.479-12.478A12.478,12.478,0,0,0,640.827,456.709Z" transform="translate(7.928 5.343)" fill="#7512d8"/>
    <path id="Path_448" data-name="Path 448" d="M641.484,450.258l-13.339-13.339a1.6,1.6,0,0,1,2.259-2.26l10.65,10.65L656.436,423.8a1.614,1.614,0,0,1,2.582,1.937Z" transform="translate(7.919 5.233)" fill="#d4d4d4"/>
    <path id="Path_449" data-name="Path 449" d="M640.827,497.918a12.478,12.478,0,1,0-12.479-12.478A12.478,12.478,0,0,0,640.827,497.918Z" transform="translate(7.928 5.872)" fill="#7512d8"/>
    <path id="Path_450" data-name="Path 450" d="M641.484,491.467l-13.339-13.339a1.6,1.6,0,0,1,2.259-2.26l10.65,10.65L656.436,465a1.614,1.614,0,0,1,2.582,1.937Z" transform="translate(7.919 5.761)" fill="#d4d4d4"/>
    <path id="Path_451" data-name="Path 451" d="M54.891,23.8H40.907V37.788H54.891Z" transform="translate(0.396 0.113)" fill="#f27121"/>
    <path id="Path_452" data-name="Path 452" d="M113.32,26.354H64.7v8.821H113.32Z" transform="translate(0.701 0.146)" fill="#964ec3"/>
    <path id="Path_453" data-name="Path 453" d="M54.891,45.471H40.907V59.455H54.891Z" transform="translate(0.396 0.391)" fill="#f27121"/>
    <path id="Path_454" data-name="Path 454" d="M113.32,47.913H64.7v8.821H113.32Z" transform="translate(0.701 0.422)" fill="#964ec3"/>
    <path id="Path_455" data-name="Path 455" d="M293.33,128.737H279.346v13.984H293.33Z" transform="translate(3.453 1.458)" fill="#e94057"/>
    <path id="Path_456" data-name="Path 456" d="M351.759,131.287H303.138v8.821h48.621Z" transform="translate(3.758 1.491)" fill="#a24584"/>
    <path id="Path_457" data-name="Path 457" d="M351.759,152.848H303.138v8.821h48.621Z" transform="translate(3.758 1.767)" fill="#a24584"/>
    <path id="Path_458" data-name="Path 458" d="M370.8,32.307H353.481V14.988H370.8Zm-16.351-1.076h15.168V16.064H354.449Z" transform="translate(4.404 0)" fill="#3913b8"/>
    <path id="Path_459" data-name="Path 459" d="M370.8,56.736H353.481V39.417H370.8ZM354.449,55.66h15.168V40.493H354.449Z" transform="translate(4.404 0.313)" fill="#ff9e63"/>
    <path id="Path_460" data-name="Path 460" d="M370.8,81.163H353.481V63.844H370.8Zm-16.351-1.076h15.168V64.919H354.449Z" transform="translate(4.404 0.626)" fill="#3913b8"/>
    <path id="Path_461" data-name="Path 461" d="M357.559,18.8l-.761.761,8.9,8.9.761-.761Z" transform="translate(4.446 0.049)" fill="#3913b8"/>
    <path id="Path_462" data-name="Path 462" d="M365.7,18.727l-8.9,8.9.761.761,8.9-8.9Z" transform="translate(4.446 0.048)" fill="#3913b8"/>
    <path id="Path_463" data-name="Path 463" d="M357.575,67.671l-.761.761,8.9,8.9.761-.761Z" transform="translate(4.446 0.675)" fill="#3913b8"/>
    <path id="Path_464" data-name="Path 464" d="M365.7,67.579l-8.9,8.9.761.761,8.9-8.9Z" transform="translate(4.446 0.674)" fill="#3913b8"/>
    <path id="Path_465" data-name="Path 465" d="M286.183,139.627l-2.9-4.3a.538.538,0,1,1,.86-.645l2.044,3.012,7.853-10.65a.532.532,0,0,1,.753-.107c.215.216.323.538.107.754Z" transform="translate(3.502 1.434)" fill="#fff"/>
    <path id="Path_466" data-name="Path 466" d="M293.33,150.936H279.346V164.92H293.33Z" transform="translate(3.453 1.743)" fill="#e94057"/>
    <path id="Path_467" data-name="Path 467" d="M286.183,161.826l-2.9-4.3c-.216-.216-.108-.538.107-.754a.532.532,0,0,1,.753.107l2.044,3.012,7.853-10.649a.531.531,0,0,1,.753-.108c.215.216.323.538.107.754Z" transform="translate(3.502 1.718)" fill="#fff"/>
    <path id="Path_477" data-name="Path 477" d="M598.662,289.7c-.215,0-.538-.216-.538-.43A287.727,287.727,0,0,0,544.34,160.4a.538.538,0,1,1,.861-.646,289.662,289.662,0,0,1,54,129.3A.6.6,0,0,1,598.662,289.7Z" transform="translate(6.849 1.853)" fill="#3913b8"/>
    <path id="Path_478" data-name="Path 478" d="M542.941,173.6a.558.558,0,0,1-.43-.215,283.4,283.4,0,0,0-23.342-27.646.532.532,0,0,1,.752-.754,317.133,317.133,0,0,1,23.451,27.753c.215.216.107.538-.108.754A.394.394,0,0,1,542.941,173.6Z" transform="translate(6.526 1.665)" fill="#3913b8"/>
    <path id="Path_479" data-name="Path 479" d="M459.041,89.565a.4.4,0,0,1-.323-.108,312.5,312.5,0,0,0-31.948-17,.554.554,0,1,1,.538-.968,285.349,285.349,0,0,1,32.056,17.1.665.665,0,0,1,.216.753C459.363,89.457,459.255,89.565,459.041,89.565Z" transform="translate(5.339 0.723)" fill="#3913b8"/>
    <path id="Path_480" data-name="Path 480" d="M438.455,69.236h-.215a303.365,303.365,0,0,0-33.454-13.769.51.51,0,1,1,.322-.968,296.554,296.554,0,0,1,33.562,13.769.519.519,0,0,1,.216.753A.56.56,0,0,1,438.455,69.236Z" transform="translate(5.057 0.506)" fill="#3913b8"/>
    <path id="Path_481" data-name="Path 481" d="M522.16,133.608a.817.817,0,0,1-.43-.215,304.409,304.409,0,0,0-34.423-31.088c-.215-.216-.323-.538-.107-.754a.532.532,0,0,1,.753-.107,318.316,318.316,0,0,1,34.638,31.2.52.52,0,0,1,0,.753C522.375,133.608,522.267,133.608,522.16,133.608Z" transform="translate(6.117 1.107)" fill="#3913b8"/>
    <path id="Path_502" data-name="Path 502" d="M340.644,102.972h-1.076V24.229h9.466v1.076h-8.39Z" transform="translate(4.225 0.118)" fill="#ffb282"/>
    <path id="Path_504" data-name="Path 504" d="M347.7,71.81h-5.055v1.076H347.7Z" transform="translate(4.265 0.729)" fill="#ffb282"/>
    <path id="Path_507" data-name="Path 507" d="M49.448,55.911,46.113,52.9a.532.532,0,1,1,.753-.753L49.34,54.4l7.638-9.251a.538.538,0,1,1,.861.645Z" transform="translate(0.461 0.384)" fill="#fff"/>
    <path id="Path_508" data-name="Path 508" d="M49.448,34.351l-3.335-3.12a.532.532,0,1,1,.753-.753l2.582,2.259,7.53-9.251a.662.662,0,0,1,.753-.108.65.65,0,0,1,0,.86Z" transform="translate(0.461 0.107)" fill="#fff"/>
    <path id="Path_509" data-name="Path 509" d="M277.416,31.731a6.885,6.885,0,1,1,6.884-6.885A6.933,6.933,0,0,1,277.416,31.731Zm0-12.693a5.809,5.809,0,1,0,5.809,5.809A5.785,5.785,0,0,0,277.416,19.038Z" transform="translate(3.34 0.038)" fill="#ffa278"/>
    <path id="Path_510" data-name="Path 510" d="M298.975,31.731a6.885,6.885,0,1,1,6.885-6.885A6.933,6.933,0,0,1,298.975,31.731Zm0-12.693a5.809,5.809,0,1,0,5.809,5.809A5.785,5.785,0,0,0,298.975,19.038Z" transform="translate(3.617 0.038)" fill="#3913b8"/>
    <path id="Path_511" data-name="Path 511" d="M320.643,31.731a6.885,6.885,0,1,1,6.884-6.885A6.933,6.933,0,0,1,320.643,31.731Zm0-12.693a5.809,5.809,0,1,0,5.809,5.809A5.925,5.925,0,0,0,320.643,19.038Z" transform="translate(3.894 0.038)" fill="#ffa278"/>
    <path id="Path_519" data-name="Path 519" d="M453.812,23.484H439.935V37.361h13.877Z" transform="translate(5.512 0.109)" fill="#cb1932"/>
    <path id="Path_520" data-name="Path 520" d="M509.041,137.873H495.164V151.75h13.877Z" transform="translate(6.22 1.575)" fill="#ff788b"/>
    <path id="Path_521" data-name="Path 521" d="M128.706,115.143H114.829V129.02h13.877Z" transform="translate(1.344 1.284)" fill="#fc8841"/>
    <path id="Path_523" data-name="Path 523" d="M289.8,210.729H260.653l14.63-24.957Z" transform="translate(3.214 2.19)" fill="#3913b8" opacity="0.4"/>
    <path id="Path_524" data-name="Path 524" d="M572,513.637H542.744l14.629-24.956Z" transform="translate(6.83 6.073)" fill="#3913b8" opacity="0.4"/>
    <path id="Path_525" data-name="Path 525" d="M790.369,314.07H761.217l14.522-24.957Z" transform="translate(9.631 3.515)" fill="#f30b2b" opacity="0.4"/>
  </g>
  <circle id="Ellipse_95" data-name="Ellipse 95" cx="70" cy="70" r="70" transform="translate(644.862 248.833)" fill="#dbb7ff"/>
  <ellipse id="Ellipse_96" data-name="Ellipse 96" cx="22.274" cy="22.274" rx="22.274" ry="22.274" transform="translate(755.836 262.595) rotate(17)" fill="#a64dff"/>
  <g id="Group_27" data-name="Group 27" transform="translate(759.467 278.618)">
    <path id="Path_957" data-name="Path 957" d="M601.25,497.973c0-1.449.913-2.9,2.283-2.9a2.64,2.64,0,0,1,2.283,2.9v17.389c0,1.449-.913,2.9-2.283,2.9a2.64,2.64,0,0,1-2.283-2.9Z" transform="translate(-592.022 -495.075)" fill="#fff"/>
    <path id="Path_958" data-name="Path 958" d="M600.435,516.723a2.11,2.11,0,1,1,0,4.11H582.9a2.11,2.11,0,1,1,0-4.11Z" transform="translate(-580.309 -507.181)" fill="#fff"/>
  </g>
  <g id="avatar-20_1x" data-name="avatar-20@1x" transform="translate(456.47 145.475)">
    <path id="Path_926" data-name="Path 926" d="M213.392,393.107h90.754v-7.424c0-16.308-9.833-21.378-26.078-29.753-2.427-1.251-5-2.577-7.7-4.024h-23.2q-1.867.916-3.671,1.789c-17.437,8.471-30.106,14.626-30.106,31.988Zm30.9-34.762c0,6.5,6.5,11.878,14.476,11.878s14.476-5.382,14.847-11.878a1.753,1.753,0,0,0-1.856-1.856,1.86,1.86,0,0,0-1.856,1.856c0,4.64-5.011,8.352-10.95,8.352s-10.95-3.712-10.95-8.352a1.753,1.753,0,0,0-1.856-1.856A1.86,1.86,0,0,0,244.294,358.346Z" transform="translate(0 -175.064)" fill="#4c0098" fill-rule="evenodd"/>
    <path id="Path_927" data-name="Path 927" d="M344.129,137.082v21.9a17.5,17.5,0,0,1-6.865,13.732V188.86a10.207,10.207,0,0,1-20.415,0V172.578a17.559,17.559,0,0,1-6.924-11.7c-2.414.318-4.984-1.556-6-4.528-1.13-3.3.076-6.7,2.694-7.594a4.345,4.345,0,0,1,3.179.185v-.165a17.227,17.227,0,0,1,17.26-17.26,57.142,57.142,0,0,0,6.895-.534,41.111,41.111,0,0,1,4.612-.394C341.9,130.772,344.129,132.071,344.129,137.082Z" transform="translate(-68.193 -7.567)" fill="#ffd99a" fill-rule="evenodd"/>
    <path id="Path_928" data-name="Path 928" d="M378.628,303.818v1.856c-2.784,2.227-6.5,4.825-10.208,4.825s-7.238-2.6-10.022-4.64V304a17.094,17.094,0,0,0,10.022,3.341A18.737,18.737,0,0,0,378.628,303.818Z" transform="translate(-109.742 -138.671)" opacity="0.34"/>
    <path id="Path_929" data-name="Path 929" d="M399.145,274.732a3.742,3.742,0,0,1-2.042-.557,4.417,4.417,0,0,1-2.227-2.413.765.765,0,1,1,1.485-.371,2.536,2.536,0,0,0,1.485,1.485,4.719,4.719,0,0,0,3.526-.186.827.827,0,0,1,1.114.557.778.778,0,0,1-.557,1.114A14.327,14.327,0,0,1,399.145,274.732Z" transform="translate(-137.312 -113.671)" fill="#00376e"/>
    <path id="Path_930" data-name="Path 930" d="M411.042,220.853c-.928,0-1.114-.186-1.3-.742l-.186-.557.742-.371a.843.843,0,0,1,.928,0,11.025,11.025,0,0,0,2.042-.186c.185,0,.371-.186.557-.371.742-1.3-.371-5.382-1.114-7.795a.83.83,0,0,1,1.485-.742c.186.742,2.413,6.681,1.114,9.094a2.7,2.7,0,0,1-1.67,1.114A10.81,10.81,0,0,1,411.042,220.853Z" transform="translate(-148.46 -67.399)" fill="#00376e"/>
    <path id="Path_931" data-name="Path 931" d="M383.734,217.1a1.67,1.67,0,1,0-1.67-1.67A1.67,1.67,0,0,0,383.734,217.1Z" transform="translate(-127.653 -70.512)" fill="#00376e"/>
    <path id="Path_932" data-name="Path 932" d="M440.972,217.1a1.67,1.67,0,1,0-1.67-1.67A1.67,1.67,0,0,0,440.972,217.1Z" transform="translate(-170.971 -70.512)" fill="#00376e"/>
    <path id="Path_933" data-name="Path 933" d="M326.717,132.484s17.817,2.413,24.127-.186,8.166-9.465,2.6-10.95-32.664-1.3-34.891,5.2c-1.114-1.67-4.454,7.424-1.67,15.4l2.6,1.485s1.856,6.124,2.97,6.124,5.382-10.95,5.382-10.95S325.046,132.113,326.717,132.484Z" transform="translate(-77.503)" fill="#010101"/>
    <path id="Path_934" data-name="Path 934" d="M452.268,158.225a27.651,27.651,0,0,1,2.969,10.393c.186,5.2,1.3,6.681,1.3,6.681v-18Z" transform="translate(-180.784 -27.782)"/>
  </g>
</svg>
