<svg xmlns="http://www.w3.org/2000/svg" width="126" height="126" viewBox="0 0 126 126">
  <g id="success-001_1x" data-name="success-001@1x" transform="translate(-110 -10)">
    <path id="Path_1050" data-name="Path 1050" d="M173,18.178a54.822,54.822,0,1,1-38.765,16.057A54.462,54.462,0,0,1,173,18.178ZM173,10a63,63,0,1,0,63,63A63,63,0,0,0,173,10Z" fill="#f2d82f"/>
    <path id="Path_1052" data-name="Path 1052" d="M280.571,190.122a7.99,7.99,0,0,0-8.834-7.034c-3.939.554-6.346,4.253-5.668,9.074a11.262,11.262,0,0,0,1.891,5.295,5.027,5.027,0,0,0,2.472,1.819,6,6,0,0,0,2.344.261,6.164,6.164,0,0,0,.75-.1c.085-.018.146-.033.18-.041l.027-.007.135-.041.151-.021A7.99,7.99,0,0,0,280.571,190.122Zm-9.379-10.911a12.122,12.122,0,0,1,3.5,23.968l-.008,0c-.092.024-.216.053-.368.085a10.059,10.059,0,0,1-1.232.173,9.911,9.911,0,0,1-3.889-.448,8.939,8.939,0,0,1-4.364-3.176,15.088,15.088,0,0,1-2.642-7.107C261.308,186.423,264.493,180.153,271.192,179.211Z" transform="translate(-119.016 -132.364)" fill="#dfd92a" fill-rule="evenodd"/>
    <path id="Path_1054" data-name="Path 1054" d="M434.392,189.577a11.737,11.737,0,1,1,23.256,3.131,15.092,15.092,0,0,1-2.642,7.107,8.94,8.94,0,0,1-4.364,3.177,15.229,15.229,0,0,1-4.889.448,10.054,10.054,0,0,1-1.232-.173c-.153-.032-.277-.061-.368-.085l-.009,0A11.909,11.909,0,0,1,434.392,189.577Zm12.711-6.489a8.208,8.208,0,0,0-2.284,16.232l.151.021.135.041.027.007c.034.009.1.024.18.041a6.163,6.163,0,0,0,.75.1,6,6,0,0,0,2.345-.261,5.026,5.026,0,0,0,2.472-1.819,11.26,11.26,0,0,0,1.891-5.295C453.45,187.342,451.042,183.642,447.1,183.088Z" transform="translate(-253.825 -132.364)" fill="#dfd92a" fill-rule="evenodd"/>
    <path id="Path_1055" data-name="Path 1055" d="M390.34,372.453V341.239h-7.419v31.214Z" transform="translate(-213.631 -259.28)" fill="#dfd92a"/>
    <path id="Path_1057" data-name="Path 1057" d="M369.945,346.031H383a4.573,4.573,0,0,1-4.573,4.573h-3.912A4.573,4.573,0,0,1,369.945,346.031Z" transform="translate(-203.474 -263.031)" fill="#bab523"/>
    <path id="Path_1059" data-name="Path 1059" d="M369.945,466.164h0a2.286,2.286,0,0,1,2.286-2.286h8.484A2.286,2.286,0,0,1,383,466.164h0a2.286,2.286,0,0,1-2.286,2.286h-8.484A2.286,2.286,0,0,1,369.945,466.164Z" transform="translate(-203.474 -355.277)" fill="#bab523"/>
    <path id="Path_1060" data-name="Path 1060" d="M345.208,141.756v29.091a16.259,16.259,0,0,1-16.265,16.268h-9.565a16.265,16.265,0,0,1-16.265-16.268V141.756h42.095Z" transform="translate(-151.161 -103.133)" fill="#dfd92a"/>
    <path id="Path_1061" data-name="Path 1061" d="M324.547,141.027H273.561a2.522,2.522,0,0,1-2.522-2.522h0a2.521,2.521,0,0,1,2.522-2.521h50.987a2.521,2.521,0,0,1,2.521,2.521h0A2.521,2.521,0,0,1,324.547,141.027Z" transform="translate(-126.055 -98.615)" fill="#dfd92a"/>
    <path id="Path_1062" data-name="Path 1062" d="M460.8,105.232c-2.58,5.242-3.6,5.8-9.409,5.175,5.242,2.58,5.8,3.6,5.175,9.409,2.58-5.242,3.6-5.8,9.409-5.175C460.733,112.061,460.172,111.041,460.8,105.232Z" transform="translate(-267.227 -74.544)" fill="#bab523"/>
    <path id="Path_1063" data-name="Path 1063" d="M324.547,141.027h0Zm-46.541,0h-4.446a2.522,2.522,0,0,1-2.522-2.522h0a2.521,2.521,0,0,1,2.522-2.521h50.986m-46.541,5.043v25.3A16.265,16.265,0,0,0,294.271,182.6h9.565a16.189,16.189,0,0,0,9.055-2.751h-.007c-23.985.164-19.756-29.825-17.949-38.82" transform="translate(-126.055 -98.615)" fill="rgba(0,0,0,0.17)" fill-rule="evenodd"/>
    <path id="Path_1064" data-name="Path 1064" d="M311.41,478.418h0a3.333,3.333,0,0,1,3.333-3.333h31.824a3.333,3.333,0,0,1,3.333,3.333h0C349.9,479.677,311.41,479.677,311.41,478.418Z" transform="translate(-157.655 -364.049)" fill="#dfd92a"/>
  </g>
</svg>
