<svg xmlns="http://www.w3.org/2000/svg" width="21.302" height="26.628" viewBox="0 0 21.302 26.628">
  <g id="password---filled_24x24_1x" data-name="password---filled(24x24)@1x" transform="translate(-4 -2)">
    <path id="Path_170" data-name="Path 170" d="M7.8,9.988H20.843a6.658,6.658,0,0,0-13.046,0ZM5,11.32a9.32,9.32,0,0,1,18.639,0,1.331,1.331,0,0,1-1.331,1.331H6.331A1.331,1.331,0,0,1,5,11.32Z" transform="translate(0.331)" fill="#8a2980" fill-rule="evenodd"/>
    <path id="Path_171" data-name="Path 171" d="M23.971,26.639H5.331A1.335,1.335,0,0,1,4,25.308V9.331A1.335,1.335,0,0,1,5.331,8H23.971A1.335,1.335,0,0,1,25.3,9.331V25.308A1.335,1.335,0,0,1,23.971,26.639Z" transform="translate(0 1.988)" fill="#8a2980" fill-rule="evenodd"/>
    <path id="Path_172" data-name="Path 172" d="M9.17,12.17l7.536,7.536" transform="translate(1.713 3.37)" fill="none" stroke="#fefefe" stroke-linecap="square" stroke-linejoin="round" stroke-miterlimit="10" stroke-width="1"/>
    <path id="Path_173" data-name="Path 173" d="M12,11V21.651" transform="translate(2.651 2.982)" fill="none" stroke="#fefefe" stroke-linecap="square" stroke-linejoin="round" stroke-miterlimit="10" stroke-width="1"/>
    <path id="Path_174" data-name="Path 174" d="M16.706,12.17,9.17,19.706" transform="translate(1.713 3.37)" fill="none" stroke="#fff" stroke-linecap="square" stroke-linejoin="round" stroke-miterlimit="10" stroke-width="1"/>
    <path id="Path_175" data-name="Path 175" d="M18.651,15H8" transform="translate(1.326 4.308)" fill="none" stroke="#fefefe" stroke-linecap="square" stroke-linejoin="round" stroke-miterlimit="10" stroke-width="1"/>
  </g>
</svg>
