<svg xmlns="http://www.w3.org/2000/svg" width="71.15" height="71.15" viewBox="0 0 71.15 71.15"><g transform="translate(-588.187 -1444)"><ellipse cx="28.49" cy="28.49" rx="28.49" ry="28.49" transform="translate(604.847 1444) rotate(17)" fill="#464646"/><g transform="translate(608.991 1463.984)"><path d="M601.25,498.909c0-1.917,1.208-3.834,3.021-3.834,1.51,0,3.021,1.534,3.021,3.834v23.007c0,1.917-1.208,3.834-3.021,3.834-1.51,0-3.021-1.534-3.021-3.834Z" transform="translate(-589.041 -495.075)" fill="#fff"/><path d="M606.937,516.723c1.9,0,3.424,1.208,3.424,2.719s-1.522,2.719-3.424,2.719h-23.2c-1.9,0-3.423-1.208-3.423-2.719s1.522-2.719,3.423-2.719Z" transform="translate(-580.309 -504.098)" fill="#fff"/></g></g></svg>