<svg id="Group_48" data-name="Group 48" xmlns="http://www.w3.org/2000/svg" xmlns:xlink="http://www.w3.org/1999/xlink" width="872" height="1073" viewBox="0 0 872 1073">
  <defs>
    <linearGradient id="linear-gradient" x1="-0.014" y1="1.052" x2="1.028" gradientUnits="objectBoundingBox">
      <stop offset="0" stop-color="#7512d8"/>
      <stop offset="0.54" stop-color="#d12fd1"/>
      <stop offset="1" stop-color="#e94057"/>
    </linearGradient>
  </defs>
  <rect id="Rectangle_111" data-name="Rectangle 111" width="872" height="1073" fill="url(#linear-gradient)"/>
  <g id="Group" transform="translate(127.738 295)">
    <g id="Background_8" data-name="Background / 8" transform="translate(326.168)">
      <g id="Socials_" data-name="Socials ">
        <g id="Browser">
          <g id="Background">
            <rect id="Background-2" data-name="Background" width="268.837" height="201.85" rx="20" fill="#f2f6fb"/>
          </g>
        </g>
        <g id="Userpic" transform="translate(16.089 136.988)">
          <g id="Userpic-2" data-name="Userpic" transform="translate(0 0)">
            <path id="Combined_Shape" data-name="Combined Shape" d="M24.333,49.157a23.971,23.971,0,0,1-9.471-1.932,24.239,24.239,0,0,1-7.734-5.268,24.72,24.72,0,0,1,0-34.76,24.239,24.239,0,0,1,7.734-5.267,24.188,24.188,0,0,1,18.943,0A24.239,24.239,0,0,1,41.539,7.2a24.72,24.72,0,0,1,0,34.76A24.239,24.239,0,0,1,33.8,47.226,23.971,23.971,0,0,1,24.333,49.157ZM24.386,26.1a5.891,5.891,0,0,0-5.893,5.876H30.278A5.891,5.891,0,0,0,24.386,26.1Zm0-8.1a3.242,3.242,0,1,0,3.251,3.242A3.25,3.25,0,0,0,24.386,17.992Z" transform="translate(0 0)" fill="#d8deed"/>
          </g>
        </g>
        <g id="Send_Message" data-name="Send Message">
          <path id="Combined_Shape-2" data-name="Combined Shape" d="M82.207,182.592a4.877,4.877,0,0,1,0-9.754h158.7a4.877,4.877,0,0,1,0,9.754Zm0-15.85a4.877,4.877,0,1,1,0-9.753H216.5a4.877,4.877,0,0,1,0,9.753Zm0-15.849a4.877,4.877,0,0,1,0-9.753H182.315a4.877,4.877,0,1,1,0,9.753ZM20.089,120a4,4,0,0,1-4-4V45.511a4,4,0,0,1,4-4H188.042a4,4,0,0,1,4,4V116a4,4,0,0,1-4,4ZM0,22.831V20A20,20,0,0,1,20,0H249.357a20,20,0,0,1,20,20v2.831Z" fill="#e1e5f0"/>
          <g id="Button" transform="translate(204.261 102.829)">
            <g id="Button-2" data-name="Button">
              <rect id="Button-3" data-name="Button" width="48.876" height="17.169" rx="8.584" fill="#a339ff"/>
            </g>
          </g>
        </g>
      </g>
      <ellipse id="Burron_Copy" data-name="Burron Copy" cx="4.93" cy="4.93" rx="4.93" ry="4.93" transform="translate(10.38 6.746)" fill="#ff5645"/>
      <ellipse id="Burron_Copy_2" data-name="Burron Copy 2" cx="4.93" cy="4.93" rx="4.93" ry="4.93" transform="translate(26.469 6.746)" fill="#ffcb3d"/>
      <ellipse id="Burron_Copy_3" data-name="Burron Copy 3" cx="4.93" cy="4.93" rx="4.93" ry="4.93" transform="translate(43.076 6.746)" fill="#3abf7c"/>
    </g>
    <g id="Chair" transform="translate(362.595 301.438)">
      <path id="Path" d="M129.131,182.868V2.941c0-1.6-27.738-2.941-61.09-2.941H61.09C27.8,0,0,1.337,0,2.941V183c0,1.6,27.738,2.941,61.09,2.941h6.951C101.326,186.01,129.131,184.606,129.131,182.868Z" transform="translate(69.693 0)" fill="#d8deed"/>
      <path id="Path-2" data-name="Path" d="M1.585,148.813l.267.134a2.893,2.893,0,0,0,3.877-.936L84,4.243A2.762,2.762,0,0,0,82.726.5L82.459.366a2.893,2.893,0,0,0-3.877.936L59.2,36.86Q40.251,71.749,21.236,106.572L.315,144.937A2.933,2.933,0,0,0,1.585,148.813Z" transform="translate(0 199.345)" fill="#d8deed"/>
      <path id="Path-3" data-name="Path" d="M186.411,0H3.008A3.025,3.025,0,0,0,0,2.941v.334A2.981,2.981,0,0,0,3.008,6.216H186.544a3.026,3.026,0,0,0,3.008-2.941V2.941A3.057,3.057,0,0,0,186.411,0Z" transform="translate(9.539 197.372)" fill="#d8deed"/>
      <path id="Path-4" data-name="Path" d="M84,144.966,63.076,106.6Q44.128,71.712,25.112,36.89L5.729,1.332A2.831,2.831,0,0,0,1.853.4L1.585.53A2.78,2.78,0,0,0,.315,4.273L78.582,148.041a2.831,2.831,0,0,0,3.877.936l.267-.134A2.933,2.933,0,0,0,84,144.966Z" transform="translate(135.814 199.315)" fill="#d8deed"/>
    </g>
    <g id="Woman_sitting_1" data-name="Woman sitting / 1" transform="translate(325.024 214.505)">
      <g id="Woman" transform="translate(0 0)">
        <g id="Legs" transform="translate(0 198.447)">
          <path id="Base" d="M120.71,5.7a2.849,2.849,0,0,1,0-5.7h66.436a2.849,2.849,0,0,1,0,5.7ZM2.849,5.7a2.849,2.849,0,0,1,0-5.7h105.08a2.849,2.849,0,1,1,0,5.7Z" transform="translate(0 231.683)" fill="#fff"/>
          <path id="Shoes" d="M107.2,40.041h0a2.819,2.819,0,0,0-1.762-.61H.355a2.889,2.889,0,0,0-.307.016A7.367,7.367,0,0,1,0,38.4c.025-.155.042-.316.061-.486a6.056,6.056,0,0,1,.158-.966c.833-3.05,1.838-5.04,4.759-6.819a81.461,81.461,0,0,1,9.038-4.784c4.816-2.225,8.253-3.487,11.285-4.6A52.078,52.078,0,0,0,37,15.226a60.611,60.611,0,0,0,8.69-6.942C48.356,5.755,57.215.057,57.3,0l46.119.139,3.775,39.9Zm76.712-.611H118.353l5.256-34.577h46.719l13.581,34.576Z" transform="translate(2.494 192.253)" fill="#474961"/>
          <path id="Legs-2" data-name="Legs" d="M49.855,186.144c-4.5,0-7.5-.891-9.714-3.358a10.009,10.009,0,0,1-2.512-4.673C32.928,154.809,9.613,87.17.532,38.643c0-.12-.065-.179-.065-.3A27.566,27.566,0,0,1,24.62,5.992C29.965,5.333,34.8,4.7,40.141,4.039a30.109,30.109,0,0,1,4.836-.172l79.8-1.384c47.329-.412,40.812-5.906,55.612.9s20.153,38.769,20.153,38.769a49.909,49.909,0,0,1-19.745,40.726c-.106,30.974-1.17,72.125-1.537,86.28-.064,1.971.193,7.305-3.671,10.668a13.783,13.783,0,0,1-4.251,2.261c-1.61.7-8.823,2.784-23.25,3.943-.638.041-1.307.082-1.986.082-.281,0-.565-.007-.847-.024-14.877-.522-18.549-1.45-24.281-3.073a9.477,9.477,0,0,1-6.956-8.117c-1.8-16.873-6.762-62.852-7.149-66.911-.515-5.16-.966-11.017-1.352-17.684l-.2-3.122L87.484,80.161c7.443,28.494,14.665,58.009,21.12,87.349a11.039,11.039,0,0,1-.773,7.728c-3.092,5.812-11.143,5.512-30.4,7.789-12.945,1.54-21.583,3.118-27.573,3.118Z" transform="translate(5.071 0)" fill="#7512d8"/>
          <path id="Shadow_Legs" data-name="Shadow Legs" d="M60.194,87.219h0L42.381,80.2C37.7,62.279,32.646,43.679,27.358,24.914,24.029,13.149,12.779,4.493,0,3.863l79.579-1.38A347.1,347.1,0,0,0,116.507.54c2.981-.313,5.135-.54,7-.54,3.671,0,6.253.887,11.685,3.387,3.376,1.553,6.536,4.558,9.392,8.93a63.074,63.074,0,0,1,6.234,13.008,109.449,109.449,0,0,1,4.527,16.831,31.428,31.428,0,0,1-.041,4.011,50.685,50.685,0,0,1-1.707,10.074,50.168,50.168,0,0,1-5.749,13.2,50.792,50.792,0,0,1-12.167,13.382c.005-1.544.008-3.145.008-4.757,0-12.32.069-22.657.193-29.107l.008-.312a113.433,113.433,0,0,0-1.047-20.028,45.765,45.765,0,0,0-3.382-12.058c-1.806-3.879-4.154-6.536-6.979-7.9A40.727,40.727,0,0,0,120.1,6.978l-.009,0A64.609,64.609,0,0,0,100.178,3.8c-.809,0-1.626.016-2.426.048-7.5.289-18.833.725-28.21,8-12.7,9.887-12.582,25.4-12.43,28.411L60.2,87.219Z" transform="translate(50.267 0)" fill="#444" opacity="0.177"/>
        </g>
        <g id="Body" transform="translate(5.789 0)">
          <path id="T-shirt" d="M41.649,125.571c-2.462-4.381-20.778-48.2-26.617-62.2C9.849,65.045,6,66.277,5.745,66.322,4.918,66.466,2.1,57.2.273,42.543c-2.1-16.816,8.1-30.841,25-33.709a8.155,8.155,0,0,1,6.882,1.986,26.225,26.225,0,0,1,2.992-1.166L48.89,5.065q1.195-.218,2.379-.381c1.083-1.243,3.29-2.3,7.115-3.471,13.587-4.245,30.928,2.814,37.1,18.632C100.872,33.629,108.023,49.2,107.357,49.4a33.257,33.257,0,0,1-7.634,3.691c4.474,17.153,9.566,38.169,10.092,46.834.955,15.749-4.342,26.305-22.293,27.643-8.9.663-19.52,1.46-28.331,1.46C50.22,129.031,43.13,128.205,41.649,125.571Z" transform="translate(79.512 72.323)" fill="#12be8b"/>
          <path id="Combined_Shape-3" data-name="Combined Shape" d="M5.727,57.618c-.852,0-3.638-9.262-5.453-23.78A32.653,32.653,0,0,1,.916,21.879,28.3,28.3,0,0,1,13.94,4.241,32.45,32.45,0,0,1,25.273.128,8.5,8.5,0,0,1,26.724,0a8.357,8.357,0,0,1,5.461,2.14C16.487,9.13,7.462,32.124,13.25,50.382c0,0,.689,1.612,1.827,4.266-5.964,1.93-9.1,2.928-9.331,2.968Z" transform="translate(79.512 81.029)" fill="#444" opacity="0.177"/>
          <path id="Finger" d="M.091,2.849S-1.132,7.659,5.373,6.33s8.373-1.962,8.373-1.962L12.071,0Z" transform="translate(84.48 82.016)" fill="#482d1f"/>
          <path id="Skin" d="M120.4,378.247l.912-13.985c5.042,1.4,9.123,2.293,23.269,2.788.268.017.545.024.848.024.64,0,1.252-.035,1.986-.082a149,149,0,0,0,15.9-2.042L167,378.063l-4.3.184Zm-66.667-4.9,3.058-6.788c2.488-.284,5.306-.666,8.289-1.069,3.433-.464,7.321-.988,11.681-1.508,3.426-.4,6.538-.733,9.037-1,5.183-.547,9.277-.98,12.453-1.617l1.842,11.978H53.73ZM49.6,184.74l-.315.005h-.022a1.313,1.313,0,0,1-.384-.058L17.773,182.4a16.826,16.826,0,0,1-12.153-6.543l-4.068-5.336a7.426,7.426,0,0,1-.958-7.457,7.642,7.642,0,0,1,6.035-4.616L16.6,157.03a65.5,65.5,0,0,1,18.713.033l19.266,2.816c14.995-4.712,33.869-10.543,38.634-11.56l-5.992-27.8,7.085-2.781c1.1,2.5,3.339,7.612,6.275,14.275-1.022-9.775-1.525-20.02-2.016-30.032-.58-11.826-1.179-24.054-2.627-35.315l-6.7.144a25.42,25.42,0,0,1-8.459,2.03c-2.827,0-4.444-1.151-4.808-3.423.087-.036,11.218-4.553,18.871-7.786l.58-.507a4.013,4.013,0,0,1,1.609-.887.841.841,0,0,1,.387-.063l.428-.061a15.058,15.058,0,0,1-2.257.035C90.2,55.911,83.6,46.375,80.42,32.478a30.68,30.68,0,0,1-.56-3.383l-.813-11.3a13.915,13.915,0,0,1,1.355-7.3,5.44,5.44,0,0,1,.328-.664,21.579,21.579,0,0,1,1.19-1.881,17.818,17.818,0,0,1,5.5-4.985A30.2,30.2,0,0,1,101.064.012c.454.024,1.883.093,3.893.174a27.814,27.814,0,0,0,5.585.282,1.96,1.96,0,0,1,1.971,1.8l.8,16.2a3.366,3.366,0,0,0,.094.507s9.728-3.956,13.929,4.514.4,6.637-1.471,8.895a9.834,9.834,0,0,1-4.149,2.772,1.386,1.386,0,0,0-.615.334l5.045.048.892,3.481.328,4.42,3.315,16.173a90.9,90.9,0,0,1-9.367,4.382l11.979,55.924,2.848-15.189c5.472,1.036,24.283,4.418,36.64,4.418h.157c-.526,2.013-1.227,5.668-2.113,10.3-1.373,7.169-3.083,16.091-5.229,24.736-2.546,10.255-5.044,17.435-7.637,21.951a79.971,79.971,0,0,1-5.781,8.9,28.51,28.51,0,0,1-5.41,5.544,17.109,17.109,0,0,1-5.749,2.842,24.965,24.965,0,0,1-6.8.8c-1.823,0-3.9-.12-6.538-.374a23.305,23.305,0,0,1-4.26-.8,18.926,18.926,0,0,0,1.991.527l-75.572,1.162-.006.02h0Zm59.58-131.987c-5.36,2.24-5.051,2.086-5.424,2.245-.8.247-1.585.443-2.326.6l5.772-.818,2.841-.41-.379-1.818Z" transform="translate(0.037 17.488)" fill="#db9e75"/>
          <path id="Shadow" d="M.528,4.8h0C.439,4.775.387,4.76.381,4.758L0,2.929,6.912,0a.045.045,0,0,1-.005.015,17.3,17.3,0,0,1-2.6,4.252L1.881,4.6.528,4.8Z" transform="translate(109.703 67.107)" fill="#482d1f"/>
          <path id="Eyes" d="M.011,3.766c.114-.9.53-1.316,1.043-1.36A1.561,1.561,0,0,1,2.839,3.587c.23,1.124.649,2.931.209,3.794a.6.6,0,0,1-.553.372C1.495,7.753-.148,5.541.011,3.766ZM13.7,1.382c.114-.9.53-1.317,1.043-1.36A1.561,1.561,0,0,1,16.527,1.2c.23,1.124.649,2.931.209,3.794a.6.6,0,0,1-.553.372C15.182,5.368,13.54,3.157,13.7,1.382Z" transform="translate(81.698 45.012)" fill="#482d1f"/>
          <path id="Nose" d="M.57.575,0,6.906A1.467,1.467,0,0,0,1.352,8.42a17.4,17.4,0,0,0,1.877.017c.512-.009.864-.013,1.278-.012a.633.633,0,1,0,0-1.266c-.424,0-.783,0-1.3.012a17.235,17.235,0,0,1-1.8-.015.271.271,0,0,1-.114-.192L1.853.691A.644.644,0,0,0,.57.575Z" transform="matrix(0.996, -0.087, 0.087, 0.996, 87.078, 47.937)" fill="#482d1f"/>
          <path id="Mouth" d="M4.381,1.731c.451-.126,1.545-.567,1.672-1.2,0-.127.064-.316,0-.38C5.795-.166,4.958.086,3.8.274A27.964,27.964,0,0,1,0,.585,9.021,9.021,0,0,0,.9,1.979C1.613,2.74,3.673,1.983,4.381,1.731Z" transform="matrix(0.996, -0.087, 0.087, 0.996, 89.076, 58.169)" fill="#482d1f"/>
          <path id="Glasses" d="M.035,13.076A9.036,9.036,0,0,1,8.349,3.338a9.136,9.136,0,0,1,9.659,6.73l.908-.141,1.06-.164A9.035,9.035,0,0,1,28.291.035a9.187,9.187,0,0,1,8.787,4.577l1.746-.583,2.134-.714a.951.951,0,1,1,.623,1.8l-2.135.714-1.61.538A8.907,8.907,0,0,1,38.2,8.206a9.035,9.035,0,0,1-8.314,9.738,9.146,9.146,0,0,1-9.541-6.314l-1.127.174-.931.144a9.044,9.044,0,0,1-8.342,9.3q-.406.035-.807.035A9.086,9.086,0,0,1,.035,13.076Z" transform="translate(70.326 37.504)" fill="#482d1f"/>
          <path id="Shadow_Arm" data-name="Shadow Arm" d="M49.833,67.022h0L49.6,67l-.315.005h-.021a1.3,1.3,0,0,1-.385-.058l-31.11-2.286A16.823,16.823,0,0,1,5.621,58.123L1.553,52.787A7.425,7.425,0,0,1,.6,45.33a7.64,7.64,0,0,1,6.034-4.616l9.967-1.42a65.479,65.479,0,0,1,18.712.034l19.267,2.816C69.569,37.432,88.444,31.6,93.209,30.584l-5.992-27.8L94.3,0c1.139,2.6,3.512,8.005,6.615,15.044.373,2.9.8,5.713,1.265,8.354,1.375,7.19,2.662,12.773,4.049,17.569a66.426,66.426,0,0,0,5.106,13.146,25.559,25.559,0,0,0,6.9,8.484,17.61,17.61,0,0,0,7.172,3.244L49.839,67l-.006.02Z" transform="translate(0 135.223)" fill="#8c2a00" opacity="0.2"/>
          <path id="Shadow-2" data-name="Shadow" d="M6.416,34.576.04,13.433a.947.947,0,0,1,.652-1.18.969.969,0,0,1,1.2.64L8.269,34.036a.947.947,0,0,1-.652,1.18.983.983,0,0,1-.275.039A.965.965,0,0,1,6.416,34.576ZM40.393,3.1a.95.95,0,1,1,.014-1.9A23.191,23.191,0,0,0,47.981.051a.97.97,0,0,1,1.225.594.946.946,0,0,1-.6,1.2,25.093,25.093,0,0,1-8,1.256Z" transform="translate(132.618 124.305)" fill="#482d1f"/>
          <path id="Hair" d="M48.295,59.941h0a24.259,24.259,0,0,1-6.654-5.989c-.333-.5-.674-1.016-1.021-1.538l.3-.082a10.214,10.214,0,0,0,5.357-2.973,8.53,8.53,0,0,0,1.413-8.827,8.184,8.184,0,0,0-7.04-5.094,5.552,5.552,0,0,0-.587.031,7.4,7.4,0,0,0-3.247,1.3,10.147,10.147,0,0,0-2.963,3.75l-.511,1.471c-.252-.325-.5-.634-.733-.919-2.342-2.154-4.237-4.017-6.069-5.818-2.005-1.972-4.078-4.01-6.7-6.386l-1.092.374C14.7,30.626,2.389,34.855.25,34.856A.665.665,0,0,1,0,34.82a16.637,16.637,0,0,1,1.058-6.3,8.629,8.629,0,0,1,1.567-2.538c.074-.086.132-.153.172-.207a20.645,20.645,0,0,1,5.851-5.461A30.363,30.363,0,0,1,21.57,17.351c.246,0,.486,0,.715.012.487.026,1.926.094,3.894.173.574.013,1.166.027,1.877.03.548-.006,1.111-.009,1.722-.009l.976,0h1.053c2.948-.062,5.308-.224,7.39-.367,1.8-.123,3.35-.23,4.758-.23a15.409,15.409,0,0,1,6.462,1.22c.332.15.735.339,1.213.6a24.418,24.418,0,0,1,1.129-2.445C56.019,10.127,59.815,5.6,64.042,2.889A17.005,17.005,0,0,1,73.241,0a9.6,9.6,0,0,1,3.43.5.863.863,0,0,0,.188.023,15.476,15.476,0,0,1,5.788,1.621,12.381,12.381,0,0,1,3.793,2.986,13.351,13.351,0,0,1,2.712,5.409,25.7,25.7,0,0,1,.757,5.082,17.546,17.546,0,0,1-1.57,8.664,16.956,16.956,0,0,1-7.6,7.226,27.3,27.3,0,0,1-12.4,2.8,34.528,34.528,0,0,1-8.185-1.01,31.582,31.582,0,0,1-.047,4.752q-.008.107-.015.2A23.086,23.086,0,0,1,57.9,46.012a34.385,34.385,0,0,1-2.972,4.936c-.316.455-.589.848-.783,1.166A65.837,65.837,0,0,1,48.3,59.94Z" transform="translate(78.932 0)" fill="#482d1f"/>
        </g>
      </g>
    </g>
    <g id="Interior_Devices_Mouse" data-name="Interior / Devices / Mouse" transform="translate(311.464 353.572)">
      <path id="Mouse" d="M1.112,8.005C8.13.653,22.767-5.429,47.764,7.738c3.81,1.938,2.674,8.488-1.47,8.622l-42.709,1.2C.376,17.7-1.228,10.478,1.112,8.005Z" transform="matrix(0.999, 0.035, -0.035, 0.999, 9.679, 37.897)" fill="#474961"/>
    </g>
    <g id="UI_Code_1" data-name="UI / Code / 1" transform="translate(62.761 92.236)">
      <g id="Code" transform="translate(-62.761 -20.72)">
        <path id="Path-5" data-name="Path" d="M218.827,148.38H14.571C6.55,148.38,0,142.442,0,135.172V13.208C0,5.938,6.55,0,14.571,0H218.827C226.847,0,233.4,5.938,233.4,13.208v121.9C233.4,142.442,226.847,148.38,218.827,148.38Z" transform="translate(62.761 34.889)" fill="#f2f6fb"/>
        <path id="Top_bar" data-name="Top bar" d="M20,0H213.264a20,20,0,0,1,20,20v8.74a0,0,0,0,1,0,0H0a0,0,0,0,1,0,0V20A20,20,0,0,1,20,0Z" transform="translate(62.828 20.72)" fill="#e1e5f0"/>
        <g id="Text" transform="translate(94.91 82.21)">
          <path id="Combined_Shape-4" data-name="Combined Shape" d="M82.712,71.851a3.843,3.843,0,0,1,0-7.686h25.733a3.843,3.843,0,1,1,0,7.686Zm-39.434,0a3.843,3.843,0,1,1,0-7.686H69.01a3.843,3.843,0,1,1,0,7.686Zm-39.434,0a3.843,3.843,0,1,1,0-7.686H29.576a3.843,3.843,0,1,1,0,7.686ZM112.12,50.462a3.843,3.843,0,0,1,0-7.686h53.8a3.843,3.843,0,0,1,0,7.686Zm-46.786,0a3.843,3.843,0,1,1,0-7.686h9.692a3.843,3.843,0,1,1,0,7.686Zm56.812-21.388a3.843,3.843,0,1,1,0-7.686h43.779a3.843,3.843,0,0,1,0,7.686Zm-39.434,0a3.843,3.843,0,0,1,0-7.686h25.733a3.843,3.843,0,1,1,0,7.686Zm-39.434,0a3.843,3.843,0,0,1,0-7.686H69.01a3.843,3.843,0,1,1,0,7.686Zm-39.434,0a3.843,3.843,0,0,1,0-7.686H29.576a3.843,3.843,0,1,1,0,7.686ZM112.12,7.686a3.843,3.843,0,0,1,0-7.686h53.8a3.843,3.843,0,0,1,0,7.686Zm-23.393,0a3.843,3.843,0,1,1,0-7.686h9.691a3.843,3.843,0,1,1,0,7.686Zm-84.884,0A3.843,3.843,0,0,1,3.843,0H51.632a3.843,3.843,0,0,1,0,7.686Z" fill="#e1e5f0"/>
          <path id="Code-2" data-name="Code" d="M88.727,7.686a3.843,3.843,0,1,1,0-7.686h9.691a3.843,3.843,0,1,1,0,7.686Zm-84.884,0A3.843,3.843,0,0,1,3.843,0H51.632a3.843,3.843,0,0,1,0,7.686Z" transform="translate(0 42.776)" fill="#a339ff"/>
          <path id="Code-3" data-name="Code" d="M60.656,71.851a3.843,3.843,0,1,1,0-7.686h43.779a3.843,3.843,0,1,1,0,7.686ZM3.843,7.686A3.843,3.843,0,0,1,3.843,0h9.692a3.843,3.843,0,1,1,0,7.686Z" transform="translate(61.491)" fill="#ff5645"/>
        </g>
      </g>
    </g>
    <g id="Table_3" data-name="Table / 3" transform="translate(111.953 409.047)">
      <path id="Combined_Shape-5" data-name="Combined Shape" d="M0,236.94V5.013A4.681,4.681,0,0,1,3.709.435,4.661,4.661,0,0,1,5.681,0H403.366a4.679,4.679,0,1,1,0,9.357H9.357V236.94a4.679,4.679,0,0,1-9.357,0Z" transform="translate(0 0)" fill="#d8deed"/>
    </g>
    <g id="Interior_Devices_Imac" data-name="Interior / Devices / Imac" transform="translate(127.259 231.259)">
      <g id="IMac" transform="translate(35.424 51.465)">
        <path id="IMac-2" data-name="IMac" d="M37.364,125.79a4.721,4.721,0,0,1-4.746-4.745,4.639,4.639,0,0,1,4.746-4.746H50.979l6.428-25.935H9.157C4.145,90.365,0,86.555,0,81.943V8.488C-.066,3.81,4.011,0,9.091,0H155.933c5.013,0,9.157,3.81,9.157,8.422V81.943c0,4.612-4.144,8.422-9.157,8.422h-58.8L94.479,116.3h17.409a4.745,4.745,0,1,1,0,9.491Z" transform="translate(0)" fill="#474961"/>
        <path id="Shadow-3" data-name="Shadow" d="M4.792,44.907H0L4.594,0l.2,44.906Z" transform="translate(94.53 71.459)" fill="#fff"/>
      </g>
    </g>
  </g>
</svg>
