<svg xmlns="http://www.w3.org/2000/svg" width="445.638" height="348.202" viewBox="0 0 445.638 348.202">
  <g id="Слой_2" data-name="Слой 2" transform="translate(0 0.043)">
    <g id="Слой_1" data-name="Слой 1" transform="translate(0 -0.043)">
      <path id="Path_959" data-name="Path 959" d="M338.656,314.806l-86-49.519a3.166,3.166,0,0,1,.125-5.566l10.819-5.583a3.2,3.2,0,0,1,3.041.071L355.531,305.4a3.175,3.175,0,0,1-.125,5.575l-7.849,4.04A9.276,9.276,0,0,1,338.656,314.806Z" transform="translate(-27.134 -27.391)" fill="#d6d8e5" opacity="0.4"/>
      <path id="Path_960" data-name="Path 960" d="M344.935,278.052l-73.3-42.313c-6.243-3.568-11.247-13.2-11.247-21.477V9.807c0-8.277,5.039-12.086,11.247-8.5l73.3,42.393c6.243,3.568,11.247,13.2,11.247,21.477V269.605C356.182,277.838,351.143,281.638,344.935,278.052Z" transform="translate(-28.143 0.043)" fill="#b1b4c4"/>
      <path id="Path_961" data-name="Path 961" d="M356.59,314.368l5.806-2.934-5.566-9.544Z" transform="translate(-38.54 -32.59)" fill="#b1b4c4"/>
      <path id="Path_962" data-name="Path 962" d="M259.14,3.461l5.343-2.8L263.4,8.536Z" transform="translate(-28.007 -0.033)" fill="#b1b4c4"/>
      <path id="Path_963" data-name="Path 963" d="M339.757,280.676l-73.289-42.313c-6.243-3.568-11.238-13.2-11.238-21.477V12.467c0-8.277,5.03-12.086,11.238-8.5l73.289,42.313C346,49.847,351,59.48,351,67.757V272.185C350.951,280.462,345.921,284.262,339.757,280.676Z" transform="translate(-27.585 -0.245)" fill="#616e84"/>
      <path id="Path_964" data-name="Path 964" d="M350.066,68.347V272.757c0,8.286-5.03,12.086-11.238,8.509l-28.738-16.6-8.919-5.155-35.632-20.559c-6.243-3.568-11.238-13.2-11.238-21.486V13.057c0-8.25,5.03-12.086,11.238-8.509L338.827,46.86C345.008,50.446,350.066,60.105,350.066,68.347Z" transform="translate(-27.484 -0.309)" fill="#20232d"/>
      <path id="Path_965" data-name="Path 965" d="M345.422,67.268V266.363c0,5.013-3.523,7.055-7.867,4.54l-22.913-13.227-2-1.168-.678-.392-4.95-2.863-14.333-8.259h0l-5.949-3.434-2.39-1.382-16.3-9.374c-4.344-2.506-7.858-8.616-7.858-13.629V18.079c0-5.022,3.514-7.055,7.858-4.549l28.613,16.527v.08a13.566,13.566,0,0,0,6.172,10.6c3.389,1.935,6.136.366,6.136-3.568v-.089l28.613,16.527C341.9,56.146,345.422,62.247,345.422,67.268Z" transform="translate(-28.121 -1.308)" fill="#fff"/>
      <ellipse id="Ellipse_135" data-name="Ellipse 135" cx="1.906" cy="3.294" rx="1.906" ry="3.294" transform="translate(272.503 32.764) rotate(-29.887)" fill="#2b303f"/>
      <path id="Path_966" data-name="Path 966" d="M307.881,39.636a2.167,2.167,0,0,1-.981-1.721c0-.624.437-.892.972-.562a2.141,2.141,0,0,1,.972,1.686C308.844,39.7,308.407,39.948,307.881,39.636Z" transform="translate(-33.169 -3.984)" fill="#fff" opacity="0.1"/>
      <path id="Path_967" data-name="Path 967" d="M364.868,104.968h0c-.6.348-1.088,0-1.088-.821V95.433a2.614,2.614,0,0,1,1.088-2.069h0c.6-.339,1.079,0,1.079.821V102.9A2.587,2.587,0,0,1,364.868,104.968Z" transform="translate(-39.317 -10.039)" fill="#757b89"/>
      <path id="Path_968" data-name="Path 968" d="M364.868,120.978h0c-.6.348-1.088,0-1.088-.812v-8.723a2.614,2.614,0,0,1,1.088-2.069h0c.6-.339,1.079,0,1.079.821v8.714a2.578,2.578,0,0,1-1.079,2.069Z" transform="translate(-39.317 -11.769)" fill="#757b89"/>
      <path id="Path_969" data-name="Path 969" d="M153.821,253.542,77.16,298.093,0,253.542,76.661,208.99Z" transform="translate(0 -22.549)" fill="#d6d8e5" opacity="0.4"/>
      <path id="Path_970" data-name="Path 970" d="M169.8,247.26l-.018,7.662L93.12,299.473l.018-7.671Z" transform="translate(-10.064 -26.686)" fill="#7d7d88"/>
      <path id="Path_971" data-name="Path 971" d="M83.788,291.8l-.018,7.671L6.61,254.922l.018-7.662Z" transform="translate(-0.714 -26.686)" fill="#7d7d88"/>
      <path id="Path_972" data-name="Path 972" d="M160.451,241.861,83.79,286.4,6.63,241.861,83.291,197.31Z" transform="translate(-0.717 -21.287)" fill="#c0c0ce"/>
      <path id="Path_973" data-name="Path 973" d="M157.832,117l-.33,115-64.522,37.5.33-115Z" transform="translate(-10.049 -12.607)" fill="#a1a1a1"/>
      <path id="Path_974" data-name="Path 974" d="M85.441,154.5l-.33,115L20.17,232l.321-115Z" transform="translate(-2.18 -12.607)" fill="#a1a1a1"/>
      <path id="Path_975" data-name="Path 975" d="M150,112.456l-64.522,37.5-64.95-37.5,64.522-37.5Z" transform="translate(-2.219 -8.064)" fill="#b5b5b7"/>
      <path id="Path_976" data-name="Path 976" d="M38.04,172.645,38,184.57,27.64,178.585l.027-11.925Z" transform="translate(-2.987 -17.974)" fill="#2a313f"/>
      <path id="Path_977" data-name="Path 977" d="M38.09,154.055l-.027,11.916L27.69,159.986l.036-11.916Z" transform="translate(-2.993 -15.965)" fill="#2a313f"/>
      <path id="Path_978" data-name="Path 978" d="M38.149,135.455l-.036,11.925L27.74,141.395l.036-11.925Z" transform="translate(-2.998 -13.955)" fill="#2a313f"/>
      <path id="Path_979" data-name="Path 979" d="M81.768,216.526l-.027,11.925L44.53,206.965l.027-11.925Z" transform="translate(-4.813 -21.042)" fill="#2a313f"/>
      <path id="Path_980" data-name="Path 980" d="M81.827,197.926l-.036,11.925L44.58,188.365l.036-11.925Z" transform="translate(-4.818 -19.031)" fill="#2a313f"/>
      <path id="Path_981" data-name="Path 981" d="M81.877,179.336l-.036,11.916L44.63,169.766l.036-11.916Z" transform="translate(-4.824 -17.022)" fill="#2a313f"/>
      <path id="Path_982" data-name="Path 982" d="M81.928,160.736l-.036,11.925-37.2-21.486.027-11.925Z" transform="translate(-4.83 -15.012)" fill="#2a313f"/>
      <path id="Path_983" data-name="Path 983" d="M37.939,209.835,37.9,221.76,27.53,215.775l.036-11.925Z" transform="translate(-2.975 -21.994)" fill="#2a313f"/>
      <path id="Path_984" data-name="Path 984" d="M37.989,191.245l-.036,11.925L27.58,197.185l.036-11.925Z" transform="translate(-2.981 -19.985)" fill="#2a313f"/>
      <path id="Path_985" data-name="Path 985" d="M81.717,235.116l-.036,11.925L44.47,225.555l.036-11.925Z" transform="translate(-4.806 -23.051)" fill="#2a313f"/>
      <path id="Path_986" data-name="Path 986" d="M110.453,175.37l.036,11.925-10.373,5.985-.036-11.925Z" transform="translate(-10.816 -18.916)" fill="#2a313f"/>
      <path id="Path_987" data-name="Path 987" d="M110.4,156.77l.036,11.925-10.382,5.985-.027-11.916Z" transform="translate(-10.811 -16.906)" fill="#2a313f"/>
      <path id="Path_988" data-name="Path 988" d="M154.391,204l.036,11.916L117.216,237.4l-.036-11.916Z" transform="translate(-12.665 -22.01)" fill="#2a313f"/>
      <path id="Path_989" data-name="Path 989" d="M154.341,185.41l.027,11.916-37.2,21.486-.036-11.925Z" transform="translate(-12.659 -20.001)" fill="#2a313f"/>
      <path id="Path_990" data-name="Path 990" d="M154.281,166.81l.036,11.916-37.211,21.486L117.07,188.3Z" transform="translate(-12.653 -17.991)" fill="#2a313f"/>
      <path id="Path_991" data-name="Path 991" d="M154.231,148.22l.036,11.916-37.211,21.486L117.02,169.7Z" transform="translate(-12.647 -15.981)" fill="#2a313f"/>
      <path id="Path_992" data-name="Path 992" d="M154.181,129.62l.036,11.916-37.211,21.486L116.97,151.1Z" transform="translate(-12.642 -13.971)" fill="#2a313f"/>
      <path id="Path_993" data-name="Path 993" d="M110.613,231.16l.036,11.916-10.382,5.985-.027-11.916Z" transform="translate(-10.834 -24.945)" fill="#2a313f"/>
      <path id="Path_994" data-name="Path 994" d="M110.562,212.56l.036,11.925-10.382,5.985-.036-11.925Z" transform="translate(-10.827 -22.935)" fill="#2a313f"/>
      <path id="Path_995" data-name="Path 995" d="M110.5,193.97l.036,11.916-10.373,5.985-.036-11.916Z" transform="translate(-10.822 -20.926)" fill="#2a313f"/>
      <path id="Path_996" data-name="Path 996" d="M157.529,235.53l-.027,9.276L92.99,282.3l.018-9.5Z" transform="translate(-10.05 -25.418)" fill="#4e4e4e"/>
      <path id="Path_997" data-name="Path 997" d="M85.138,272.776l-.027,9.5-64.941-37.5.027-9.5Z" transform="translate(-2.18 -25.391)" fill="#4e4e4e"/>
      <path id="Path_998" data-name="Path 998" d="M92.086,118.71h.731l3.693,2.123a13.968,13.968,0,0,1-8.09,0Z" transform="translate(-9.556 -12.792)" fill="#2a313f"/>
      <g id="Group_33" data-name="Group 33" transform="translate(65.321 88.985)">
        <path id="Path_999" data-name="Path 999" d="M74.55,103.137c9.41-4.549,23.19-4.549,32.653,0l-3.327,1.935c-7.6-3.505-18.427-3.505-25.973,0Z" transform="translate(-73.378 -99.725)" fill="#2a313f"/>
        <path id="Path_1000" data-name="Path 1000" d="M81,106.988a28.256,28.256,0,0,1,21.281,0l-3.354,1.944a20.96,20.96,0,0,0-14.556,0Z" transform="translate(-74.075 -100.285)" fill="#2a313f"/>
        <path id="Path_1001" data-name="Path 1001" d="M88.36,111.447a13.923,13.923,0,0,1,8.1,0l-3.666,2.132a5.255,5.255,0,0,0-.749,0Z" transform="translate(-74.871 -100.927)" fill="#2a313f"/>
        <path id="Path_1002" data-name="Path 1002" d="M97.06,116.24a1.382,1.382,0,0,0,0-.428l3.666-2.132a3.166,3.166,0,0,1,0,4.683Z" transform="translate(-75.811 -101.233)" fill="#2a313f"/>
        <path id="Path_1003" data-name="Path 1003" d="M104.84,119.743c2.988-2.524,2.97-5.9,0-8.429l3.354-1.944c4.807,3.621,4.834,8.705.062,12.326Z" transform="translate(-76.652 -100.767)" fill="#2a313f"/>
        <path id="Path_1004" data-name="Path 1004" d="M80.161,111.344c-2.988,2.533-2.961,5.9.054,8.429l-3.354,1.953c-4.807-3.621-4.834-8.705-.071-12.326Z" transform="translate(-73.236 -100.771)" fill="#2a313f"/>
        <path id="Path_1005" data-name="Path 1005" d="M111.25,122.683c6.02-4.379,5.976-10.658-.08-15.038l3.327-1.935c7.876,5.459,7.929,13.45.107,18.909Z" transform="translate(-77.336 -100.372)" fill="#2a313f"/>
        <path id="Path_1006" data-name="Path 1006" d="M78.027,126.9c7.59,3.5,18.418,3.5,25.973,0l3.345,1.935c-9.4,4.549-23.19,4.549-32.644,0Z" transform="translate(-73.394 -102.662)" fill="#2a313f"/>
      </g>
      <path id="Path_1007" data-name="Path 1007" d="M73.482,107.645c-6.012,4.379-5.976,10.65.089,15.038l-3.291,1.935c-7.885-5.459-7.929-13.45-.116-18.909Z" transform="translate(-6.953 -11.387)" fill="#2a313f"/>
      <path id="Path_1008" data-name="Path 1008" d="M84.4,123.19a20.933,20.933,0,0,0,14.547,0l3.38,1.953a28.256,28.256,0,0,1-21.281,0Z" transform="translate(-8.76 -13.276)" fill="#2a313f"/>
      <path id="Path_1009" data-name="Path 1009" d="M88.21,115.812a1.383,1.383,0,0,0,0,.428l-3.666,2.132a3.175,3.175,0,0,1,0-4.692Z" transform="translate(-9.026 -12.248)" fill="#2a313f"/>
      <path id="Path_1010" data-name="Path 1010" d="M327.684,200.424a7.831,7.831,0,0,1,3.568,6.136v6.074c0,2.257-1.605,3.166-3.568,2.025l-48.556-28.024a7.831,7.831,0,0,1-3.568-6.136v-6.074c0-2.257,1.614-3.166,3.568-2.034Z" transform="translate(-29.782 -18.541)" fill="#a339ff"/>
      <ellipse id="Ellipse_136" data-name="Ellipse 136" cx="33.866" cy="19.551" rx="33.866" ry="19.551" transform="translate(161.857 281.011)" fill="#d6d8e5" opacity="0.4"/>
      <g id="Men_2" transform="translate(163.873 99.188)">
        <path id="Path_1011" data-name="Path 1011" d="M187.539,166.22c-.4,3.5-4.576,18.588-3.684,23.752S199.018,203.8,199.018,203.8L201,194.94l-7.9-7.733,2.141-14.654Z" transform="translate(-183.73 -117.115)" fill="#ffcea9"/>
        <path id="Path_1012" data-name="Path 1012" d="M198.848,149.47a6.243,6.243,0,0,0-7.938,2.4c-2.1,3.478-4.272,15.395-4.46,17.428,0,0,2.943,4.067,7.358,3.389Z" transform="translate(-184.024 -115.242)" fill="#ededed"/>
        <path id="Path_1013" data-name="Path 1013" d="M218.447,337.753a12.211,12.211,0,0,0,9.267-1.115c2.23.071,14.271-5.093,15.93-.758,1.436,3.8-3.791,7.314-6.582,8.027-6.092,1.472-10.6,4.513-13.049,5.03-1.784.383-4.183.633-5.637-.794C216.592,346.387,216.743,340.018,218.447,337.753Z" transform="translate(-187.337 -135.264)" fill="#38226d"/>
        <path id="Path_1014" data-name="Path 1014" d="M224.021,348.151c2.453-.517,6.957-3.568,13.049-5.03,2.346-.571,6.377-3.131,6.779-6.181.544,3.5-4.174,6.6-6.779,7.234-6.092,1.472-10.6,4.513-13.049,5.03-1.784.383-4.183.633-5.637-.794a3.612,3.612,0,0,1-.794-1.463,7.278,7.278,0,0,0,6.431,1.2Z" transform="translate(-187.39 -135.566)" fill="#9c73ff"/>
        <path id="Path_1015" data-name="Path 1015" d="M196.506,327.9a12.21,12.21,0,0,0,9.214-1.115c2.23.071,14.271-5.1,15.93-.758,1.436,3.8-3.782,7.314-6.573,8.027-6.1,1.472-10.6,4.513-13.058,5.03-1.784.384-4.183.633-5.637-.8C194.651,336.518,194.8,330.168,196.506,327.9Z" transform="translate(-184.965 -134.199)" fill="#38226d"/>
        <path id="Path_1016" data-name="Path 1016" d="M202.081,338.3c2.453-.517,6.957-3.568,13.058-5.03,2.337-.571,6.368-3.131,6.77-6.181.544,3.5-4.165,6.6-6.77,7.234-6.1,1.472-10.6,4.513-13.058,5.03-1.784.384-4.183.633-5.637-.8a3.514,3.514,0,0,1-.794-1.454,7.278,7.278,0,0,0,6.431,1.2Z" transform="translate(-185.019 -134.501)" fill="#9c73ff"/>
        <path id="Path_1017" data-name="Path 1017" d="M196.265,283.315a73.386,73.386,0,0,1,2.783-13.218s-.829-11.4-1.24-22.209c-.473-12.273-4.736-23.074-1.374-32.858l37.826,8.42s-2.292,48.913-2.792,54.835a110.738,110.738,0,0,1-1.7,13.736c-1.73,9.49-4.531,32.109-4.531,32.109-4,2.319-9.258,1.035-9.258,1.035s.285-28.542.544-35.409c.312-8.348.571-7.715.571-7.715l-1.249-20.809-.821-10.355s-1.052,7.6-1.73,14.387c-.6,5.913-2.025,11.274-3.621,22.3-1.382,9.561-3.63,28.756-3.63,28.756-4,2.328-9.437.4-9.437.4S195.186,291.6,196.265,283.315Z" transform="translate(-184.965 -122.39)" fill="#8c50ff"/>
        <path id="Path_1018" data-name="Path 1018" d="M202.4,145.849c2.881.134,5.03.892,5.352,0a36.565,36.565,0,0,0,.66-4.5c-.33-.838-.615-1.739-.615-1.739-3.621-2.221-4.763-6.136-5.245-10.7-.812-7.786,3.4-14.6,11.185-15.421,7.323-.758,12.71,4.388,14.146,11.452.776,3.487,2.319,10.079.232,15.814-1.159,3.211-2.676,5.753-4.165,6.243a36.877,36.877,0,0,1-4.335-.383h0s-.392,2.158-.66,3.568-.161,2.123,2.6,3.826-4.183,5.2-8.714,4.861-9.6-3.006-10.98-5.985C200.291,149.613,200.424,145.751,202.4,145.849Z" transform="translate(-185.574 -111.407)" fill="#ffcea9"/>
        <path id="Path_1019" data-name="Path 1019" d="M205.453,150.164c-.8,2,1.231,4.46,6.645,6.136s5.9-.491,5.9-.491,7.938,3.568,10.525,5.423c3.256,2.274,4.692,8.848,5.129,19.943.508,12.844.553,31.9.125,35.186,0,0-6.074,6.047-13.843,5.414s-20.853-7.519-24.019-12.826c.08-11.265,1.4-13.093-.419-19.622-4.174-14.85-6.377-20.933-4.344-30.8,1.668-8.134,4.014-9.142,7.225-9.071a67.047,67.047,0,0,1,7.082.7Z" transform="translate(-184.449 -115.303)" fill="#e94057"/>
        <path id="Path_1020" data-name="Path 1020" d="M267.926,184.1c-6.413-1.49-14.752-2.23-17.6-4.156-6.886-4.665-12.549-9.365-16.724-11.773-4.923-2.845-6.886-2.239-9.544-1.284-3.122,1.133-3.363,4.834,1.971,9.285,6.315,5.253,11.31,8.447,19.97,13.6,2.265,1.347,27.453,3.7,34.125,3.96,1.784.071,3.14.2,6.582.33a21.254,21.254,0,0,0,9.963-1.891c2.533-1.356,3.238-2.248,3.184-2.881-.062-.794-.794-1-2.025-.508a17.473,17.473,0,0,1-6.02,1.677s2.747-.892,4.335-1.632a17.276,17.276,0,0,0,3.951-2.408c1.142-.963.937-3.166-.312-2.676s-2.1,1.16-4.46,2.167a17.232,17.232,0,0,1-3.916,1.151,32.109,32.109,0,0,0,4.46-2.676,7.234,7.234,0,0,0,2.676-3.068c.294-.66-.223-1.891-1.695-1.106-1.329.7-2.676,2.141-5.441,3.086-1.989.678-3.487.892-3.327.491s1.356-.7,2.622-2.025,1.65-3.229.892-3.853-.633-.491-2.078.615-3.077,1.641-4.986,3.363a10.89,10.89,0,0,1-4.4,2.818C277.942,185.454,274.018,185.507,267.926,184.1Z" transform="translate(-187.849 -117.101)" fill="#ffcea9"/>
        <path id="Path_1021" data-name="Path 1021" d="M221.19,163.638c3.024-3.077,6.582-3.354,11.97.66s9.633,7.448,9.633,7.448a11.6,11.6,0,0,1-2.836,8.09c-3.327,4.049-6.243,3.211-6.243,3.211s-5.209-4.54-8.687-7.688S217.453,167.428,221.19,163.638Z" transform="translate(-187.619 -116.584)" fill="#e94057"/>
        <path id="Path_1022" data-name="Path 1022" d="M227.781,123.692s6.734-10.23-7.849-12.317c-10.516-1.5-17.277,5.253-18.052,12.594-.749,7,3.568,14.271,6.68,17.161,1.516.544,4.79.892,9.089-1.1a52.318,52.318,0,0,0,.2-5.735S212.725,123.5,227.781,123.692Z" transform="translate(-185.683 -111.164)" fill="#3a2c6d"/>
      </g>
      <g id="Group_34" data-name="Group 34" transform="translate(340.566 288.189)" opacity="0.4">
        <path id="Path_1023" data-name="Path 1023" d="M471.174,356.338c10.551,6.092,19.506,5.459,9.731,12.656-25.1,18.472-37.166,15.51-47.718,9.419L387.271,351.9c-10.56-6.092-4.246-19.622,6.243-25.7s21.183-2.471,31.744,3.63Z" transform="translate(-381.834 -323.068)" fill="#d6d8e5"/>
      </g>
      <path id="Path_1024" data-name="Path 1024" d="M487.458,280.672a4.663,4.663,0,0,1-.1.847,7,7,0,0,1-.169.687c-.071.268-.134.535-.232.8s-.178.437-.276.66-.241.562-.392.838-.241.4-.357.6-.4.633-.633.937-.455.6-.714.892c-.062.062-.116.134-.178.205-.348.384-.731.749-1.133,1.115-.259.232-.544.455-.83.687s-.482.4-.749.589-.642.437-.972.651-.66.446-1.026.651a27.121,27.121,0,0,1-2.542,1.293l-.767.321q-1.026.446-2.114.8c-.259.089-.517.187-.776.268-.455.143-.892.268-1.391.4s-.7.2-1.061.285-.99.214-1.49.312c-.339.071-.669.152-1.017.205-1.008.178-2.034.321-3.059.428l-.963.08c-.606.054-1.213.1-1.784.125h-3.88a9.156,9.156,0,0,1-1.365-.071l-1.249-.1-1.338-.152-1.2-.169-1.436-.25-1.115-.223c-.562-.125-1.115-.268-1.668-.41l-.892-.25c-.99-.294-1.953-.615-2.89-.981-.464-.178-.892-.375-1.356-.571-.232-.107-.473-.2-.7-.3-.678-.33-1.347-.669-1.98-1.035l-45.934-26.517c-5.307-3.068-7.956-7.091-7.947-11.113l-.2,71.88c0,4.023,2.676,8.027,7.947,11.1l45.854,26.535c.642.366,1.3.7,1.98,1.026.223.107.473.205.7.3.4.178.794.366,1.2.526l.143.054c.936.366,1.9.687,2.89.972l.232.08.7.169c.553.143,1.106.285,1.668.41a2.7,2.7,0,0,1,.446.107l.678.116c.473.089.945.178,1.427.25l.571.1a5.29,5.29,0,0,1,.633.071c.446.062.892.107,1.347.152l.633.071h.607l1.365.071h3.88c.615,0,1.213-.071,1.784-.116l.74-.054h.223c1.035-.107,2.051-.25,3.068-.428h.143c.294-.053.571-.134.892-.187q.749-.143,1.5-.321l1.052-.285c.464-.125.936-.25,1.391-.392l.294-.089c.169-.053.312-.125.482-.178q1.079-.375,2.114-.8l.776-.33a27.09,27.09,0,0,0,2.542-1.284l.321-.2c.25-.152.464-.312.7-.464s.669-.419.972-.642.508-.4.749-.6.571-.446.829-.687l.169-.134c.339-.321.66-.642.963-.972l.178-.214c.178-.205.366-.4.526-.607s.116-.187.187-.276c.232-.312.437-.624.633-.945.08-.125.187-.259.259-.392a1.454,1.454,0,0,0,.1-.205,7.926,7.926,0,0,0,.392-.838c.071-.161.169-.321.232-.482s0-.116,0-.169c.1-.268.161-.544.232-.812a5.467,5.467,0,0,0,.161-.544v-.143c0-.285.071-.562.089-.847s.062-.366.071-.553v-.241l.205-71.871q.019.383,0,.767Z" transform="translate(-41.89 -27.329)" fill="#fec52b"/>
      <path id="Path_1025" data-name="Path 1025" d="M479.6,266.922c10.543,6.092,10.6,15.974.116,22.066s-27.551,6.1-38.1,0l-45.934-26.517c-10.543-6.092-10.6-15.974-.107-22.075s27.543-6.092,38.094,0Z" transform="translate(-41.906 -25.45)" fill="#ffee7d"/>
      <path id="Path_1026" data-name="Path 1026" d="M413.85,330.543l6.243-16.946a15.047,15.047,0,0,1-3.059-8.438c0-3.479,1.944-5.352,4.638-4.9a6.627,6.627,0,0,1,2.4.892,15.383,15.383,0,0,1,6.993,12.1c0,2.774-1.24,4.5-3.1,4.879l4.674,18.338,1.463,5.78Z" transform="translate(-44.728 -32.407)" fill="#3a4151"/>
      <path id="Path_1027" data-name="Path 1027" d="M418.61,328.071l6.243-16.947a14.922,14.922,0,0,1-3.059-8.438,7.179,7.179,0,0,1,.392-2.417,6.627,6.627,0,0,1,2.4.892,15.383,15.383,0,0,1,6.993,12.1c0,2.774-1.24,4.5-3.1,4.879l4.674,18.338Z" transform="translate(-45.243 -32.415)" fill="#323944"/>
      <path id="Path_1028" data-name="Path 1028" d="M425.928,212.53a8.592,8.592,0,0,0-1.2.892l-.2.178a6.576,6.576,0,0,0-.892,1.115l-.241.392-.053.1a1.388,1.388,0,0,0-.125.223,6.25,6.25,0,0,0-.366.821v.053a8.681,8.681,0,0,0-.473,2.069v.08a8.349,8.349,0,0,0-.071,1.177l-.062,24.082v8.678a14.27,14.27,0,0,1-6.645,1.516V223.519a11.354,11.354,0,0,1,.17-1.882,1.613,1.613,0,0,1,.08-.392,4.386,4.386,0,0,1,.134-.517v-.08a4.84,4.84,0,0,1,.169-.464.125.125,0,0,1,0-.08c.053-.125.1-.241.152-.357a1.348,1.348,0,0,1,.116-.294.669.669,0,0,0,.08-.134,4.717,4.717,0,0,1,.392-.687h.045a6.794,6.794,0,0,1,.428-.571c.161-.178.321-.357.491-.526a.606.606,0,0,1,.2-.178,6.174,6.174,0,0,1,.571-.473,2.934,2.934,0,0,1,.553-.357,1.547,1.547,0,0,1,.178-.134Z" transform="translate(-44.917 -22.932)" fill="#323944"/>
      <path id="Path_1029" data-name="Path 1029" d="M474.411,247.56v.821l-.062,23.841v8.768a14.44,14.44,0,0,1-6.565,1.472h-.08V270.732l.045-18.481a25.175,25.175,0,0,0-.161-2.925c-.053-.473-.116-.963-.2-1.454v-.214c-.062-.375-.125-.767-.214-1.142a.51.51,0,0,0,0-.161c-.2-.945-.428-1.909-.7-2.872a1.4,1.4,0,0,0-.116-.375c-.125-.428-.259-.838-.4-1.258s-.33-.981-.508-1.472-.348-.892-.526-1.338c-.223-.589-.491-1.177-.749-1.784a.9.9,0,0,1-.08-.2.106.106,0,0,0-.053-.08c-.473-1.044-.99-2.1-1.561-3.148-.214-.428-.446-.838-.687-1.258-.312-.562-.624-1.115-.963-1.668s-.758-1.16-1.133-1.73c-.178-.294-.357-.589-.553-.892h0l-.2-.294a.811.811,0,0,0-.116-.143,69.324,69.324,0,0,0-4.37-5.753c-.1-.125-.214-.241-.312-.357-.722-.892-1.454-1.686-2.221-2.48a3.163,3.163,0,0,0-.339-.357c-.392-.41-.785-.821-1.2-1.231s-.945-.945-1.436-1.4c-.74-.687-1.472-1.374-2.239-2.042q-1.98-1.712-4.067-3.247l-.812-.589a54.963,54.963,0,0,0-4.656-3.006c-.544-.312-1.061-.589-1.588-.892s-1.177-.606-1.784-.892c-.4-.2-.812-.375-1.2-.553l-.508-.232-.606-.241a26.258,26.258,0,0,0-3.229-1.177.784.784,0,0,0-.125-.018l-.392-.1c-.178-.071-.357-.1-.517-.152s-.446-.134-.651-.178h-.054l-.437-.1c-.392-.1-.758-.178-1.133-.241-.205-.054-.437-.08-.651-.116a.267.267,0,0,0-.116,0l-.794-.134h-.187a14.031,14.031,0,0,0-1.481-.134,8.51,8.51,0,0,0-.945-.054h-.473a12.744,12.744,0,0,0-1.445.071h-.455a3.568,3.568,0,0,0-.455.054,2.828,2.828,0,0,0-.41.062H417.5c-.116,0-.232.054-.348.062h0c-.276.054-.553.1-.829.178a.429.429,0,0,0-.134,0,.508.508,0,0,0-.223.053,3.7,3.7,0,0,0-.589.178,3.392,3.392,0,0,0-.455.125h-.071a8.369,8.369,0,0,0-.963.392l-.116.045h0a6.457,6.457,0,0,0-.606.312,2.3,2.3,0,0,0-.392.2l6.663-3.871a12.8,12.8,0,0,1,2.1-.963.134.134,0,0,1,.08,0h0a13.384,13.384,0,0,1,1.784-.491l.2-.054h.223c.41-.08.838-.125,1.258-.178h.366c.5,0,1.008-.062,1.543-.062h1.579c.214,0,.437.053.651.062l.838.089h.08a7.56,7.56,0,0,1,.847.134,3.805,3.805,0,0,1,.615.116h.071c.491.1.99.214,1.516.339.491.116.99.259,1.481.41a.142.142,0,0,1,.08,0,3.77,3.77,0,0,1,.508.169c.33.1.642.2.945.312a.687.687,0,0,1,.178.062,4.726,4.726,0,0,1,.624.232c.241.1.491.178.749.277a2.076,2.076,0,0,0,.294.125l.669.294c.2.08.392.152.589.25a3.393,3.393,0,0,1,.446.214,6.17,6.17,0,0,1,.7.321c.152.062.294.134.446.214s.41.2.6.294.464.241.687.375a1.892,1.892,0,0,1,.33.161l1.275.7c.125.08.259.143.375.232.571.321,1.124.669,1.677,1.026.285.161.562.357.838.535a4.933,4.933,0,0,0,.419.285l.428.285c.571.392,1.124.785,1.686,1.2l.517.41c.161.116.33.223.491.357s.455.348.687.544c.589.437,1.142.892,1.713,1.382l.178.161a3.2,3.2,0,0,1,.312.285c.392.321.785.651,1.177,1.008s.847.767,1.258,1.177a1.265,1.265,0,0,1,.223.214.321.321,0,0,1,.116.1q.785.74,1.525,1.5l.776.821c.116.107.232.241.348.357s.2.2.294.312c.437.473.892.981,1.32,1.463.214.232.41.482.606.7l.294.357c.116.134.241.268.339.392.446.526.847,1.035,1.258,1.552.152.2.294.392.455.589s.25.312.366.473l.473.624c.392.535.767,1.1,1.159,1.632l.437.633.116.169c.232.321.428.687.651,1.008.428.687.892,1.356,1.275,2.025l.152.25c.473.767.892,1.552,1.32,2.328,0,.071.062.134.1.2a2.172,2.172,0,0,1,.125.25c.2.375.392.731.58,1.106s.375.758.553,1.133c.1.205.178.419.276.615a1.149,1.149,0,0,1,.08.2c.053.1.1.214.152.312.161.357.3.7.455,1.061s.276.687.419,1.026c.071.178.134.366.2.544a.75.75,0,0,0,.071.178,2.958,2.958,0,0,0,.125.321c.116.366.25.7.366,1.052s.223.7.321,1.044c.054.161.1.321.152.491s0,.116.045.178a3.575,3.575,0,0,1,.116.375c.1.357.2.7.276,1.044s.161.669.232,1a2.076,2.076,0,0,0,.1.455.886.886,0,0,0,0,.152,2.531,2.531,0,0,0,.071.375c.062.321.116.651.178.963s.08.615.134.892,0,.375.045.571a.267.267,0,0,1,0,.116,2.034,2.034,0,0,1,0,.232c0,.294.053.6.071.892S474.393,247.283,474.411,247.56Z" transform="translate(-44.612 -21.393)" fill="#323944"/>
      <path id="Path_1030" data-name="Path 1030" d="M466.991,252.727l-.045,18.481v11.729c-3.987,0-7.394-1.427-8.919-3.434v-4.879l.08-27.043c0-9.142-9.927-22.628-21.736-29.433-5.307-3.068-10.248-4.353-14.092-4a9.9,9.9,0,0,0-3.933,1.124,1.546,1.546,0,0,0-.178.134,3.072,3.072,0,0,0-.553.357,4.013,4.013,0,0,0-.571.473.606.606,0,0,0-.2.178,3.06,3.06,0,0,0-.491.526,3.187,3.187,0,0,0-.428.571h-.045a4.721,4.721,0,0,0-.392.687,1.864,1.864,0,0,0-.2.428,1.381,1.381,0,0,0-.152.357.125.125,0,0,0,0,.08,3.246,3.246,0,0,0-.178.544,4.374,4.374,0,0,0-.134.517,3.4,3.4,0,0,0-.08.392,11.347,11.347,0,0,0-.169,1.882v30.388c-3.933,0-7.332-1.356-8.919-3.318V244.36l-.062-27.123c0-6.35,2.515-10.774,6.689-12.977a6.45,6.45,0,0,1,.607-.312h0l.116-.045a8.363,8.363,0,0,1,.963-.392h0a2.964,2.964,0,0,1,.526-.161,3.7,3.7,0,0,1,.589-.178.508.508,0,0,1,.223-.053.428.428,0,0,1,.134,0l.41-.089a3.513,3.513,0,0,1,.419-.089h0a2.374,2.374,0,0,0,.348-.062h.045a2.825,2.825,0,0,1,.41-.062,3.564,3.564,0,0,1,.455-.054,2.532,2.532,0,0,1,.455,0,12.746,12.746,0,0,1,1.445-.071h.473a8.522,8.522,0,0,1,.945.054,14.047,14.047,0,0,1,1.481.134,8.924,8.924,0,0,1,.981.143.268.268,0,0,1,.116,0,2.7,2.7,0,0,1,.651.116c.375.062.74.143,1.133.241s.749.178,1.142.294c.161.054.339.08.517.152l.526.143c1.061.33,2.141.722,3.229,1.177.384.143.74.312,1.115.473s.8.357,1.2.553l1.052.526c.223.125.473.241.7.357.526.294,1.044.571,1.588.892a54.97,54.97,0,0,1,4.656,3.006l.812.589q2.087,1.534,4.067,3.247c.767.669,1.5,1.356,2.239,2.042.491.455.963.892,1.436,1.4s.8.821,1.2,1.231a3.163,3.163,0,0,1,.339.357c.767.794,1.5,1.632,2.221,2.48.1.116.214.232.312.357a69.332,69.332,0,0,1,4.37,5.753,3.867,3.867,0,0,1,.312.437h0c.589.892,1.142,1.73,1.686,2.613.339.553.651,1.106.963,1.668.241.419.473.829.687,1.258.571,1.044,1.088,2.1,1.561,3.148.053.1.1.2.134.276.259.589.526,1.177.749,1.784.178.437.357.892.526,1.338s.357.981.508,1.472.276.829.4,1.258a1.634,1.634,0,0,0,.116.375c.276.963.526,1.927.7,2.872a.509.509,0,0,1,0,.161c.089.375.152.767.214,1.142v.214c.08.491.143.963.2,1.454a25.171,25.171,0,0,1,.3,2.854Z" transform="translate(-43.837 -21.868)" fill="#3a4151"/>
      <path id="Path_1031" data-name="Path 1031" d="M332.459,117.549a3.416,3.416,0,0,1,1.534,2.676l-.125,44.534c0,3.924-2.8,5.521-6.243,3.568l-43.374-25.081a13.664,13.664,0,0,1-6.181-10.7l.125-44.534c0-.981.7-1.382,1.552-.892l4.656,2.676V82.657c0-13.753,9.811-19.319,21.772-12.407s21.674,23.716,21.629,37.461v7.135ZM318.5,109.521v-7.135c0-7.867-5.521-17.464-12.353-21.406s-12.424-.767-12.442,7.091v7.135l24.8,14.271m-7.858,32.734-.954-10.7c1.6-.41,2.551-1.962,2.551-4.263a13.62,13.62,0,0,0-6.181-10.7c-3.416-1.971-6.243-.384-6.243,3.568a12.933,12.933,0,0,0,2.524,7.189l-1.008,9.544a2.934,2.934,0,0,0,.375,1.605,3.345,3.345,0,0,0,1.159,1.267l6.243,3.568a1.079,1.079,0,0,0,1.159.071,1.24,1.24,0,0,0,.392-1.16" transform="translate(-30.053 -7.234)" fill="#fec52b"/>
      <path id="Path_1032" data-name="Path 1032" d="M328.941,229.819a4.959,4.959,0,0,1,2.3,3.889v6.243c0,1.427-1.026,2.007-2.266,1.293l-51.25-29.567a4.986,4.986,0,0,1-2.257-3.9v-6.243c0-1.436,1.026-2.007,2.265-1.284Z" transform="translate(-29.772 -21.571)" fill="#01c48a"/>
    </g>
  </g>
</svg>
