<svg xmlns="http://www.w3.org/2000/svg" width="56" height="51" viewBox="0 0 56 51"><g transform="translate(-1515 -3118)"><rect width="56" height="51" rx="5" transform="translate(1515 3118)" fill="#ff435c"/><g transform="translate(1527.946 3130.098)"><path d="M21.907,26.5H7.286a1.291,1.291,0,0,1-1.292-1.162L3.5,3H25.692l-2.48,22.336A1.313,1.313,0,0,1,21.907,26.5Z" transform="translate(0.458 0.305)" fill="#fff"/><path d="M2,3.305A1.305,1.305,0,0,1,3.305,2H26.8a1.305,1.305,0,1,1,0,2.611H3.305A1.305,1.305,0,0,1,2,3.305Z" fill="#e9e9e9" fill-rule="evenodd"/><path d="M10,8V18.443" transform="translate(2.443 1.833)" fill="none" stroke="#757575" stroke-linecap="round" stroke-linejoin="round" stroke-miterlimit="10" stroke-width="1"/><path d="M14,8V18.443" transform="translate(3.665 1.833)" fill="none" stroke="#757575" stroke-linecap="round" stroke-linejoin="round" stroke-miterlimit="10" stroke-width="1"/></g></g></svg>